# Exported by P1-05 make_calibration_meshes.py
o hemisphere
v 0.000000 0.117054 0.588471
v 0.000000 0.424264 0.424264
v 0.000000 0.498882 0.333342
v 0.000000 0.588471 -0.117054
v 0.000000 0.498882 -0.333342
v 0.000000 0.424264 -0.424264
v 0.011473 0.116491 0.588471
v 0.022506 0.228504 0.554328
v 0.032673 0.331737 0.498882
v 0.041585 0.422221 0.424264
v 0.048899 0.496480 0.333342
v 0.054334 0.551659 0.229610
v 0.057680 0.585638 0.117054
v 0.058810 0.597111 0.000000
v 0.057680 0.585638 -0.117054
v 0.054334 0.551659 -0.229610
v 0.048899 0.496480 -0.333342
v 0.041585 0.422221 -0.424264
v 0.032673 0.331737 -0.498882
v 0.022506 0.228504 -0.554328
v 0.011473 0.116491 -0.588471
v 0.022836 0.114805 0.588471
v 0.044795 0.225198 0.554328
v 0.065032 0.326937 0.498882
v 0.082770 0.416112 0.424264
v 0.097327 0.489296 0.333342
v 0.108144 0.543676 0.229610
v 0.114805 0.577164 0.117054
v 0.117054 0.588471 0.000000
v 0.114805 0.577164 -0.117054
v 0.108144 0.543676 -0.229610
v 0.097327 0.489296 -0.333342
v 0.082770 0.416112 -0.424264
v 0.065032 0.326937 -0.498882
v 0.044795 0.225198 -0.554328
v 0.022836 0.114805 -0.588471
v 0.033979 0.112014 0.588471
v 0.066652 0.219723 0.554328
v 0.096764 0.318989 0.498882
v 0.123157 0.405995 0.424264
v 0.144818 0.477400 0.333342
v 0.160913 0.530459 0.229610
v 0.170824 0.563132 0.117054
v 0.174171 0.574164 0.000000
v 0.170824 0.563132 -0.117054
v 0.160913 0.530459 -0.229610
v 0.144818 0.477400 -0.333342
v 0.123157 0.405995 -0.424264
v 0.096764 0.318989 -0.498882
v 0.066652 0.219723 -0.554328
v 0.033979 0.112014 -0.588471
v 0.044795 0.108144 0.588471
v 0.087868 0.212132 0.554328
v 0.127565 0.307968 0.498882
v 0.162359 0.391969 0.424264
v 0.190914 0.460907 0.333342
v 0.212132 0.512132 0.229610
v 0.225198 0.543676 0.117054
v 0.229610 0.554328 0.000000
v 0.225198 0.543676 -0.117054
v 0.212132 0.512132 -0.229610
v 0.190914 0.460907 -0.333342
v 0.162359 0.391969 -0.424264
v 0.127565 0.307968 -0.498882
v 0.087868 0.212132 -0.554328
v 0.044795 0.108144 -0.588471
v 0.055179 0.103233 0.588471
v 0.108237 0.202498 0.554328
v 0.157136 0.293982 0.498882
v 0.199997 0.374168 0.424264
v 0.235171 0.439974 0.333342
v 0.261308 0.488873 0.229610
v 0.277403 0.518985 0.117054
v 0.282838 0.529153 0.000000
v 0.277403 0.518985 -0.117054
v 0.261308 0.488873 -0.229610
v 0.235171 0.439974 -0.333342
v 0.199997 0.374168 -0.424264
v 0.157136 0.293982 -0.498882
v 0.108237 0.202498 -0.554328
v 0.055179 0.103233 -0.588471
v 0.065032 0.097327 0.588471
v 0.127565 0.190914 0.554328
v 0.185195 0.277164 0.498882
v 0.235708 0.352763 0.424264
v 0.277164 0.414805 0.333342
v 0.307968 0.460907 0.229610
v 0.326937 0.489296 0.117054
v 0.333342 0.498882 0.000000
v 0.326937 0.489296 -0.117054
v 0.307968 0.460907 -0.229610
v 0.277164 0.414805 -0.333342
v 0.235708 0.352763 -0.424264
v 0.185195 0.277164 -0.498882
v 0.127565 0.190914 -0.554328
v 0.065032 0.097327 -0.588471
v 0.074258 0.090484 0.588471
v 0.145663 0.177491 0.554328
v 0.211470 0.257677 0.498882
v 0.269150 0.327961 0.424264
v 0.316487 0.385641 0.333342
v 0.351662 0.428501 0.229610
v 0.373322 0.454894 0.117054
v 0.380636 0.463806 0.000000
v 0.373322 0.454894 -0.117054
v 0.351662 0.428501 -0.229610
v 0.316487 0.385641 -0.333342
v 0.269150 0.327961 -0.424264
v 0.211470 0.257677 -0.498882
v 0.145663 0.177491 -0.554328
v 0.074258 0.090484 -0.588471
v 0.082770 0.082770 0.588471
v 0.162359 0.162359 0.554328
v 0.235709 0.235709 0.498882
v 0.300000 0.300000 0.424264
v 0.352763 0.352763 0.333342
v 0.391969 0.391969 0.229610
v 0.416112 0.416112 0.117054
v 0.424264 0.424264 0.000000
v 0.416112 0.416112 -0.117054
v 0.391969 0.391969 -0.229610
v 0.352763 0.352763 -0.333342
v 0.300000 0.300000 -0.424264
v 0.235709 0.235709 -0.498882
v 0.162359 0.162359 -0.554328
v 0.082770 0.082770 -0.588471
v 0.090484 0.074258 0.588471
v 0.177491 0.145663 0.554328
v 0.257677 0.211470 0.498882
v 0.327961 0.269150 0.424264
v 0.385641 0.316487 0.333342
v 0.428501 0.351662 0.229610
v 0.454894 0.373322 0.117054
v 0.463806 0.380636 0.000000
v 0.454894 0.373322 -0.117054
v 0.428501 0.351662 -0.229610
v 0.385641 0.316487 -0.333342
v 0.327961 0.269150 -0.424264
v 0.257677 0.211470 -0.498882
v 0.177491 0.145663 -0.554328
v 0.090484 0.074258 -0.588471
v 0.097327 0.065032 0.588471
v 0.190914 0.127565 0.554328
v 0.277164 0.185195 0.498882
v 0.352763 0.235708 0.424264
v 0.414805 0.277164 0.333342
v 0.460907 0.307968 0.229610
v 0.489296 0.326937 0.117054
v 0.498882 0.333342 0.000000
v 0.489296 0.326937 -0.117054
v 0.460907 0.307968 -0.229610
v 0.414805 0.277164 -0.333342
v 0.352763 0.235708 -0.424264
v 0.277164 0.185195 -0.498882
v 0.190914 0.127565 -0.554328
v 0.097327 0.065032 -0.588471
v 0.103233 0.055179 0.588471
v 0.202498 0.108237 0.554328
v 0.293982 0.157136 0.498882
v 0.374168 0.199997 0.424264
v 0.439974 0.235171 0.333342
v 0.488873 0.261308 0.229610
v 0.518985 0.277403 0.117054
v 0.529153 0.282838 0.000000
v 0.518985 0.277403 -0.117054
v 0.488873 0.261308 -0.229610
v 0.439974 0.235171 -0.333342
v 0.374168 0.199997 -0.424264
v 0.293982 0.157136 -0.498882
v 0.202498 0.108237 -0.554328
v 0.103233 0.055179 -0.588471
v 0.108144 0.044795 0.588471
v 0.212132 0.087868 0.554328
v 0.307968 0.127565 0.498882
v 0.391969 0.162359 0.424264
v 0.460907 0.190914 0.333342
v 0.512132 0.212132 0.229610
v 0.543676 0.225198 0.117054
v 0.554328 0.229610 0.000000
v 0.543676 0.225198 -0.117054
v 0.512132 0.212132 -0.229610
v 0.460907 0.190914 -0.333342
v 0.391969 0.162359 -0.424264
v 0.307968 0.127565 -0.498882
v 0.212132 0.087868 -0.554328
v 0.108144 0.044795 -0.588471
v 0.112014 0.033979 0.588471
v 0.219723 0.066652 0.554328
v 0.318989 0.096764 0.498882
v 0.405995 0.123157 0.424264
v 0.477400 0.144818 0.333342
v 0.530458 0.160913 0.229610
v 0.563132 0.170824 0.117054
v 0.574164 0.174171 0.000000
v 0.563132 0.170824 -0.117054
v 0.530458 0.160913 -0.229610
v 0.477400 0.144818 -0.333342
v 0.405995 0.123157 -0.424264
v 0.318989 0.096764 -0.498882
v 0.219723 0.066652 -0.554328
v 0.112014 0.033979 -0.588471
v 0.114805 0.022836 0.588471
v 0.225198 0.044795 0.554328
v 0.326937 0.065032 0.498882
v 0.416112 0.082770 0.424264
v 0.489296 0.097327 0.333342
v 0.543676 0.108144 0.229610
v 0.577164 0.114805 0.117054
v 0.588471 0.117054 0.000000
v 0.577164 0.114805 -0.117054
v 0.543676 0.108144 -0.229610
v 0.489296 0.097327 -0.333342
v 0.416112 0.082770 -0.424264
v 0.326937 0.065032 -0.498882
v 0.225198 0.044795 -0.554328
v 0.114805 0.022836 -0.588471
v 0.116491 0.011473 0.588471
v 0.228504 0.022506 0.554328
v 0.331737 0.032673 0.498882
v 0.422221 0.041585 0.424264
v 0.496480 0.048899 0.333342
v 0.551658 0.054334 0.229610
v 0.585638 0.057680 0.117054
v 0.597111 0.058810 0.000000
v 0.585638 0.057680 -0.117054
v 0.551658 0.054334 -0.229610
v 0.496480 0.048899 -0.333342
v 0.422221 0.041585 -0.424264
v 0.331737 0.032673 -0.498882
v 0.228504 0.022506 -0.554328
v 0.116491 0.011473 -0.588471
v 0.117054 -0.000000 0.588471
v 0.229610 0.000000 0.554328
v 0.333342 0.000000 0.498882
v 0.424264 0.000000 0.424264
v 0.498882 -0.000000 0.333342
v 0.554328 -0.000000 0.229610
v 0.588471 -0.000000 0.117054
v 0.600000 0.000000 0.000000
v 0.588471 -0.000000 -0.117054
v 0.554328 -0.000000 -0.229610
v 0.498882 -0.000000 -0.333342
v 0.424264 0.000000 -0.424264
v 0.333342 0.000000 -0.498882
v 0.229610 0.000000 -0.554328
v 0.117054 -0.000000 -0.588471
v 0.116491 -0.011473 0.588471
v 0.228504 -0.022506 0.554328
v 0.331737 -0.032673 0.498882
v 0.422221 -0.041585 0.424264
v 0.496480 -0.048899 0.333342
v 0.551658 -0.054334 0.229610
v 0.585638 -0.057680 0.117054
v 0.597111 -0.058810 0.000000
v 0.585638 -0.057680 -0.117054
v 0.551658 -0.054334 -0.229610
v 0.496480 -0.048899 -0.333342
v 0.422221 -0.041585 -0.424264
v 0.331737 -0.032673 -0.498882
v 0.228504 -0.022506 -0.554328
v 0.116491 -0.011473 -0.588471
v 0.114805 -0.022836 0.588471
v 0.225198 -0.044795 0.554328
v 0.326937 -0.065032 0.498882
v 0.416112 -0.082770 0.424264
v 0.489296 -0.097327 0.333342
v 0.543676 -0.108144 0.229610
v 0.577164 -0.114805 0.117054
v 0.588471 -0.117054 0.000000
v 0.577164 -0.114805 -0.117054
v 0.543676 -0.108144 -0.229610
v 0.489296 -0.097327 -0.333342
v 0.416112 -0.082770 -0.424264
v 0.326937 -0.065032 -0.498882
v 0.225198 -0.044795 -0.554328
v 0.114805 -0.022836 -0.588471
v 0.112014 -0.033979 0.588471
v 0.219723 -0.066652 0.554328
v 0.318989 -0.096764 0.498882
v 0.405995 -0.123157 0.424264
v 0.477400 -0.144818 0.333342
v 0.530458 -0.160913 0.229610
v 0.563132 -0.170824 0.117054
v 0.574164 -0.174171 0.000000
v 0.563132 -0.170824 -0.117054
v 0.530458 -0.160913 -0.229610
v 0.477400 -0.144818 -0.333342
v 0.405995 -0.123157 -0.424264
v 0.318989 -0.096764 -0.498882
v 0.219723 -0.066652 -0.554328
v 0.112014 -0.033979 -0.588471
v 0.108144 -0.044795 0.588471
v 0.212132 -0.087868 0.554328
v 0.307968 -0.127565 0.498882
v 0.391969 -0.162359 0.424264
v 0.460907 -0.190914 0.333342
v 0.512132 -0.212132 0.229610
v 0.543676 -0.225198 0.117054
v 0.554328 -0.229610 0.000000
v 0.543676 -0.225198 -0.117054
v 0.512132 -0.212132 -0.229610
v 0.460907 -0.190914 -0.333342
v 0.391969 -0.162359 -0.424264
v 0.307968 -0.127565 -0.498882
v 0.212132 -0.087868 -0.554328
v 0.108144 -0.044795 -0.588471
v 0.103233 -0.055179 0.588471
v 0.202498 -0.108237 0.554328
v 0.293981 -0.157136 0.498882
v 0.374167 -0.199997 0.424264
v 0.439974 -0.235171 0.333342
v 0.488873 -0.261308 0.229610
v 0.518985 -0.277403 0.117054
v 0.529153 -0.282838 0.000000
v 0.518985 -0.277403 -0.117054
v 0.488873 -0.261308 -0.229610
v 0.439974 -0.235171 -0.333342
v 0.374167 -0.199997 -0.424264
v 0.293981 -0.157136 -0.498882
v 0.202498 -0.108237 -0.554328
v 0.103233 -0.055179 -0.588471
v 0.097327 -0.065032 0.588471
v 0.190914 -0.127565 0.554328
v 0.277164 -0.185195 0.498882
v 0.352763 -0.235708 0.424264
v 0.414805 -0.277164 0.333342
v 0.460907 -0.307968 0.229610
v 0.489296 -0.326937 0.117054
v 0.498882 -0.333342 0.000000
v 0.489296 -0.326937 -0.117054
v 0.460907 -0.307968 -0.229610
v 0.414805 -0.277164 -0.333342
v 0.352763 -0.235708 -0.424264
v 0.277164 -0.185195 -0.498882
v 0.190914 -0.127565 -0.554328
v 0.097327 -0.065032 -0.588471
v 0.090484 -0.074258 0.588471
v 0.177491 -0.145663 0.554328
v 0.257677 -0.211470 0.498882
v 0.327961 -0.269150 0.424264
v 0.385641 -0.316487 0.333342
v 0.428501 -0.351662 0.229610
v 0.454894 -0.373322 0.117054
v 0.463806 -0.380636 0.000000
v 0.454894 -0.373322 -0.117054
v 0.428501 -0.351662 -0.229610
v 0.385641 -0.316487 -0.333342
v 0.327961 -0.269150 -0.424264
v 0.257677 -0.211470 -0.498882
v 0.177491 -0.145663 -0.554328
v 0.090484 -0.074258 -0.588471
v 0.082770 -0.082770 0.588471
v 0.162359 -0.162359 0.554328
v 0.235708 -0.235708 0.498882
v 0.300000 -0.300000 0.424264
v 0.352763 -0.352763 0.333342
v 0.391969 -0.391969 0.229610
v 0.416112 -0.416112 0.117054
v 0.424264 -0.424264 0.000000
v 0.416112 -0.416112 -0.117054
v 0.391969 -0.391969 -0.229610
v 0.352763 -0.352763 -0.333342
v 0.300000 -0.300000 -0.424264
v 0.235708 -0.235708 -0.498882
v 0.162359 -0.162359 -0.554328
v 0.082770 -0.082770 -0.588471
v 0.074258 -0.090484 0.588471
v 0.145663 -0.177491 0.554328
v 0.211470 -0.257677 0.498882
v 0.269150 -0.327961 0.424264
v 0.316487 -0.385641 0.333342
v 0.351662 -0.428501 0.229610
v 0.373322 -0.454894 0.117054
v 0.380636 -0.463806 0.000000
v 0.373322 -0.454894 -0.117054
v 0.351662 -0.428501 -0.229610
v 0.316487 -0.385641 -0.333342
v 0.269150 -0.327961 -0.424264
v 0.211470 -0.257677 -0.498882
v 0.145663 -0.177491 -0.554328
v 0.074258 -0.090484 -0.588471
v 0.065032 -0.097327 0.588471
v 0.127565 -0.190914 0.554328
v 0.185195 -0.277164 0.498882
v 0.235708 -0.352763 0.424264
v 0.277164 -0.414805 0.333342
v 0.307968 -0.460907 0.229610
v 0.326937 -0.489296 0.117054
v 0.333342 -0.498882 0.000000
v 0.326937 -0.489296 -0.117054
v 0.307968 -0.460907 -0.229610
v 0.277164 -0.414805 -0.333342
v 0.235708 -0.352763 -0.424264
v 0.185195 -0.277164 -0.498882
v 0.127565 -0.190914 -0.554328
v 0.065032 -0.097327 -0.588471
v 0.055179 -0.103233 0.588471
v 0.108237 -0.202498 0.554328
v 0.157136 -0.293981 0.498882
v 0.199997 -0.374167 0.424264
v 0.235171 -0.439974 0.333342
v 0.261308 -0.488873 0.229610
v 0.277403 -0.518985 0.117054
v 0.282838 -0.529153 0.000000
v 0.277403 -0.518985 -0.117054
v 0.261308 -0.488873 -0.229610
v 0.235171 -0.439974 -0.333342
v 0.199997 -0.374167 -0.424264
v 0.157136 -0.293981 -0.498882
v 0.108237 -0.202498 -0.554328
v 0.055179 -0.103233 -0.588471
v 0.044795 -0.108144 0.588471
v 0.087868 -0.212132 0.554328
v 0.127565 -0.307968 0.498882
v 0.162359 -0.391969 0.424264
v 0.190914 -0.460907 0.333342
v 0.212132 -0.512132 0.229610
v 0.225198 -0.543676 0.117054
v 0.229610 -0.554328 0.000000
v 0.225198 -0.543676 -0.117054
v 0.212132 -0.512132 -0.229610
v 0.190914 -0.460907 -0.333342
v 0.162359 -0.391969 -0.424264
v 0.127565 -0.307968 -0.498882
v 0.087868 -0.212132 -0.554328
v 0.044795 -0.108144 -0.588471
v 0.033979 -0.112014 0.588471
v 0.066652 -0.219723 0.554328
v 0.096764 -0.318988 0.498882
v 0.123157 -0.405995 0.424264
v 0.144818 -0.477400 0.333342
v 0.160913 -0.530458 0.229610
v 0.170824 -0.563132 0.117054
v 0.174171 -0.574164 0.000000
v 0.170824 -0.563132 -0.117054
v 0.160913 -0.530458 -0.229610
v 0.144818 -0.477400 -0.333342
v 0.123157 -0.405995 -0.424264
v 0.096764 -0.318988 -0.498882
v 0.066652 -0.219723 -0.554328
v 0.033979 -0.112014 -0.588471
v 0.022836 -0.114805 0.588471
v 0.044795 -0.225198 0.554328
v 0.065032 -0.326937 0.498882
v 0.082770 -0.416112 0.424264
v 0.097327 -0.489296 0.333342
v 0.108144 -0.543676 0.229610
v 0.114805 -0.577164 0.117054
v 0.117054 -0.588471 0.000000
v 0.114805 -0.577164 -0.117054
v 0.108144 -0.543676 -0.229610
v 0.097327 -0.489296 -0.333342
v 0.082770 -0.416112 -0.424264
v 0.065032 -0.326937 -0.498882
v 0.044795 -0.225198 -0.554328
v 0.022836 -0.114805 -0.588471
v 0.011473 -0.116491 0.588471
v 0.022506 -0.228504 0.554328
v 0.032673 -0.331737 0.498882
v 0.041585 -0.422221 0.424264
v 0.048899 -0.496480 0.333342
v 0.054334 -0.551658 0.229610
v 0.057680 -0.585637 0.117054
v 0.058810 -0.597111 0.000000
v 0.057680 -0.585637 -0.117054
v 0.054334 -0.551658 -0.229610
v 0.048899 -0.496480 -0.333342
v 0.041585 -0.422221 -0.424264
v 0.032673 -0.331737 -0.498882
v 0.022506 -0.228504 -0.554328
v 0.011473 -0.116491 -0.588471
v 0.000000 0.000000 0.600000
v -0.000000 -0.117054 0.588471
v 0.000000 -0.229610 0.554328
v 0.000000 -0.333342 0.498882
v -0.000000 -0.424264 0.424264
v -0.000000 -0.498882 0.333342
v -0.000000 -0.554327 0.229610
v -0.000000 -0.588471 0.117054
v 0.000000 -0.600000 0.000000
v -0.000000 -0.588471 -0.117054
v -0.000000 -0.554327 -0.229610
v -0.000000 -0.498882 -0.333342
v -0.000000 -0.424264 -0.424264
v 0.000000 -0.333342 -0.498882
v 0.000000 -0.229610 -0.554328
v -0.000000 -0.117054 -0.588471
v -0.011473 -0.116491 0.588471
v -0.022506 -0.228504 0.554328
v -0.032673 -0.331737 0.498882
v -0.041585 -0.422221 0.424264
v -0.048899 -0.496480 0.333342
v -0.054334 -0.551658 0.229610
v -0.057680 -0.585637 0.117054
v -0.058810 -0.597111 0.000000
v -0.057680 -0.585637 -0.117054
v -0.054334 -0.551658 -0.229610
v -0.048899 -0.496480 -0.333342
v -0.041585 -0.422221 -0.424264
v -0.032673 -0.331737 -0.498882
v -0.022506 -0.228504 -0.554328
v -0.011473 -0.116491 -0.588471
v -0.022836 -0.114805 0.588471
v -0.044795 -0.225198 0.554328
v -0.065032 -0.326937 0.498882
v -0.082770 -0.416112 0.424264
v -0.097327 -0.489296 0.333342
v -0.108144 -0.543676 0.229610
v -0.114805 -0.577164 0.117054
v -0.117054 -0.588471 0.000000
v -0.114805 -0.577164 -0.117054
v -0.108144 -0.543676 -0.229610
v -0.097327 -0.489296 -0.333342
v -0.082770 -0.416112 -0.424264
v -0.065032 -0.326937 -0.498882
v -0.044795 -0.225198 -0.554328
v -0.022836 -0.114805 -0.588471
v -0.033979 -0.112014 0.588471
v -0.066652 -0.219723 0.554328
v -0.096764 -0.318988 0.498882
v -0.123157 -0.405995 0.424264
v -0.144818 -0.477400 0.333342
v -0.160913 -0.530458 0.229610
v -0.170824 -0.563132 0.117054
v -0.174171 -0.574164 0.000000
v -0.170824 -0.563132 -0.117054
v -0.160913 -0.530458 -0.229610
v -0.144818 -0.477400 -0.333342
v -0.123157 -0.405995 -0.424264
v -0.096764 -0.318988 -0.498882
v -0.066652 -0.219723 -0.554328
v -0.033979 -0.112014 -0.588471
v -0.044795 -0.108144 0.588471
v -0.087868 -0.212132 0.554328
v -0.127564 -0.307968 0.498882
v -0.162359 -0.391969 0.424264
v -0.190914 -0.460907 0.333342
v -0.212132 -0.512132 0.229610
v -0.225198 -0.543676 0.117054
v -0.229610 -0.554328 0.000000
v -0.225198 -0.543676 -0.117054
v -0.212132 -0.512132 -0.229610
v -0.190914 -0.460907 -0.333342
v -0.162359 -0.391969 -0.424264
v -0.127564 -0.307968 -0.498882
v -0.087868 -0.212132 -0.554328
v -0.044795 -0.108144 -0.588471
v -0.055179 -0.103233 0.588471
v -0.108237 -0.202498 0.554328
v -0.157136 -0.293981 0.498882
v -0.199997 -0.374167 0.424264
v -0.235171 -0.439974 0.333342
v -0.261308 -0.488873 0.229610
v -0.277403 -0.518985 0.117054
v -0.282838 -0.529153 0.000000
v -0.277403 -0.518985 -0.117054
v -0.261308 -0.488873 -0.229610
v -0.235171 -0.439974 -0.333342
v -0.199997 -0.374167 -0.424264
v -0.157136 -0.293981 -0.498882
v -0.108237 -0.202498 -0.554328
v -0.055179 -0.103233 -0.588471
v -0.065032 -0.097327 0.588471
v -0.127565 -0.190914 0.554328
v -0.185195 -0.277164 0.498882
v -0.235708 -0.352763 0.424264
v -0.277164 -0.414805 0.333342
v -0.307968 -0.460906 0.229610
v -0.326937 -0.489296 0.117054
v -0.333342 -0.498882 0.000000
v -0.326937 -0.489296 -0.117054
v -0.307968 -0.460906 -0.229610
v -0.277164 -0.414805 -0.333342
v -0.235708 -0.352763 -0.424264
v -0.185195 -0.277164 -0.498882
v -0.127565 -0.190914 -0.554328
v -0.065032 -0.097327 -0.588471
v -0.074258 -0.090484 0.588471
v -0.145663 -0.177491 0.554328
v -0.211470 -0.257677 0.498882
v -0.269150 -0.327960 0.424264
v -0.316487 -0.385641 0.333342
v -0.351662 -0.428501 0.229610
v -0.373322 -0.454894 0.117054
v -0.380636 -0.463806 0.000000
v -0.373322 -0.454894 -0.117054
v -0.351662 -0.428501 -0.229610
v -0.316487 -0.385641 -0.333342
v -0.269150 -0.327960 -0.424264
v -0.211470 -0.257677 -0.498882
v -0.145663 -0.177491 -0.554328
v -0.074258 -0.090484 -0.588471
v -0.082770 -0.082770 0.588471
v -0.162359 -0.162359 0.554328
v -0.235708 -0.235708 0.498882
v -0.300000 -0.300000 0.424264
v -0.352763 -0.352763 0.333342
v -0.391969 -0.391969 0.229610
v -0.416112 -0.416112 0.117054
v -0.424264 -0.424264 0.000000
v -0.416112 -0.416112 -0.117054
v -0.391969 -0.391969 -0.229610
v -0.352763 -0.352763 -0.333342
v -0.300000 -0.300000 -0.424264
v -0.235708 -0.235708 -0.498882
v -0.162359 -0.162359 -0.554328
v -0.082770 -0.082770 -0.588471
v 0.000000 0.000000 -0.600000
v -0.090484 -0.074258 0.588471
v -0.177491 -0.145663 0.554328
v -0.257677 -0.211470 0.498882
v -0.327960 -0.269150 0.424264
v -0.385641 -0.316487 0.333342
v -0.428501 -0.351662 0.229610
v -0.454894 -0.373322 0.117054
v -0.463806 -0.380636 0.000000
v -0.454894 -0.373322 -0.117054
v -0.428501 -0.351662 -0.229610
v -0.385641 -0.316487 -0.333342
v -0.327960 -0.269150 -0.424264
v -0.257677 -0.211470 -0.498882
v -0.177491 -0.145663 -0.554328
v -0.090484 -0.074258 -0.588471
v -0.097327 -0.065032 0.588471
v -0.190914 -0.127565 0.554328
v -0.277164 -0.185195 0.498882
v -0.352763 -0.235708 0.424264
v -0.414805 -0.277164 0.333342
v -0.460907 -0.307968 0.229610
v -0.489296 -0.326937 0.117054
v -0.498882 -0.333342 0.000000
v -0.489296 -0.326937 -0.117054
v -0.460907 -0.307968 -0.229610
v -0.414805 -0.277164 -0.333342
v -0.352763 -0.235708 -0.424264
v -0.277164 -0.185195 -0.498882
v -0.190914 -0.127565 -0.554328
v -0.097327 -0.065032 -0.588471
v -0.103233 -0.055179 0.588471
v -0.202498 -0.108237 0.554328
v -0.293981 -0.157136 0.498882
v -0.374167 -0.199997 0.424264
v -0.439974 -0.235171 0.333342
v -0.488873 -0.261308 0.229610
v -0.518985 -0.277403 0.117054
v -0.529153 -0.282838 0.000000
v -0.518985 -0.277403 -0.117054
v -0.488873 -0.261308 -0.229610
v -0.439974 -0.235171 -0.333342
v -0.374167 -0.199997 -0.424264
v -0.293981 -0.157136 -0.498882
v -0.202498 -0.108237 -0.554328
v -0.103233 -0.055179 -0.588471
v -0.108144 -0.044795 0.588471
v -0.212132 -0.087868 0.554328
v -0.307968 -0.127565 0.498882
v -0.391969 -0.162359 0.424264
v -0.460907 -0.190914 0.333342
v -0.512132 -0.212132 0.229610
v -0.543676 -0.225198 0.117054
v -0.554328 -0.229610 0.000000
v -0.543676 -0.225198 -0.117054
v -0.512132 -0.212132 -0.229610
v -0.460907 -0.190914 -0.333342
v -0.391969 -0.162359 -0.424264
v -0.307968 -0.127565 -0.498882
v -0.212132 -0.087868 -0.554328
v -0.108144 -0.044795 -0.588471
v -0.112014 -0.033979 0.588471
v -0.219723 -0.066652 0.554328
v -0.318988 -0.096764 0.498882
v -0.405995 -0.123157 0.424264
v -0.477400 -0.144818 0.333342
v -0.530458 -0.160913 0.229610
v -0.563132 -0.170824 0.117054
v -0.574164 -0.174171 0.000000
v -0.563132 -0.170824 -0.117054
v -0.530458 -0.160913 -0.229610
v -0.477400 -0.144818 -0.333342
v -0.405995 -0.123157 -0.424264
v -0.318988 -0.096764 -0.498882
v -0.219723 -0.066652 -0.554328
v -0.112014 -0.033979 -0.588471
v -0.114805 -0.022836 0.588471
v -0.225198 -0.044795 0.554328
v -0.326937 -0.065032 0.498882
v -0.416112 -0.082770 0.424264
v -0.489296 -0.097327 0.333342
v -0.543676 -0.108144 0.229610
v -0.577164 -0.114805 0.117054
v -0.588471 -0.117054 0.000000
v -0.577164 -0.114805 -0.117054
v -0.543676 -0.108144 -0.229610
v -0.489296 -0.097327 -0.333342
v -0.416112 -0.082770 -0.424264
v -0.326937 -0.065032 -0.498882
v -0.225198 -0.044795 -0.554328
v -0.114805 -0.022836 -0.588471
v -0.116490 -0.011473 0.588471
v -0.228504 -0.022506 0.554328
v -0.331737 -0.032673 0.498882
v -0.422221 -0.041585 0.424264
v -0.496480 -0.048899 0.333342
v -0.551658 -0.054333 0.229610
v -0.585637 -0.057680 0.117054
v -0.597111 -0.058810 0.000000
v -0.585637 -0.057680 -0.117054
v -0.551658 -0.054333 -0.229610
v -0.496480 -0.048899 -0.333342
v -0.422221 -0.041585 -0.424264
v -0.331737 -0.032673 -0.498882
v -0.228504 -0.022506 -0.554328
v -0.116490 -0.011473 -0.588471
v -0.117054 0.000000 0.588471
v -0.229610 -0.000000 0.554328
v -0.333342 -0.000000 0.498882
v -0.424264 0.000000 0.424264
v -0.498882 0.000000 0.333342
v -0.554327 0.000000 0.229610
v -0.588471 0.000000 0.117054
v -0.600000 0.000000 0.000000
v -0.588471 0.000000 -0.117054
v -0.554327 0.000000 -0.229610
v -0.498882 0.000000 -0.333342
v -0.424264 0.000000 -0.424264
v -0.333342 -0.000000 -0.498882
v -0.229610 -0.000000 -0.554328
v -0.117054 0.000000 -0.588471
v -0.116490 0.011473 0.588471
v -0.228504 0.022506 0.554328
v -0.331737 0.032673 0.498882
v -0.422221 0.041585 0.424264
v -0.496480 0.048899 0.333342
v -0.551658 0.054334 0.229610
v -0.585637 0.057680 0.117054
v -0.597111 0.058810 0.000000
v -0.585637 0.057680 -0.117054
v -0.551658 0.054334 -0.229610
v -0.496480 0.048899 -0.333342
v -0.422221 0.041585 -0.424264
v -0.331737 0.032673 -0.498882
v -0.228504 0.022506 -0.554328
v -0.116490 0.011473 -0.588471
v -0.114805 0.022836 0.588471
v -0.225198 0.044795 0.554328
v -0.326937 0.065032 0.498882
v -0.416112 0.082770 0.424264
v -0.489296 0.097327 0.333342
v -0.543676 0.108144 0.229610
v -0.577164 0.114805 0.117054
v -0.588471 0.117054 0.000000
v -0.577164 0.114805 -0.117054
v -0.543676 0.108144 -0.229610
v -0.489296 0.097327 -0.333342
v -0.416112 0.082770 -0.424264
v -0.326937 0.065032 -0.498882
v -0.225198 0.044795 -0.554328
v -0.114805 0.022836 -0.588471
v -0.112014 0.033979 0.588471
v -0.219723 0.066652 0.554328
v -0.318988 0.096764 0.498882
v -0.405995 0.123157 0.424264
v -0.477400 0.144818 0.333342
v -0.530458 0.160913 0.229610
v -0.563132 0.170824 0.117054
v -0.574164 0.174171 0.000000
v -0.563132 0.170824 -0.117054
v -0.530458 0.160913 -0.229610
v -0.477400 0.144818 -0.333342
v -0.405995 0.123157 -0.424264
v -0.318988 0.096764 -0.498882
v -0.219723 0.066652 -0.554328
v -0.112014 0.033979 -0.588471
v -0.108144 0.044795 0.588471
v -0.212132 0.087868 0.554328
v -0.307968 0.127564 0.498882
v -0.391969 0.162359 0.424264
v -0.460907 0.190914 0.333342
v -0.512132 0.212132 0.229610
v -0.543676 0.225198 0.117054
v -0.554327 0.229610 0.000000
v -0.543676 0.225198 -0.117054
v -0.512132 0.212132 -0.229610
v -0.460907 0.190914 -0.333342
v -0.391969 0.162359 -0.424264
v -0.307968 0.127564 -0.498882
v -0.212132 0.087868 -0.554328
v -0.108144 0.044795 -0.588471
v -0.103233 0.055179 0.588471
v -0.202498 0.108237 0.554328
v -0.293981 0.157136 0.498882
v -0.374167 0.199997 0.424264
v -0.439974 0.235171 0.333342
v -0.488873 0.261308 0.229610
v -0.518985 0.277403 0.117054
v -0.529153 0.282838 0.000000
v -0.518985 0.277403 -0.117054
v -0.488873 0.261308 -0.229610
v -0.439974 0.235171 -0.333342
v -0.374167 0.199997 -0.424264
v -0.293981 0.157136 -0.498882
v -0.202498 0.108237 -0.554328
v -0.103233 0.055179 -0.588471
v -0.097327 0.065032 0.588471
v -0.190914 0.127565 0.554328
v -0.277164 0.185195 0.498882
v -0.352762 0.235708 0.424264
v -0.414805 0.277164 0.333342
v -0.460906 0.307968 0.229610
v -0.489296 0.326937 0.117054
v -0.498882 0.333342 0.000000
v -0.489296 0.326937 -0.117054
v -0.460906 0.307968 -0.229610
v -0.414805 0.277164 -0.333342
v -0.352762 0.235708 -0.424264
v -0.277164 0.185195 -0.498882
v -0.190914 0.127565 -0.554328
v -0.097327 0.065032 -0.588471
v -0.090484 0.074258 0.588471
v -0.177491 0.145663 0.554328
v -0.257677 0.211470 0.498882
v -0.327960 0.269150 0.424264
v -0.385641 0.316487 0.333342
v -0.428501 0.351662 0.229610
v -0.454894 0.373322 0.117054
v -0.463806 0.380636 0.000000
v -0.454894 0.373322 -0.117054
v -0.428501 0.351662 -0.229610
v -0.385641 0.316487 -0.333342
v -0.327960 0.269150 -0.424264
v -0.257677 0.211470 -0.498882
v -0.177491 0.145663 -0.554328
v -0.090484 0.074258 -0.588471
v -0.082770 0.082770 0.588471
v -0.162359 0.162359 0.554328
v -0.235708 0.235708 0.498882
v -0.300000 0.300000 0.424264
v -0.352763 0.352763 0.333342
v -0.391969 0.391969 0.229610
v -0.416112 0.416112 0.117054
v -0.424264 0.424264 0.000000
v -0.416112 0.416112 -0.117054
v -0.391969 0.391969 -0.229610
v -0.352763 0.352763 -0.333342
v -0.300000 0.300000 -0.424264
v -0.235708 0.235708 -0.498882
v -0.162359 0.162359 -0.554328
v -0.082770 0.082770 -0.588471
v -0.074258 0.090484 0.588471
v -0.145663 0.177491 0.554328
v -0.211470 0.257677 0.498882
v -0.269150 0.327960 0.424264
v -0.316487 0.385641 0.333342
v -0.351662 0.428501 0.229610
v -0.373322 0.454894 0.117054
v -0.380636 0.463806 0.000000
v -0.373322 0.454894 -0.117054
v -0.351662 0.428501 -0.229610
v -0.316487 0.385641 -0.333342
v -0.269150 0.327960 -0.424264
v -0.211470 0.257677 -0.498882
v -0.145663 0.177491 -0.554328
v -0.074258 0.090484 -0.588471
v -0.065032 0.097327 0.588471
v -0.127565 0.190914 0.554328
v -0.185195 0.277164 0.498882
v -0.235708 0.352763 0.424264
v -0.277164 0.414805 0.333342
v -0.307968 0.460906 0.229610
v -0.326937 0.489296 0.117054
v -0.333342 0.498882 0.000000
v -0.326937 0.489296 -0.117054
v -0.307968 0.460906 -0.229610
v -0.277164 0.414805 -0.333342
v -0.235708 0.352763 -0.424264
v -0.185195 0.277164 -0.498882
v -0.127565 0.190914 -0.554328
v -0.065032 0.097327 -0.588471
v -0.055179 0.103233 0.588471
v -0.108237 0.202498 0.554328
v -0.157136 0.293981 0.498882
v -0.199997 0.374167 0.424264
v -0.235171 0.439974 0.333342
v -0.261308 0.488873 0.229610
v -0.277403 0.518985 0.117054
v -0.282838 0.529153 0.000000
v -0.277403 0.518985 -0.117054
v -0.261308 0.488873 -0.229610
v -0.235171 0.439974 -0.333342
v -0.199997 0.374167 -0.424264
v -0.157136 0.293981 -0.498882
v -0.108237 0.202498 -0.554328
v -0.055179 0.103233 -0.588471
v -0.044795 0.108144 0.588471
v -0.087868 0.212132 0.554328
v -0.127564 0.307968 0.498882
v -0.162359 0.391969 0.424264
v -0.190914 0.460907 0.333342
v -0.212132 0.512132 0.229610
v -0.225198 0.543676 0.117054
v -0.229610 0.554327 0.000000
v -0.225198 0.543676 -0.117054
v -0.212132 0.512132 -0.229610
v -0.190914 0.460907 -0.333342
v -0.162359 0.391969 -0.424264
v -0.127564 0.307968 -0.498882
v -0.087868 0.212132 -0.554328
v -0.044795 0.108144 -0.588471
v -0.033979 0.112014 0.588471
v -0.066652 0.219723 0.554328
v -0.096764 0.318988 0.498882
v -0.123157 0.405995 0.424264
v -0.144818 0.477400 0.333342
v -0.160913 0.530458 0.229610
v -0.170824 0.563132 0.117054
v -0.174171 0.574164 0.000000
v -0.170824 0.563132 -0.117054
v -0.160913 0.530458 -0.229610
v -0.144818 0.477400 -0.333342
v -0.123157 0.405995 -0.424264
v -0.096764 0.318988 -0.498882
v -0.066652 0.219723 -0.554328
v -0.033979 0.112014 -0.588471
v -0.022836 0.114805 0.588471
v -0.044795 0.225198 0.554328
v -0.065032 0.326937 0.498882
v -0.082770 0.416112 0.424264
v -0.097327 0.489296 0.333342
v -0.108144 0.543676 0.229610
v -0.114805 0.577164 0.117054
v -0.117054 0.588471 0.000000
v -0.114805 0.577164 -0.117054
v -0.108144 0.543676 -0.229610
v -0.097327 0.489296 -0.333342
v -0.082770 0.416112 -0.424264
v -0.065032 0.326937 -0.498882
v -0.044795 0.225198 -0.554328
v -0.022836 0.114805 -0.588471
v -0.011473 0.116490 0.588471
v -0.022506 0.228504 0.554328
v -0.032673 0.331737 0.498882
v -0.041585 0.422221 0.424264
v -0.048899 0.496480 0.333342
v -0.054333 0.551658 0.229610
v -0.057680 0.585637 0.117054
v -0.058810 0.597111 0.000000
v -0.057680 0.585637 -0.117054
v -0.054333 0.551658 -0.229610
v -0.048899 0.496480 -0.333342
v -0.041585 0.422221 -0.424264
v -0.032673 0.331737 -0.498882
v -0.022506 0.228504 -0.554328
v -0.011473 0.116490 -0.588471
v -0.000000 0.229610 0.554328
v -0.000000 0.333342 0.498882
v 0.000000 0.554327 0.229610
v 0.000000 0.588471 0.117054
v 0.000000 0.600000 0.000000
v 0.000000 0.554327 -0.229610
v -0.000000 0.333342 -0.498882
v -0.000000 0.229610 -0.554328
v 0.000000 0.117054 -0.588471
f 6 5 17 18
f 3 2 10 11
f 960 6 18 19
f 956 3 11 12
f 961 960 19 20
f 957 956 12 13
f 962 961 20 21
f 958 957 13 14
f 1 472 7
f 608 962 21
f 4 958 14 15
f 954 1 7 8
f 959 4 15 16
f 955 954 8 9
f 5 959 16 17
f 2 955 9 10
f 9 8 23 24
f 17 16 31 32
f 10 9 24 25
f 18 17 32 33
f 11 10 25 26
f 19 18 33 34
f 12 11 26 27
f 20 19 34 35
f 13 12 27 28
f 21 20 35 36
f 14 13 28 29
f 7 472 22
f 608 21 36
f 15 14 29 30
f 8 7 22 23
f 16 15 30 31
f 28 27 42 43
f 36 35 50 51
f 29 28 43 44
f 22 472 37
f 608 36 51
f 30 29 44 45
f 23 22 37 38
f 31 30 45 46
f 24 23 38 39
f 32 31 46 47
f 25 24 39 40
f 33 32 47 48
f 26 25 40 41
f 34 33 48 49
f 27 26 41 42
f 35 34 49 50
f 47 46 61 62
f 40 39 54 55
f 48 47 62 63
f 41 40 55 56
f 49 48 63 64
f 42 41 56 57
f 50 49 64 65
f 43 42 57 58
f 51 50 65 66
f 44 43 58 59
f 37 472 52
f 608 51 66
f 45 44 59 60
f 38 37 52 53
f 46 45 60 61
f 39 38 53 54
f 66 65 80 81
f 59 58 73 74
f 52 472 67
f 608 66 81
f 60 59 74 75
f 53 52 67 68
f 61 60 75 76
f 54 53 68 69
f 62 61 76 77
f 55 54 69 70
f 63 62 77 78
f 56 55 70 71
f 64 63 78 79
f 57 56 71 72
f 65 64 79 80
f 58 57 72 73
f 78 77 92 93
f 71 70 85 86
f 79 78 93 94
f 72 71 86 87
f 80 79 94 95
f 73 72 87 88
f 81 80 95 96
f 74 73 88 89
f 67 472 82
f 608 81 96
f 75 74 89 90
f 68 67 82 83
f 76 75 90 91
f 69 68 83 84
f 77 76 91 92
f 70 69 84 85
f 82 472 97
f 608 96 111
f 90 89 104 105
f 83 82 97 98
f 91 90 105 106
f 84 83 98 99
f 92 91 106 107
f 85 84 99 100
f 93 92 107 108
f 86 85 100 101
f 94 93 108 109
f 87 86 101 102
f 95 94 109 110
f 88 87 102 103
f 96 95 110 111
f 89 88 103 104
f 101 100 115 116
f 109 108 123 124
f 102 101 116 117
f 110 109 124 125
f 103 102 117 118
f 111 110 125 126
f 104 103 118 119
f 97 472 112
f 608 111 126
f 105 104 119 120
f 98 97 112 113
f 106 105 120 121
f 99 98 113 114
f 107 106 121 122
f 100 99 114 115
f 108 107 122 123
f 120 119 134 135
f 113 112 127 128
f 121 120 135 136
f 114 113 128 129
f 122 121 136 137
f 115 114 129 130
f 123 122 137 138
f 116 115 130 131
f 124 123 138 139
f 117 116 131 132
f 125 124 139 140
f 118 117 132 133
f 126 125 140 141
f 119 118 133 134
f 112 472 127
f 608 126 141
f 139 138 153 154
f 132 131 146 147
f 140 139 154 155
f 133 132 147 148
f 141 140 155 156
f 134 133 148 149
f 127 472 142
f 608 141 156
f 135 134 149 150
f 128 127 142 143
f 136 135 150 151
f 129 128 143 144
f 137 136 151 152
f 130 129 144 145
f 138 137 152 153
f 131 130 145 146
f 143 142 157 158
f 151 150 165 166
f 144 143 158 159
f 152 151 166 167
f 145 144 159 160
f 153 152 167 168
f 146 145 160 161
f 154 153 168 169
f 147 146 161 162
f 155 154 169 170
f 148 147 162 163
f 156 155 170 171
f 149 148 163 164
f 142 472 157
f 608 156 171
f 150 149 164 165
f 162 161 176 177
f 170 169 184 185
f 163 162 177 178
f 171 170 185 186
f 164 163 178 179
f 157 472 172
f 608 171 186
f 165 164 179 180
f 158 157 172 173
f 166 165 180 181
f 159 158 173 174
f 167 166 181 182
f 160 159 174 175
f 168 167 182 183
f 161 160 175 176
f 169 168 183 184
f 181 180 195 196
f 174 173 188 189
f 182 181 196 197
f 175 174 189 190
f 183 182 197 198
f 176 175 190 191
f 184 183 198 199
f 177 176 191 192
f 185 184 199 200
f 178 177 192 193
f 186 185 200 201
f 179 178 193 194
f 172 472 187
f 608 186 201
f 180 179 194 195
f 173 172 187 188
f 200 199 214 215
f 193 192 207 208
f 201 200 215 216
f 194 193 208 209
f 187 472 202
f 608 201 216
f 195 194 209 210
f 188 187 202 203
f 196 195 210 211
f 189 188 203 204
f 197 196 211 212
f 190 189 204 205
f 198 197 212 213
f 191 190 205 206
f 199 198 213 214
f 192 191 206 207
f 212 211 226 227
f 205 204 219 220
f 213 212 227 228
f 206 205 220 221
f 214 213 228 229
f 207 206 221 222
f 215 214 229 230
f 208 207 222 223
f 216 215 230 231
f 209 208 223 224
f 202 472 217
f 608 216 231
f 210 209 224 225
f 203 202 217 218
f 211 210 225 226
f 204 203 218 219
f 231 230 245 246
f 224 223 238 239
f 217 472 232
f 608 231 246
f 225 224 239 240
f 218 217 232 233
f 226 225 240 241
f 219 218 233 234
f 227 226 241 242
f 220 219 234 235
f 228 227 242 243
f 221 220 235 236
f 229 228 243 244
f 222 221 236 237
f 230 229 244 245
f 223 222 237 238
f 235 234 249 250
f 243 242 257 258
f 236 235 250 251
f 244 243 258 259
f 237 236 251 252
f 245 244 259 260
f 238 237 252 253
f 246 245 260 261
f 239 238 253 254
f 232 472 247
f 608 246 261
f 240 239 254 255
f 233 232 247 248
f 241 240 255 256
f 234 233 248 249
f 242 241 256 257
f 254 253 268 269
f 247 472 262
f 608 261 276
f 255 254 269 270
f 248 247 262 263
f 256 255 270 271
f 249 248 263 264
f 257 256 271 272
f 250 249 264 265
f 258 257 272 273
f 251 250 265 266
f 259 258 273 274
f 252 251 266 267
f 260 259 274 275
f 253 252 267 268
f 261 260 275 276
f 273 272 287 288
f 266 265 280 281
f 274 273 288 289
f 267 266 281 282
f 275 274 289 290
f 268 267 282 283
f 276 275 290 291
f 269 268 283 284
f 262 472 277
f 608 276 291
f 270 269 284 285
f 263 262 277 278
f 271 270 285 286
f 264 263 278 279
f 272 271 286 287
f 265 264 279 280
f 277 472 292
f 608 291 306
f 285 284 299 300
f 278 277 292 293
f 286 285 300 301
f 279 278 293 294
f 287 286 301 302
f 280 279 294 295
f 288 287 302 303
f 281 280 295 296
f 289 288 303 304
f 282 281 296 297
f 290 289 304 305
f 283 282 297 298
f 291 290 305 306
f 284 283 298 299
f 296 295 310 311
f 304 303 318 319
f 297 296 311 312
f 305 304 319 320
f 298 297 312 313
f 306 305 320 321
f 299 298 313 314
f 292 472 307
f 608 306 321
f 300 299 314 315
f 293 292 307 308
f 301 300 315 316
f 294 293 308 309
f 302 301 316 317
f 295 294 309 310
f 303 302 317 318
f 315 314 329 330
f 308 307 322 323
f 316 315 330 331
f 309 308 323 324
f 317 316 331 332
f 310 309 324 325
f 318 317 332 333
f 311 310 325 326
f 319 318 333 334
f 312 311 326 327
f 320 319 334 335
f 313 312 327 328
f 321 320 335 336
f 314 313 328 329
f 307 472 322
f 608 321 336
f 334 333 348 349
f 327 326 341 342
f 335 334 349 350
f 328 327 342 343
f 336 335 350 351
f 329 328 343 344
f 322 472 337
f 608 336 351
f 330 329 344 345
f 323 322 337 338
f 331 330 345 346
f 324 323 338 339
f 332 331 346 347
f 325 324 339 340
f 333 332 347 348
f 326 325 340 341
f 346 345 360 361
f 339 338 353 354
f 347 346 361 362
f 340 339 354 355
f 348 347 362 363
f 341 340 355 356
f 349 348 363 364
f 342 341 356 357
f 350 349 364 365
f 343 342 357 358
f 351 350 365 366
f 344 343 358 359
f 337 472 352
f 608 351 366
f 345 344 359 360
f 338 337 352 353
f 365 364 379 380
f 358 357 372 373
f 366 365 380 381
f 359 358 373 374
f 352 472 367
f 608 366 381
f 360 359 374 375
f 353 352 367 368
f 361 360 375 376
f 354 353 368 369
f 362 361 376 377
f 355 354 369 370
f 363 362 377 378
f 356 355 370 371
f 364 363 378 379
f 357 356 371 372
f 369 368 383 384
f 377 376 391 392
f 370 369 384 385
f 378 377 392 393
f 371 370 385 386
f 379 378 393 394
f 372 371 386 387
f 380 379 394 395
f 373 372 387 388
f 381 380 395 396
f 374 373 388 389
f 367 472 382
f 608 381 396
f 375 374 389 390
f 368 367 382 383
f 376 375 390 391
f 388 387 402 403
f 396 395 410 411
f 389 388 403 404
f 382 472 397
f 608 396 411
f 390 389 404 405
f 383 382 397 398
f 391 390 405 406
f 384 383 398 399
f 392 391 406 407
f 385 384 399 400
f 393 392 407 408
f 386 385 400 401
f 394 393 408 409
f 387 386 401 402
f 395 394 409 410
f 407 406 421 422
f 400 399 414 415
f 408 407 422 423
f 401 400 415 416
f 409 408 423 424
f 402 401 416 417
f 410 409 424 425
f 403 402 417 418
f 411 410 425 426
f 404 403 418 419
f 397 472 412
f 608 411 426
f 405 404 419 420
f 398 397 412 413
f 406 405 420 421
f 399 398 413 414
f 426 425 440 441
f 419 418 433 434
f 412 472 427
f 608 426 441
f 420 419 434 435
f 413 412 427 428
f 421 420 435 436
f 414 413 428 429
f 422 421 436 437
f 415 414 429 430
f 423 422 437 438
f 416 415 430 431
f 424 423 438 439
f 417 416 431 432
f 425 424 439 440
f 418 417 432 433
f 430 429 444 445
f 438 437 452 453
f 431 430 445 446
f 439 438 453 454
f 432 431 446 447
f 440 439 454 455
f 433 432 447 448
f 441 440 455 456
f 434 433 448 449
f 427 472 442
f 608 441 456
f 435 434 449 450
f 428 427 442 443
f 436 435 450 451
f 429 428 443 444
f 437 436 451 452
f 449 448 463 464
f 442 472 457
f 608 456 471
f 450 449 464 465
f 443 442 457 458
f 451 450 465 466
f 444 443 458 459
f 452 451 466 467
f 445 444 459 460
f 453 452 467 468
f 446 445 460 461
f 454 453 468 469
f 447 446 461 462
f 455 454 469 470
f 448 447 462 463
f 456 455 470 471
f 468 467 483 484
f 461 460 476 477
f 469 468 484 485
f 462 461 477 478
f 470 469 485 486
f 463 462 478 479
f 471 470 486 487
f 464 463 479 480
f 457 472 473
f 608 471 487
f 465 464 480 481
f 458 457 473 474
f 466 465 481 482
f 459 458 474 475
f 467 466 482 483
f 460 459 475 476
f 608 487 502
f 481 480 495 496
f 474 473 488 489
f 482 481 496 497
f 475 474 489 490
f 483 482 497 498
f 476 475 490 491
f 484 483 498 499
f 477 476 491 492
f 485 484 499 500
f 478 477 492 493
f 486 485 500 501
f 479 478 493 494
f 487 486 501 502
f 480 479 494 495
f 473 472 488
f 500 499 514 515
f 493 492 507 508
f 501 500 515 516
f 494 493 508 509
f 502 501 516 517
f 495 494 509 510
f 488 472 503
f 608 502 517
f 496 495 510 511
f 489 488 503 504
f 497 496 511 512
f 490 489 504 505
f 498 497 512 513
f 491 490 505 506
f 499 498 513 514
f 492 491 506 507
f 504 503 518 519
f 512 511 526 527
f 505 504 519 520
f 513 512 527 528
f 506 505 520 521
f 514 513 528 529
f 507 506 521 522
f 515 514 529 530
f 508 507 522 523
f 516 515 530 531
f 509 508 523 524
f 517 516 531 532
f 510 509 524 525
f 503 472 518
f 608 517 532
f 511 510 525 526
f 523 522 537 538
f 531 530 545 546
f 524 523 538 539
f 532 531 546 547
f 525 524 539 540
f 518 472 533
f 608 532 547
f 526 525 540 541
f 519 518 533 534
f 527 526 541 542
f 520 519 534 535
f 528 527 542 543
f 521 520 535 536
f 529 528 543 544
f 522 521 536 537
f 530 529 544 545
f 542 541 556 557
f 535 534 549 550
f 543 542 557 558
f 536 535 550 551
f 544 543 558 559
f 537 536 551 552
f 545 544 559 560
f 538 537 552 553
f 546 545 560 561
f 539 538 553 554
f 547 546 561 562
f 540 539 554 555
f 533 472 548
f 608 547 562
f 541 540 555 556
f 534 533 548 549
f 561 560 575 576
f 554 553 568 569
f 562 561 576 577
f 555 554 569 570
f 548 472 563
f 608 562 577
f 556 555 570 571
f 549 548 563 564
f 557 556 571 572
f 550 549 564 565
f 558 557 572 573
f 551 550 565 566
f 559 558 573 574
f 552 551 566 567
f 560 559 574 575
f 553 552 567 568
f 565 564 579 580
f 573 572 587 588
f 566 565 580 581
f 574 573 588 589
f 567 566 581 582
f 575 574 589 590
f 568 567 582 583
f 576 575 590 591
f 569 568 583 584
f 577 576 591 592
f 570 569 584 585
f 563 472 578
f 608 577 592
f 571 570 585 586
f 564 563 578 579
f 572 571 586 587
f 584 583 598 599
f 592 591 606 607
f 585 584 599 600
f 578 472 593
f 608 592 607
f 586 585 600 601
f 579 578 593 594
f 587 586 601 602
f 580 579 594 595
f 588 587 602 603
f 581 580 595 596
f 589 588 603 604
f 582 581 596 597
f 590 589 604 605
f 583 582 597 598
f 591 590 605 606
f 603 602 618 619
f 596 595 611 612
f 604 603 619 620
f 597 596 612 613
f 605 604 620 621
f 598 597 613 614
f 606 605 621 622
f 599 598 614 615
f 607 606 622 623
f 600 599 615 616
f 593 472 609
f 608 607 623
f 601 600 616 617
f 594 593 609 610
f 602 601 617 618
f 595 594 610 611
f 623 622 637 638
f 616 615 630 631
f 609 472 624
f 608 623 638
f 617 616 631 632
f 610 609 624 625
f 618 617 632 633
f 611 610 625 626
f 619 618 633 634
f 612 611 626 627
f 620 619 634 635
f 613 612 627 628
f 621 620 635 636
f 614 613 628 629
f 622 621 636 637
f 615 614 629 630
f 635 634 649 650
f 628 627 642 643
f 636 635 650 651
f 629 628 643 644
f 637 636 651 652
f 630 629 644 645
f 638 637 652 653
f 631 630 645 646
f 624 472 639
f 608 638 653
f 632 631 646 647
f 625 624 639 640
f 633 632 647 648
f 626 625 640 641
f 634 633 648 649
f 627 626 641 642
f 639 472 654
f 608 653 668
f 647 646 661 662
f 640 639 654 655
f 648 647 662 663
f 641 640 655 656
f 649 648 663 664
f 642 641 656 657
f 650 649 664 665
f 643 642 657 658
f 651 650 665 666
f 644 643 658 659
f 652 651 666 667
f 645 644 659 660
f 653 652 667 668
f 646 645 660 661
f 658 657 672 673
f 666 665 680 681
f 659 658 673 674
f 667 666 681 682
f 660 659 674 675
f 668 667 682 683
f 661 660 675 676
f 654 472 669
f 608 668 683
f 662 661 676 677
f 655 654 669 670
f 663 662 677 678
f 656 655 670 671
f 664 663 678 679
f 657 656 671 672
f 665 664 679 680
f 677 676 691 692
f 670 669 684 685
f 678 677 692 693
f 671 670 685 686
f 679 678 693 694
f 672 671 686 687
f 680 679 694 695
f 673 672 687 688
f 681 680 695 696
f 674 673 688 689
f 682 681 696 697
f 675 674 689 690
f 683 682 697 698
f 676 675 690 691
f 669 472 684
f 608 683 698
f 696 695 710 711
f 689 688 703 704
f 697 696 711 712
f 690 689 704 705
f 698 697 712 713
f 691 690 705 706
f 684 472 699
f 608 698 713
f 692 691 706 707
f 685 684 699 700
f 693 692 707 708
f 686 685 700 701
f 694 693 708 709
f 687 686 701 702
f 695 694 709 710
f 688 687 702 703
f 700 699 714 715
f 708 707 722 723
f 701 700 715 716
f 709 708 723 724
f 702 701 716 717
f 710 709 724 725
f 703 702 717 718
f 711 710 725 726
f 704 703 718 719
f 712 711 726 727
f 705 704 719 720
f 713 712 727 728
f 706 705 720 721
f 699 472 714
f 608 713 728
f 707 706 721 722
f 719 718 733 734
f 727 726 741 742
f 720 719 734 735
f 728 727 742 743
f 721 720 735 736
f 714 472 729
f 608 728 743
f 722 721 736 737
f 715 714 729 730
f 723 722 737 738
f 716 715 730 731
f 724 723 738 739
f 717 716 731 732
f 725 724 739 740
f 718 717 732 733
f 726 725 740 741
f 738 737 752 753
f 731 730 745 746
f 739 738 753 754
f 732 731 746 747
f 740 739 754 755
f 733 732 747 748
f 741 740 755 756
f 734 733 748 749
f 742 741 756 757
f 735 734 749 750
f 743 742 757 758
f 736 735 750 751
f 729 472 744
f 608 743 758
f 737 736 751 752
f 730 729 744 745
f 755 754 769 770
f 756 755 770 771
f 744 472 759
f 749 748 763 764
f 757 756 771 772
f 745 744 759 760
f 750 749 764 765
f 758 757 772 773
f 746 745 760 761
f 751 750 765 766
f 608 758 773
f 747 746 761 762
f 752 751 766 767
f 748 747 762 763
f 753 752 767 768
f 754 753 768 769
f 766 765 780 781
f 759 472 774
f 608 773 788
f 767 766 781 782
f 760 759 774 775
f 768 767 782 783
f 761 760 775 776
f 769 768 783 784
f 762 761 776 777
f 770 769 784 785
f 763 762 777 778
f 771 770 785 786
f 764 763 778 779
f 772 771 786 787
f 765 764 779 780
f 773 772 787 788
f 785 784 799 800
f 778 777 792 793
f 786 785 800 801
f 779 778 793 794
f 787 786 801 802
f 780 779 794 795
f 788 787 802 803
f 781 780 795 796
f 774 472 789
f 608 788 803
f 782 781 796 797
f 775 774 789 790
f 783 782 797 798
f 776 775 790 791
f 784 783 798 799
f 777 776 791 792
f 608 803 818
f 797 796 811 812
f 790 789 804 805
f 798 797 812 813
f 791 790 805 806
f 799 798 813 814
f 792 791 806 807
f 800 799 814 815
f 793 792 807 808
f 801 800 815 816
f 794 793 808 809
f 802 801 816 817
f 795 794 809 810
f 803 802 817 818
f 796 795 810 811
f 789 472 804
f 816 815 830 831
f 809 808 823 824
f 817 816 831 832
f 810 809 824 825
f 818 817 832 833
f 811 810 825 826
f 804 472 819
f 608 818 833
f 812 811 826 827
f 805 804 819 820
f 813 812 827 828
f 806 805 820 821
f 814 813 828 829
f 807 806 821 822
f 815 814 829 830
f 808 807 822 823
f 820 819 834 835
f 828 827 842 843
f 821 820 835 836
f 829 828 843 844
f 822 821 836 837
f 830 829 844 845
f 823 822 837 838
f 831 830 845 846
f 824 823 838 839
f 832 831 846 847
f 825 824 839 840
f 833 832 847 848
f 826 825 840 841
f 819 472 834
f 608 833 848
f 827 826 841 842
f 839 838 853 854
f 847 846 861 862
f 840 839 854 855
f 848 847 862 863
f 841 840 855 856
f 834 472 849
f 608 848 863
f 842 841 856 857
f 835 834 849 850
f 843 842 857 858
f 836 835 850 851
f 844 843 858 859
f 837 836 851 852
f 845 844 859 860
f 838 837 852 853
f 846 845 860 861
f 858 857 872 873
f 851 850 865 866
f 859 858 873 874
f 852 851 866 867
f 860 859 874 875
f 853 852 867 868
f 861 860 875 876
f 854 853 868 869
f 862 861 876 877
f 855 854 869 870
f 863 862 877 878
f 856 855 870 871
f 849 472 864
f 608 863 878
f 857 856 871 872
f 850 849 864 865
f 877 876 891 892
f 870 869 884 885
f 878 877 892 893
f 871 870 885 886
f 864 472 879
f 608 878 893
f 872 871 886 887
f 865 864 879 880
f 873 872 887 888
f 866 865 880 881
f 874 873 888 889
f 867 866 881 882
f 875 874 889 890
f 868 867 882 883
f 876 875 890 891
f 869 868 883 884
f 881 880 895 896
f 889 888 903 904
f 882 881 896 897
f 890 889 904 905
f 883 882 897 898
f 891 890 905 906
f 884 883 898 899
f 892 891 906 907
f 885 884 899 900
f 893 892 907 908
f 886 885 900 901
f 879 472 894
f 608 893 908
f 887 886 901 902
f 880 879 894 895
f 888 887 902 903
f 900 899 914 915
f 908 907 922 923
f 901 900 915 916
f 894 472 909
f 608 908 923
f 902 901 916 917
f 895 894 909 910
f 903 902 917 918
f 896 895 910 911
f 904 903 918 919
f 897 896 911 912
f 905 904 919 920
f 898 897 912 913
f 906 905 920 921
f 899 898 913 914
f 907 906 921 922
f 919 918 933 934
f 912 911 926 927
f 920 919 934 935
f 913 912 927 928
f 921 920 935 936
f 914 913 928 929
f 922 921 936 937
f 915 914 929 930
f 923 922 937 938
f 916 915 930 931
f 909 472 924
f 608 923 938
f 917 916 931 932
f 910 909 924 925
f 918 917 932 933
f 911 910 925 926
f 938 937 952 953
f 931 930 945 946
f 924 472 939
f 608 938 953
f 932 931 946 947
f 925 924 939 940
f 933 932 947 948
f 926 925 940 941
f 934 933 948 949
f 927 926 941 942
f 935 934 949 950
f 928 927 942 943
f 936 935 950 951
f 929 928 943 944
f 937 936 951 952
f 930 929 944 945
f 950 949 5 6
f 943 942 2 3
f 951 950 6 960
f 944 943 3 956
f 952 951 960 961
f 945 944 956 957
f 953 952 961 962
f 946 945 957 958
f 939 472 1
f 608 953 962
f 947 946 958 4
f 940 939 1 954
f 948 947 4 959
f 941 940 954 955
f 949 948 959 5
f 942 941 955 2
