# Exported by P1-R4'C make_confirmatory_meshes.py
o conf_cube_plus_cone
v -0.350000 -0.350000 -0.550000
v -0.350000 -0.350000 0.150000
v -0.350000 0.350000 -0.550000
v -0.350000 0.350000 0.150000
v 0.350000 -0.350000 -0.550000
v 0.350000 -0.350000 0.150000
v 0.350000 0.350000 -0.550000
v 0.350000 0.350000 0.150000
v 0.000000 0.300000 0.100000
v 0.058527 0.294236 0.100000
v 0.114805 0.277164 0.100000
v 0.166671 0.249441 0.100000
v 0.212132 0.212132 0.100000
v 0.249441 0.166671 0.100000
v 0.277164 0.114805 0.100000
v 0.294236 0.058527 0.100000
v 0.300000 0.000000 0.100000
v 0.294236 -0.058527 0.100000
v 0.277164 -0.114805 0.100000
v 0.249441 -0.166671 0.100000
v 0.212132 -0.212132 0.100000
v 0.166671 -0.249441 0.100000
v 0.114805 -0.277164 0.100000
v 0.058527 -0.294236 0.100000
v 0.000000 -0.300000 0.100000
v -0.058527 -0.294236 0.100000
v -0.114805 -0.277164 0.100000
v -0.166671 -0.249441 0.100000
v -0.212132 -0.212132 0.100000
v -0.249441 -0.166671 0.100000
v -0.277164 -0.114805 0.100000
v -0.294236 -0.058527 0.100000
v -0.300000 0.000000 0.100000
v -0.294236 0.058527 0.100000
v -0.277164 0.114805 0.100000
v -0.249441 0.166671 0.100000
v -0.212132 0.212132 0.100000
v -0.166671 0.249441 0.100000
v -0.114805 0.277164 0.100000
v -0.058527 0.294236 0.100000
v 0.000000 0.000000 0.600000
f 1 2 4 3
f 3 4 8 7
f 7 8 6 5
f 5 6 2 1
f 3 7 5 1
f 8 4 2 6
f 9 41 10
f 10 41 11
f 11 41 12
f 12 41 13
f 13 41 14
f 14 41 15
f 15 41 16
f 16 41 17
f 17 41 18
f 18 41 19
f 19 41 20
f 20 41 21
f 21 41 22
f 22 41 23
f 23 41 24
f 24 41 25
f 25 41 26
f 26 41 27
f 27 41 28
f 28 41 29
f 29 41 30
f 30 41 31
f 31 41 32
f 32 41 33
f 33 41 34
f 34 41 35
f 35 41 36
f 36 41 37
f 37 41 38
f 38 41 39
f 9 10 11 12 13 14 15 16 17 18 19 20 21 22 23 24 25 26 27 28 29 30 31 32 33 34 35 36 37 38 39 40
f 39 41 40
f 40 41 9
