# Exported by P1-R4'C make_confirmatory_meshes.py
o conf_three_cubes
v -0.710000 -0.210000 -0.210000
v -0.710000 -0.210000 0.210000
v -0.710000 0.210000 -0.210000
v -0.710000 0.210000 0.210000
v -0.290000 -0.210000 -0.210000
v -0.290000 -0.210000 0.210000
v -0.290000 0.210000 -0.210000
v -0.290000 0.210000 0.210000
v -0.076865 -0.286865 -0.210000
v -0.076865 -0.286865 0.210000
v -0.286865 0.076865 -0.210000
v -0.286865 0.076865 0.210000
v 0.286865 -0.076865 -0.210000
v 0.286865 -0.076865 0.210000
v 0.076865 0.286865 -0.210000
v 0.076865 0.286865 0.210000
v 0.500000 -0.296985 -0.210000
v 0.500000 -0.296985 0.210000
v 0.203015 0.000000 -0.210000
v 0.203015 0.000000 0.210000
v 0.796985 0.000000 -0.210000
v 0.796985 0.000000 0.210000
v 0.500000 0.296985 -0.210000
v 0.500000 0.296985 0.210000
f 1 2 4 3
f 3 4 8 7
f 7 8 6 5
f 5 6 2 1
f 3 7 5 1
f 8 4 2 6
f 9 10 12 11
f 11 12 16 15
f 15 16 14 13
f 13 14 10 9
f 11 15 13 9
f 16 12 10 14
f 17 18 20 19
f 19 20 24 23
f 23 24 22 21
f 21 22 18 17
f 19 23 21 17
f 24 20 18 22
