# Exported by P1-R4'C make_confirmatory_meshes.py
o conf_cyl_plus_sphere
v 0.000000 0.300000 -0.550000
v 0.000000 0.300000 0.150000
v 0.039158 0.297433 -0.550000
v 0.039158 0.297433 0.150000
v 0.077646 0.289778 -0.550000
v 0.077646 0.289778 0.150000
v 0.114805 0.277164 -0.550000
v 0.114805 0.277164 0.150000
v 0.150000 0.259808 -0.550000
v 0.150000 0.259808 0.150000
v 0.182628 0.238006 -0.550000
v 0.182628 0.238006 0.150000
v 0.212132 0.212132 -0.550000
v 0.212132 0.212132 0.150000
v 0.238006 0.182628 -0.550000
v 0.238006 0.182628 0.150000
v 0.259808 0.150000 -0.550000
v 0.259808 0.150000 0.150000
v 0.277164 0.114805 -0.550000
v 0.277164 0.114805 0.150000
v 0.289778 0.077646 -0.550000
v 0.289778 0.077646 0.150000
v 0.297433 0.039158 -0.550000
v 0.297433 0.039158 0.150000
v 0.300000 0.000000 -0.550000
v 0.300000 0.000000 0.150000
v 0.297433 -0.039158 -0.550000
v 0.297433 -0.039158 0.150000
v 0.289778 -0.077646 -0.550000
v 0.289778 -0.077646 0.150000
v 0.277164 -0.114805 -0.550000
v 0.277164 -0.114805 0.150000
v 0.259808 -0.150000 -0.550000
v 0.259808 -0.150000 0.150000
v 0.238006 -0.182628 -0.550000
v 0.238006 -0.182628 0.150000
v 0.212132 -0.212132 -0.550000
v 0.212132 -0.212132 0.150000
v 0.182628 -0.238006 -0.550000
v 0.182628 -0.238006 0.150000
v 0.150000 -0.259808 -0.550000
v 0.150000 -0.259808 0.150000
v 0.114805 -0.277164 -0.550000
v 0.114805 -0.277164 0.150000
v 0.077646 -0.289778 -0.550000
v 0.077646 -0.289778 0.150000
v 0.039158 -0.297433 -0.550000
v 0.039158 -0.297433 0.150000
v 0.000000 -0.300000 -0.550000
v 0.000000 -0.300000 0.150000
v -0.039158 -0.297433 -0.550000
v -0.039158 -0.297433 0.150000
v -0.077646 -0.289778 -0.550000
v -0.077646 -0.289778 0.150000
v -0.114805 -0.277164 -0.550000
v -0.114805 -0.277164 0.150000
v -0.150000 -0.259808 -0.550000
v -0.150000 -0.259808 0.150000
v -0.182628 -0.238006 -0.550000
v -0.182628 -0.238006 0.150000
v -0.212132 -0.212132 -0.550000
v -0.212132 -0.212132 0.150000
v -0.238006 -0.182628 -0.550000
v -0.238006 -0.182628 0.150000
v -0.259808 -0.150000 -0.550000
v -0.259808 -0.150000 0.150000
v -0.277164 -0.114805 -0.550000
v -0.277164 -0.114805 0.150000
v -0.289778 -0.077646 -0.550000
v -0.289778 -0.077646 0.150000
v -0.297433 -0.039158 -0.550000
v -0.297433 -0.039158 0.150000
v -0.300000 0.000000 -0.550000
v -0.300000 0.000000 0.150000
v -0.297433 0.039158 -0.550000
v -0.297433 0.039158 0.150000
v -0.289778 0.077646 -0.550000
v -0.289778 0.077646 0.150000
v -0.277164 0.114805 -0.550000
v -0.277164 0.114805 0.150000
v -0.259808 0.150000 -0.550000
v -0.259808 0.150000 0.150000
v -0.238006 0.182628 -0.550000
v -0.238006 0.182628 0.150000
v -0.212132 0.212132 -0.550000
v -0.212132 0.212132 0.150000
v -0.182628 0.238006 -0.550000
v -0.182628 0.238006 0.150000
v -0.150000 0.259808 -0.550000
v -0.150000 0.259808 0.150000
v -0.114805 0.277164 -0.550000
v -0.114805 0.277164 0.150000
v -0.077646 0.289778 -0.550000
v -0.077646 0.289778 0.150000
v -0.039158 0.297433 -0.550000
v -0.039158 0.297433 0.150000
v 0.000000 0.087998 0.678415
v 0.000000 0.130112 0.664119
v 0.000000 0.170000 0.644449
v 0.000000 0.206979 0.619740
v 0.000000 0.240416 0.590416
v 0.000000 0.314119 0.480112
v 0.000000 0.328415 0.437998
v 0.000000 0.328415 0.262002
v 0.000000 0.314119 0.219888
v 0.000000 0.294449 0.180000
v 0.000000 0.240416 0.109584
v 0.000000 0.206979 0.080260
v 0.000000 0.170000 0.055551
v 0.000000 0.130112 0.035881
v 0.005793 0.043999 0.687091
v 0.011486 0.087246 0.678415
v 0.016983 0.128999 0.664119
v 0.022189 0.168546 0.644449
v 0.027016 0.205208 0.619740
v 0.031381 0.238360 0.590416
v 0.035208 0.267432 0.556979
v 0.038433 0.291930 0.520000
v 0.041001 0.311432 0.480112
v 0.042867 0.325605 0.437998
v 0.043999 0.334207 0.394379
v 0.044379 0.337091 0.350000
v 0.043999 0.334207 0.305621
v 0.042867 0.325605 0.262002
v 0.041001 0.311432 0.219888
v 0.038433 0.291930 0.180000
v 0.035208 0.267432 0.143021
v 0.031381 0.238360 0.109584
v 0.027016 0.205208 0.080260
v 0.022189 0.168546 0.055551
v 0.016983 0.128999 0.035881
v 0.011486 0.087246 0.021585
v 0.005793 0.043999 0.012909
v 0.011486 0.042867 0.687091
v 0.022776 0.085000 0.678415
v 0.033676 0.125679 0.664119
v 0.043999 0.164207 0.644449
v 0.053570 0.199926 0.619740
v 0.062224 0.232224 0.590416
v 0.069814 0.260549 0.556979
v 0.076209 0.284416 0.520000
v 0.081300 0.303416 0.480112
v 0.085000 0.317224 0.437998
v 0.087246 0.325605 0.394379
v 0.087998 0.328415 0.350000
v 0.087246 0.325605 0.305621
v 0.085000 0.317224 0.262002
v 0.081300 0.303416 0.219888
v 0.076209 0.284416 0.180000
v 0.069814 0.260549 0.143021
v 0.062224 0.232224 0.109584
v 0.053570 0.199926 0.080260
v 0.043999 0.164207 0.055551
v 0.033676 0.125679 0.035881
v 0.022776 0.085000 0.021585
v 0.011486 0.042867 0.012909
v 0.016983 0.041001 0.687091
v 0.033676 0.081300 0.678415
v 0.049792 0.120208 0.664119
v 0.065056 0.157060 0.644449
v 0.079207 0.191224 0.619740
v 0.092003 0.222116 0.590416
v 0.103225 0.249207 0.556979
v 0.112681 0.272035 0.520000
v 0.120208 0.290208 0.480112
v 0.125679 0.303416 0.437998
v 0.128999 0.311432 0.394379
v 0.130112 0.314119 0.350000
v 0.128999 0.311432 0.305621
v 0.125679 0.303416 0.262002
v 0.120208 0.290208 0.219888
v 0.112681 0.272035 0.180000
v 0.103225 0.249207 0.143021
v 0.092003 0.222116 0.109584
v 0.079207 0.191224 0.080260
v 0.065056 0.157060 0.055551
v 0.049792 0.120208 0.035881
v 0.033676 0.081300 0.021585
v 0.016983 0.041001 0.012909
v 0.022189 0.038433 0.687091
v 0.043999 0.076209 0.678415
v 0.065056 0.112681 0.664119
v 0.085000 0.147224 0.644449
v 0.103489 0.179249 0.619740
v 0.120208 0.208207 0.590416
v 0.134870 0.233602 0.556979
v 0.147224 0.255000 0.520000
v 0.157060 0.272035 0.480112
v 0.164207 0.284416 0.437998
v 0.168546 0.291930 0.394379
v 0.170000 0.294449 0.350000
v 0.168546 0.291930 0.305621
v 0.164207 0.284416 0.262002
v 0.157060 0.272035 0.219888
v 0.147224 0.255000 0.180000
v 0.134870 0.233602 0.143021
v 0.120208 0.208207 0.109584
v 0.103489 0.179249 0.080260
v 0.085000 0.147224 0.055551
v 0.065056 0.112681 0.035881
v 0.043999 0.076209 0.021585
v 0.022189 0.038433 0.012909
v 0.027016 0.035208 0.687091
v 0.053570 0.069814 0.678415
v 0.079207 0.103225 0.664119
v 0.103489 0.134870 0.644449
v 0.126001 0.164207 0.619740
v 0.146356 0.190735 0.590416
v 0.164207 0.213999 0.556979
v 0.179249 0.233602 0.520000
v 0.191224 0.249207 0.480112
v 0.199926 0.260549 0.437998
v 0.205208 0.267433 0.394379
v 0.206979 0.269740 0.350000
v 0.205208 0.267433 0.305621
v 0.199926 0.260549 0.262002
v 0.191224 0.249207 0.219888
v 0.179249 0.233602 0.180000
v 0.164207 0.213999 0.143021
v 0.146356 0.190735 0.109584
v 0.126001 0.164207 0.080260
v 0.103489 0.134870 0.055551
v 0.079207 0.103225 0.035881
v 0.053570 0.069814 0.021585
v 0.027016 0.035208 0.012909
v 0.031381 0.031381 0.687091
v 0.062224 0.062224 0.678415
v 0.092003 0.092003 0.664119
v 0.120208 0.120208 0.644449
v 0.146356 0.146356 0.619740
v 0.170000 0.170000 0.590416
v 0.190735 0.190735 0.556979
v 0.208207 0.208207 0.520000
v 0.222116 0.222116 0.480112
v 0.232224 0.232224 0.437998
v 0.238360 0.238360 0.394379
v 0.240416 0.240416 0.350000
v 0.238360 0.238360 0.305621
v 0.232224 0.232224 0.262002
v 0.222116 0.222116 0.219888
v 0.208207 0.208207 0.180000
v 0.190735 0.190735 0.143021
v 0.170000 0.170000 0.109584
v 0.146356 0.146356 0.080260
v 0.120208 0.120208 0.055551
v 0.092003 0.092003 0.035881
v 0.062224 0.062224 0.021585
v 0.031381 0.031381 0.012909
v 0.035208 0.027016 0.687091
v 0.069814 0.053570 0.678415
v 0.103225 0.079207 0.664119
v 0.134870 0.103489 0.644449
v 0.164207 0.126001 0.619740
v 0.190735 0.146356 0.590416
v 0.213999 0.164207 0.556979
v 0.233602 0.179249 0.520000
v 0.249207 0.191224 0.480112
v 0.260549 0.199926 0.437998
v 0.267433 0.205208 0.394379
v 0.269740 0.206979 0.350000
v 0.267433 0.205208 0.305621
v 0.260549 0.199926 0.262002
v 0.249207 0.191224 0.219888
v 0.233602 0.179249 0.180000
v 0.213999 0.164207 0.143021
v 0.190735 0.146356 0.109584
v 0.164207 0.126001 0.080260
v 0.134870 0.103489 0.055551
v 0.103225 0.079207 0.035881
v 0.069814 0.053570 0.021585
v 0.035208 0.027016 0.012909
v 0.038433 0.022189 0.687091
v 0.076209 0.043999 0.678415
v 0.112681 0.065056 0.664119
v 0.147224 0.085000 0.644449
v 0.179249 0.103489 0.619740
v 0.208207 0.120208 0.590416
v 0.233602 0.134870 0.556979
v 0.255000 0.147224 0.520000
v 0.272035 0.157060 0.480112
v 0.284416 0.164207 0.437998
v 0.291930 0.168546 0.394379
v 0.294449 0.170000 0.350000
v 0.291930 0.168546 0.305621
v 0.284416 0.164207 0.262002
v 0.272035 0.157060 0.219888
v 0.255000 0.147224 0.180000
v 0.233602 0.134870 0.143021
v 0.208207 0.120208 0.109584
v 0.179249 0.103489 0.080260
v 0.147224 0.085000 0.055551
v 0.112681 0.065056 0.035881
v 0.076209 0.043999 0.021585
v 0.038433 0.022189 0.012909
v 0.041001 0.016983 0.687091
v 0.081300 0.033676 0.678415
v 0.120208 0.049792 0.664119
v 0.157060 0.065056 0.644449
v 0.191224 0.079207 0.619740
v 0.222116 0.092003 0.590416
v 0.249207 0.103225 0.556979
v 0.272035 0.112681 0.520000
v 0.290208 0.120208 0.480112
v 0.303416 0.125679 0.437998
v 0.311432 0.128999 0.394379
v 0.314119 0.130112 0.350000
v 0.311432 0.128999 0.305621
v 0.303416 0.125679 0.262002
v 0.290208 0.120208 0.219888
v 0.272035 0.112681 0.180000
v 0.249207 0.103225 0.143021
v 0.222116 0.092003 0.109584
v 0.191224 0.079207 0.080260
v 0.157060 0.065056 0.055551
v 0.120208 0.049792 0.035881
v 0.081300 0.033676 0.021585
v 0.041001 0.016983 0.012909
v 0.042867 0.011486 0.687091
v 0.085000 0.022776 0.678415
v 0.125679 0.033676 0.664119
v 0.164207 0.043999 0.644449
v 0.199926 0.053570 0.619740
v 0.232224 0.062224 0.590416
v 0.260549 0.069814 0.556979
v 0.284416 0.076209 0.520000
v 0.303416 0.081300 0.480112
v 0.317224 0.085000 0.437998
v 0.325605 0.087246 0.394379
v 0.328415 0.087998 0.350000
v 0.325605 0.087246 0.305621
v 0.317224 0.085000 0.262002
v 0.303416 0.081300 0.219888
v 0.284416 0.076209 0.180000
v 0.260549 0.069814 0.143021
v 0.232224 0.062224 0.109584
v 0.199926 0.053570 0.080260
v 0.164207 0.043999 0.055551
v 0.125679 0.033676 0.035881
v 0.085000 0.022776 0.021585
v 0.042867 0.011486 0.012909
v 0.043999 0.005793 0.687091
v 0.087246 0.011486 0.678415
v 0.128999 0.016983 0.664119
v 0.168546 0.022189 0.644449
v 0.205208 0.027016 0.619740
v 0.238360 0.031381 0.590416
v 0.267433 0.035208 0.556979
v 0.291930 0.038433 0.520000
v 0.311432 0.041001 0.480112
v 0.325605 0.042867 0.437998
v 0.334208 0.043999 0.394379
v 0.337091 0.044379 0.350000
v 0.334208 0.043999 0.305621
v 0.325605 0.042867 0.262002
v 0.311432 0.041001 0.219888
v 0.291930 0.038433 0.180000
v 0.267433 0.035208 0.143021
v 0.238360 0.031381 0.109584
v 0.205208 0.027016 0.080260
v 0.168546 0.022189 0.055551
v 0.128999 0.016983 0.035881
v 0.087246 0.011486 0.021585
v 0.043999 0.005793 0.012909
v 0.000000 0.000000 0.690000
v 0.044379 -0.000000 0.687091
v 0.087998 -0.000000 0.678415
v 0.130112 -0.000000 0.664119
v 0.170000 -0.000000 0.644449
v 0.206979 -0.000000 0.619740
v 0.240416 -0.000000 0.590416
v 0.269740 -0.000000 0.556979
v 0.294449 0.000000 0.520000
v 0.314119 -0.000000 0.480112
v 0.328415 -0.000000 0.437998
v 0.337091 -0.000000 0.394379
v 0.340000 -0.000000 0.350000
v 0.337091 -0.000000 0.305621
v 0.328415 -0.000000 0.262002
v 0.314119 -0.000000 0.219888
v 0.294449 0.000000 0.180000
v 0.269740 -0.000000 0.143021
v 0.240416 -0.000000 0.109584
v 0.206979 -0.000000 0.080260
v 0.170000 -0.000000 0.055551
v 0.130112 -0.000000 0.035881
v 0.087998 -0.000000 0.021585
v 0.044379 -0.000000 0.012909
v 0.043999 -0.005793 0.687091
v 0.087246 -0.011486 0.678415
v 0.128999 -0.016983 0.664119
v 0.168546 -0.022189 0.644449
v 0.205208 -0.027016 0.619740
v 0.238360 -0.031381 0.590416
v 0.267433 -0.035208 0.556979
v 0.291930 -0.038433 0.520000
v 0.311432 -0.041001 0.480112
v 0.325605 -0.042867 0.437998
v 0.334208 -0.043999 0.394379
v 0.337091 -0.044379 0.350000
v 0.334208 -0.043999 0.305621
v 0.325605 -0.042867 0.262002
v 0.311432 -0.041001 0.219888
v 0.291930 -0.038433 0.180000
v 0.267433 -0.035208 0.143021
v 0.238360 -0.031381 0.109584
v 0.205208 -0.027016 0.080260
v 0.168546 -0.022189 0.055551
v 0.128999 -0.016983 0.035881
v 0.087246 -0.011486 0.021585
v 0.043999 -0.005793 0.012909
v 0.042867 -0.011486 0.687091
v 0.085000 -0.022776 0.678415
v 0.125679 -0.033676 0.664119
v 0.164207 -0.043999 0.644449
v 0.199926 -0.053570 0.619740
v 0.232224 -0.062224 0.590416
v 0.260549 -0.069814 0.556979
v 0.284416 -0.076209 0.520000
v 0.303416 -0.081300 0.480112
v 0.317224 -0.085000 0.437998
v 0.325605 -0.087246 0.394379
v 0.328415 -0.087999 0.350000
v 0.325605 -0.087246 0.305621
v 0.317224 -0.085000 0.262002
v 0.303416 -0.081300 0.219888
v 0.284416 -0.076209 0.180000
v 0.260549 -0.069814 0.143021
v 0.232224 -0.062224 0.109584
v 0.199926 -0.053570 0.080260
v 0.164207 -0.043999 0.055551
v 0.125679 -0.033676 0.035881
v 0.085000 -0.022776 0.021585
v 0.042867 -0.011486 0.012909
v 0.041001 -0.016983 0.687091
v 0.081300 -0.033676 0.678415
v 0.120208 -0.049792 0.664119
v 0.157060 -0.065056 0.644449
v 0.191224 -0.079207 0.619740
v 0.222116 -0.092003 0.590416
v 0.249207 -0.103225 0.556979
v 0.272035 -0.112681 0.520000
v 0.290208 -0.120208 0.480112
v 0.303416 -0.125679 0.437998
v 0.311432 -0.128999 0.394379
v 0.314119 -0.130112 0.350000
v 0.311432 -0.128999 0.305621
v 0.303416 -0.125679 0.262002
v 0.290208 -0.120208 0.219888
v 0.272035 -0.112681 0.180000
v 0.249207 -0.103225 0.143021
v 0.222116 -0.092003 0.109584
v 0.191224 -0.079207 0.080260
v 0.157060 -0.065056 0.055551
v 0.120208 -0.049792 0.035881
v 0.081300 -0.033676 0.021585
v 0.041001 -0.016983 0.012909
v 0.038433 -0.022189 0.687091
v 0.076209 -0.043999 0.678415
v 0.112681 -0.065056 0.664119
v 0.147224 -0.085000 0.644449
v 0.179249 -0.103490 0.619740
v 0.208207 -0.120208 0.590416
v 0.233602 -0.134870 0.556979
v 0.255000 -0.147224 0.520000
v 0.272035 -0.157060 0.480112
v 0.284416 -0.164208 0.437998
v 0.291930 -0.168546 0.394379
v 0.294449 -0.170000 0.350000
v 0.291930 -0.168546 0.305621
v 0.284416 -0.164208 0.262002
v 0.272035 -0.157060 0.219888
v 0.255000 -0.147224 0.180000
v 0.233602 -0.134870 0.143021
v 0.208207 -0.120208 0.109584
v 0.179249 -0.103490 0.080260
v 0.147224 -0.085000 0.055551
v 0.112681 -0.065056 0.035881
v 0.076209 -0.043999 0.021585
v 0.038433 -0.022189 0.012909
v 0.035208 -0.027016 0.687091
v 0.069814 -0.053570 0.678415
v 0.103225 -0.079207 0.664119
v 0.134870 -0.103490 0.644449
v 0.164207 -0.126001 0.619740
v 0.190735 -0.146356 0.590416
v 0.213999 -0.164207 0.556979
v 0.233602 -0.179249 0.520000
v 0.249207 -0.191224 0.480112
v 0.260549 -0.199926 0.437998
v 0.267433 -0.205208 0.394379
v 0.269740 -0.206979 0.350000
v 0.267433 -0.205208 0.305621
v 0.260549 -0.199926 0.262002
v 0.249207 -0.191224 0.219888
v 0.233602 -0.179249 0.180000
v 0.213999 -0.164207 0.143021
v 0.190735 -0.146356 0.109584
v 0.164207 -0.126001 0.080260
v 0.134870 -0.103490 0.055551
v 0.103225 -0.079207 0.035881
v 0.069814 -0.053570 0.021585
v 0.035208 -0.027016 0.012909
v 0.031381 -0.031381 0.687091
v 0.062224 -0.062224 0.678415
v 0.092003 -0.092003 0.664119
v 0.120208 -0.120208 0.644449
v 0.146356 -0.146356 0.619740
v 0.170000 -0.170000 0.590416
v 0.190735 -0.190735 0.556979
v 0.208207 -0.208207 0.520000
v 0.222116 -0.222116 0.480112
v 0.232224 -0.232224 0.437998
v 0.238360 -0.238360 0.394379
v 0.240416 -0.240416 0.350000
v 0.238360 -0.238360 0.305621
v 0.232224 -0.232224 0.262002
v 0.222116 -0.222116 0.219888
v 0.208207 -0.208207 0.180000
v 0.190735 -0.190735 0.143021
v 0.170000 -0.170000 0.109584
v 0.146356 -0.146356 0.080260
v 0.120208 -0.120208 0.055551
v 0.092003 -0.092003 0.035881
v 0.062224 -0.062224 0.021585
v 0.031381 -0.031381 0.012909
v 0.027016 -0.035208 0.687091
v 0.053570 -0.069814 0.678415
v 0.079207 -0.103225 0.664119
v 0.103489 -0.134870 0.644449
v 0.126001 -0.164207 0.619740
v 0.146356 -0.190735 0.590416
v 0.164207 -0.213999 0.556979
v 0.179249 -0.233602 0.520000
v 0.191224 -0.249208 0.480112
v 0.199926 -0.260549 0.437998
v 0.205208 -0.267433 0.394379
v 0.206979 -0.269740 0.350000
v 0.205208 -0.267433 0.305621
v 0.199926 -0.260549 0.262002
v 0.191224 -0.249208 0.219888
v 0.179249 -0.233602 0.180000
v 0.164207 -0.213999 0.143021
v 0.146356 -0.190735 0.109584
v 0.126001 -0.164207 0.080260
v 0.103489 -0.134870 0.055551
v 0.079207 -0.103225 0.035881
v 0.053570 -0.069814 0.021585
v 0.027016 -0.035208 0.012909
v 0.022189 -0.038433 0.687091
v 0.043999 -0.076209 0.678415
v 0.065056 -0.112681 0.664119
v 0.085000 -0.147224 0.644449
v 0.103489 -0.179249 0.619740
v 0.120208 -0.208207 0.590416
v 0.134870 -0.233602 0.556979
v 0.147224 -0.255000 0.520000
v 0.157060 -0.272035 0.480112
v 0.164207 -0.284416 0.437998
v 0.168546 -0.291930 0.394379
v 0.170000 -0.294449 0.350000
v 0.168546 -0.291930 0.305621
v 0.164207 -0.284416 0.262002
v 0.157060 -0.272035 0.219888
v 0.147224 -0.255000 0.180000
v 0.134870 -0.233602 0.143021
v 0.120208 -0.208207 0.109584
v 0.103489 -0.179249 0.080260
v 0.085000 -0.147224 0.055551
v 0.065056 -0.112681 0.035881
v 0.043999 -0.076209 0.021585
v 0.022189 -0.038433 0.012909
v 0.016983 -0.041001 0.687091
v 0.033676 -0.081300 0.678415
v 0.049792 -0.120208 0.664119
v 0.065056 -0.157060 0.644449
v 0.079207 -0.191224 0.619740
v 0.092003 -0.222116 0.590416
v 0.103225 -0.249208 0.556979
v 0.112681 -0.272035 0.520000
v 0.120208 -0.290208 0.480112
v 0.125679 -0.303416 0.437998
v 0.128999 -0.311432 0.394379
v 0.130112 -0.314119 0.350000
v 0.128999 -0.311432 0.305621
v 0.125679 -0.303416 0.262002
v 0.120208 -0.290208 0.219888
v 0.112681 -0.272035 0.180000
v 0.103225 -0.249208 0.143021
v 0.092003 -0.222116 0.109584
v 0.079207 -0.191224 0.080260
v 0.065056 -0.157060 0.055551
v 0.049792 -0.120208 0.035881
v 0.033676 -0.081300 0.021585
v 0.016983 -0.041001 0.012909
v 0.011486 -0.042867 0.687091
v 0.022776 -0.085000 0.678415
v 0.033676 -0.125679 0.664119
v 0.043999 -0.164208 0.644449
v 0.053570 -0.199926 0.619740
v 0.062224 -0.232224 0.590416
v 0.069814 -0.260549 0.556979
v 0.076209 -0.284416 0.520000
v 0.081300 -0.303416 0.480112
v 0.085000 -0.317225 0.437998
v 0.087246 -0.325605 0.394379
v 0.087998 -0.328415 0.350000
v 0.087246 -0.325605 0.305621
v 0.085000 -0.317225 0.262002
v 0.081300 -0.303416 0.219888
v 0.076209 -0.284416 0.180000
v 0.069814 -0.260549 0.143021
v 0.062224 -0.232224 0.109584
v 0.053570 -0.199926 0.080260
v 0.043999 -0.164208 0.055551
v 0.033676 -0.125679 0.035881
v 0.022776 -0.085000 0.021585
v 0.011486 -0.042867 0.012909
v 0.005793 -0.043999 0.687091
v 0.011486 -0.087246 0.678415
v 0.016983 -0.128999 0.664119
v 0.022189 -0.168546 0.644449
v 0.027016 -0.205208 0.619740
v 0.031381 -0.238360 0.590416
v 0.035208 -0.267433 0.556979
v 0.038433 -0.291930 0.520000
v 0.041001 -0.311432 0.480112
v 0.042867 -0.325605 0.437998
v 0.043999 -0.334208 0.394379
v 0.044379 -0.337092 0.350000
v 0.043999 -0.334208 0.305621
v 0.042867 -0.325605 0.262002
v 0.041001 -0.311432 0.219888
v 0.038433 -0.291930 0.180000
v 0.035208 -0.267433 0.143021
v 0.031381 -0.238360 0.109584
v 0.027016 -0.205208 0.080260
v 0.022189 -0.168546 0.055551
v 0.016983 -0.128999 0.035881
v 0.011486 -0.087246 0.021585
v 0.005793 -0.043999 0.012909
v -0.000000 -0.044379 0.687091
v -0.000000 -0.087998 0.678415
v -0.000000 -0.130112 0.664119
v -0.000000 -0.170000 0.644449
v -0.000000 -0.206979 0.619740
v -0.000000 -0.240416 0.590416
v -0.000000 -0.269740 0.556979
v -0.000000 -0.294449 0.520000
v -0.000000 -0.314119 0.480112
v -0.000000 -0.328415 0.437998
v -0.000000 -0.337092 0.394379
v -0.000000 -0.340000 0.350000
v -0.000000 -0.337092 0.305621
v -0.000000 -0.328415 0.262002
v -0.000000 -0.314119 0.219888
v -0.000000 -0.294449 0.180000
v -0.000000 -0.269740 0.143021
v -0.000000 -0.240416 0.109584
v -0.000000 -0.206979 0.080260
v -0.000000 -0.170000 0.055551
v -0.000000 -0.130112 0.035881
v -0.000000 -0.087998 0.021585
v -0.000000 -0.044379 0.012909
v -0.005793 -0.043999 0.687091
v -0.011486 -0.087246 0.678415
v -0.016983 -0.128999 0.664119
v -0.022190 -0.168546 0.644449
v -0.027016 -0.205208 0.619740
v -0.031381 -0.238360 0.590416
v -0.035208 -0.267433 0.556979
v -0.038433 -0.291930 0.520000
v -0.041001 -0.311432 0.480112
v -0.042867 -0.325605 0.437998
v -0.043999 -0.334208 0.394379
v -0.044379 -0.337092 0.350000
v -0.043999 -0.334208 0.305621
v -0.042867 -0.325605 0.262002
v -0.041001 -0.311432 0.219888
v -0.038433 -0.291930 0.180000
v -0.035208 -0.267433 0.143021
v -0.031381 -0.238360 0.109584
v -0.027016 -0.205208 0.080260
v -0.022190 -0.168546 0.055551
v -0.016983 -0.128999 0.035881
v -0.011486 -0.087246 0.021585
v -0.005793 -0.043999 0.012909
v -0.011486 -0.042867 0.687091
v -0.022776 -0.085000 0.678415
v -0.033676 -0.125679 0.664119
v -0.043999 -0.164208 0.644449
v -0.053570 -0.199926 0.619740
v -0.062224 -0.232224 0.590416
v -0.069814 -0.260549 0.556979
v -0.076209 -0.284416 0.520000
v -0.081300 -0.303416 0.480112
v -0.085000 -0.317225 0.437998
v -0.087246 -0.325605 0.394379
v -0.087999 -0.328415 0.350000
v -0.087246 -0.325605 0.305621
v -0.085000 -0.317225 0.262002
v -0.081300 -0.303416 0.219888
v -0.076209 -0.284416 0.180000
v -0.069814 -0.260549 0.143021
v -0.062224 -0.232224 0.109584
v -0.053570 -0.199926 0.080260
v -0.043999 -0.164208 0.055551
v -0.033676 -0.125679 0.035881
v -0.022776 -0.085000 0.021585
v -0.011486 -0.042867 0.012909
v -0.016983 -0.041001 0.687091
v -0.033676 -0.081300 0.678415
v -0.049792 -0.120208 0.664119
v -0.065056 -0.157060 0.644449
v -0.079207 -0.191224 0.619740
v -0.092003 -0.222116 0.590416
v -0.103225 -0.249207 0.556979
v -0.112681 -0.272035 0.520000
v -0.120208 -0.290208 0.480112
v -0.125679 -0.303416 0.437998
v -0.128999 -0.311432 0.394379
v -0.130113 -0.314119 0.350000
v -0.128999 -0.311432 0.305621
v -0.125679 -0.303416 0.262002
v -0.120208 -0.290208 0.219888
v -0.112681 -0.272035 0.180000
v -0.103225 -0.249207 0.143021
v -0.092003 -0.222116 0.109584
v -0.079207 -0.191224 0.080260
v -0.065056 -0.157060 0.055551
v -0.049792 -0.120208 0.035881
v -0.033676 -0.081300 0.021585
v -0.016983 -0.041001 0.012909
v -0.022189 -0.038433 0.687091
v -0.043999 -0.076209 0.678415
v -0.065056 -0.112681 0.664119
v -0.085000 -0.147224 0.644449
v -0.103490 -0.179249 0.619740
v -0.120208 -0.208207 0.590416
v -0.134870 -0.233602 0.556979
v -0.147224 -0.255000 0.520000
v -0.157060 -0.272035 0.480112
v -0.164208 -0.284416 0.437998
v -0.168546 -0.291930 0.394379
v -0.170000 -0.294449 0.350000
v -0.168546 -0.291930 0.305621
v -0.164208 -0.284416 0.262002
v -0.157060 -0.272035 0.219888
v -0.147224 -0.255000 0.180000
v -0.134870 -0.233602 0.143021
v -0.120208 -0.208207 0.109584
v -0.103490 -0.179249 0.080260
v -0.085000 -0.147224 0.055551
v -0.065056 -0.112681 0.035881
v -0.043999 -0.076209 0.021585
v -0.022189 -0.038433 0.012909
v -0.027016 -0.035208 0.687091
v -0.053570 -0.069814 0.678415
v -0.079207 -0.103225 0.664119
v -0.103490 -0.134870 0.644449
v -0.126001 -0.164208 0.619740
v -0.146356 -0.190735 0.590416
v -0.164208 -0.213999 0.556979
v -0.179249 -0.233602 0.520000
v -0.191224 -0.249208 0.480112
v -0.199926 -0.260549 0.437998
v -0.205208 -0.267433 0.394379
v -0.206979 -0.269740 0.350000
v -0.205208 -0.267433 0.305621
v -0.199926 -0.260549 0.262002
v -0.191224 -0.249208 0.219888
v -0.179249 -0.233602 0.180000
v -0.164208 -0.213999 0.143021
v -0.146356 -0.190735 0.109584
v -0.126001 -0.164208 0.080260
v -0.103490 -0.134870 0.055551
v -0.079207 -0.103225 0.035881
v -0.053570 -0.069814 0.021585
v -0.027016 -0.035208 0.012909
v -0.031381 -0.031381 0.687091
v -0.062224 -0.062224 0.678415
v -0.092003 -0.092003 0.664119
v -0.120208 -0.120208 0.644449
v -0.146356 -0.146356 0.619740
v -0.170000 -0.170000 0.590416
v -0.190735 -0.190735 0.556979
v -0.208207 -0.208207 0.520000
v -0.222116 -0.222116 0.480112
v -0.232225 -0.232224 0.437998
v -0.238360 -0.238360 0.394379
v -0.240417 -0.240416 0.350000
v -0.238360 -0.238360 0.305621
v -0.232225 -0.232224 0.262002
v -0.222116 -0.222116 0.219888
v -0.208207 -0.208207 0.180000
v -0.190735 -0.190735 0.143021
v -0.170000 -0.170000 0.109584
v -0.146356 -0.146356 0.080260
v -0.120208 -0.120208 0.055551
v -0.092003 -0.092003 0.035881
v -0.062224 -0.062224 0.021585
v -0.031381 -0.031381 0.012909
v -0.035208 -0.027016 0.687091
v -0.069814 -0.053570 0.678415
v -0.103225 -0.079207 0.664119
v -0.134870 -0.103490 0.644449
v -0.164208 -0.126001 0.619740
v -0.190735 -0.146356 0.590416
v -0.213999 -0.164207 0.556979
v -0.233602 -0.179249 0.520000
v -0.249208 -0.191224 0.480112
v -0.260549 -0.199926 0.437998
v -0.267433 -0.205208 0.394379
v -0.269740 -0.206979 0.350000
v -0.267433 -0.205208 0.305621
v -0.260549 -0.199926 0.262002
v -0.249208 -0.191224 0.219888
v -0.233602 -0.179249 0.180000
v -0.213999 -0.164207 0.143021
v -0.190735 -0.146356 0.109584
v -0.164208 -0.126001 0.080260
v -0.134870 -0.103490 0.055551
v -0.103225 -0.079207 0.035881
v -0.069814 -0.053570 0.021585
v -0.035208 -0.027016 0.012909
v 0.000000 0.000000 0.010000
v -0.038433 -0.022189 0.687091
v -0.076209 -0.043999 0.678415
v -0.112681 -0.065056 0.664119
v -0.147225 -0.085000 0.644449
v -0.179249 -0.103490 0.619740
v -0.208207 -0.120208 0.590416
v -0.233602 -0.134870 0.556979
v -0.255000 -0.147224 0.520000
v -0.272035 -0.157060 0.480112
v -0.284416 -0.164207 0.437998
v -0.291930 -0.168546 0.394379
v -0.294449 -0.170000 0.350000
v -0.291930 -0.168546 0.305621
v -0.284416 -0.164207 0.262002
v -0.272035 -0.157060 0.219888
v -0.255000 -0.147224 0.180000
v -0.233602 -0.134870 0.143021
v -0.208207 -0.120208 0.109584
v -0.179249 -0.103490 0.080260
v -0.147225 -0.085000 0.055551
v -0.112681 -0.065056 0.035881
v -0.076209 -0.043999 0.021585
v -0.038433 -0.022189 0.012909
v -0.041001 -0.016983 0.687091
v -0.081300 -0.033676 0.678415
v -0.120208 -0.049792 0.664119
v -0.157060 -0.065056 0.644449
v -0.191224 -0.079207 0.619740
v -0.222116 -0.092003 0.590416
v -0.249208 -0.103225 0.556979
v -0.272035 -0.112681 0.520000
v -0.290208 -0.120208 0.480112
v -0.303416 -0.125679 0.437998
v -0.311432 -0.128999 0.394379
v -0.314119 -0.130112 0.350000
v -0.311432 -0.128999 0.305621
v -0.303416 -0.125679 0.262002
v -0.290208 -0.120208 0.219888
v -0.272035 -0.112681 0.180000
v -0.249208 -0.103225 0.143021
v -0.222116 -0.092003 0.109584
v -0.191224 -0.079207 0.080260
v -0.157060 -0.065056 0.055551
v -0.120208 -0.049792 0.035881
v -0.081300 -0.033676 0.021585
v -0.041001 -0.016983 0.012909
v -0.042867 -0.011486 0.687091
v -0.085000 -0.022776 0.678415
v -0.125679 -0.033676 0.664119
v -0.164208 -0.043999 0.644449
v -0.199926 -0.053570 0.619740
v -0.232224 -0.062224 0.590416
v -0.260549 -0.069814 0.556979
v -0.284416 -0.076209 0.520000
v -0.303416 -0.081300 0.480112
v -0.317225 -0.085000 0.437998
v -0.325606 -0.087246 0.394379
v -0.328415 -0.087998 0.350000
v -0.325606 -0.087246 0.305621
v -0.317225 -0.085000 0.262002
v -0.303416 -0.081300 0.219888
v -0.284416 -0.076209 0.180000
v -0.260549 -0.069814 0.143021
v -0.232224 -0.062224 0.109584
v -0.199926 -0.053570 0.080260
v -0.164208 -0.043999 0.055551
v -0.125679 -0.033676 0.035881
v -0.085000 -0.022776 0.021585
v -0.042867 -0.011486 0.012909
v -0.043999 -0.005793 0.687091
v -0.087246 -0.011486 0.678415
v -0.128999 -0.016983 0.664119
v -0.168546 -0.022189 0.644449
v -0.205208 -0.027016 0.619740
v -0.238360 -0.031381 0.590416
v -0.267433 -0.035208 0.556979
v -0.291930 -0.038433 0.520000
v -0.311432 -0.041001 0.480112
v -0.325605 -0.042867 0.437998
v -0.334208 -0.043999 0.394379
v -0.337092 -0.044379 0.350000
v -0.334208 -0.043999 0.305621
v -0.325605 -0.042867 0.262002
v -0.311432 -0.041001 0.219888
v -0.291930 -0.038433 0.180000
v -0.267433 -0.035208 0.143021
v -0.238360 -0.031381 0.109584
v -0.205208 -0.027016 0.080260
v -0.168546 -0.022189 0.055551
v -0.128999 -0.016983 0.035881
v -0.087246 -0.011486 0.021585
v -0.043999 -0.005793 0.012909
v -0.044379 0.000000 0.687091
v -0.087998 0.000000 0.678415
v -0.130112 0.000000 0.664119
v -0.170000 0.000000 0.644449
v -0.206979 0.000000 0.619740
v -0.240416 0.000000 0.590416
v -0.269740 0.000000 0.556979
v -0.294449 0.000000 0.520000
v -0.314119 0.000000 0.480112
v -0.328415 0.000000 0.437998
v -0.337092 0.000000 0.394379
v -0.340000 0.000000 0.350000
v -0.337092 0.000000 0.305621
v -0.328415 0.000000 0.262002
v -0.314119 0.000000 0.219888
v -0.294449 0.000000 0.180000
v -0.269740 0.000000 0.143021
v -0.240416 0.000000 0.109584
v -0.206979 0.000000 0.080260
v -0.170000 0.000000 0.055551
v -0.130112 0.000000 0.035881
v -0.087998 0.000000 0.021585
v -0.044379 0.000000 0.012909
v -0.043999 0.005793 0.687091
v -0.087246 0.011486 0.678415
v -0.128999 0.016983 0.664119
v -0.168546 0.022190 0.644449
v -0.205208 0.027016 0.619740
v -0.238360 0.031381 0.590416
v -0.267433 0.035208 0.556979
v -0.291930 0.038433 0.520000
v -0.311432 0.041001 0.480112
v -0.325605 0.042867 0.437998
v -0.334208 0.043999 0.394379
v -0.337092 0.044379 0.350000
v -0.334208 0.043999 0.305621
v -0.325605 0.042867 0.262002
v -0.311432 0.041001 0.219888
v -0.291930 0.038433 0.180000
v -0.267433 0.035208 0.143021
v -0.238360 0.031381 0.109584
v -0.205208 0.027016 0.080260
v -0.168546 0.022190 0.055551
v -0.128999 0.016983 0.035881
v -0.087246 0.011486 0.021585
v -0.043999 0.005793 0.012909
v -0.042867 0.011486 0.687091
v -0.085000 0.022776 0.678415
v -0.125679 0.033676 0.664119
v -0.164208 0.043999 0.644449
v -0.199926 0.053570 0.619740
v -0.232224 0.062224 0.590416
v -0.260549 0.069814 0.556979
v -0.284416 0.076209 0.520000
v -0.303416 0.081300 0.480112
v -0.317225 0.085000 0.437998
v -0.325606 0.087246 0.394379
v -0.328415 0.087999 0.350000
v -0.325606 0.087246 0.305621
v -0.317225 0.085000 0.262002
v -0.303416 0.081300 0.219888
v -0.284416 0.076209 0.180000
v -0.260549 0.069814 0.143021
v -0.232224 0.062224 0.109584
v -0.199926 0.053570 0.080260
v -0.164208 0.043999 0.055551
v -0.125679 0.033676 0.035881
v -0.085000 0.022776 0.021585
v -0.042867 0.011486 0.012909
v -0.041001 0.016983 0.687091
v -0.081300 0.033676 0.678415
v -0.120208 0.049792 0.664119
v -0.157060 0.065056 0.644449
v -0.191224 0.079207 0.619740
v -0.222116 0.092003 0.590416
v -0.249208 0.103225 0.556979
v -0.272035 0.112681 0.520000
v -0.290208 0.120208 0.480112
v -0.303416 0.125679 0.437998
v -0.311432 0.129000 0.394379
v -0.314119 0.130113 0.350000
v -0.311432 0.129000 0.305621
v -0.303416 0.125679 0.262002
v -0.290208 0.120208 0.219888
v -0.272035 0.112681 0.180000
v -0.249208 0.103225 0.143021
v -0.222116 0.092003 0.109584
v -0.191224 0.079207 0.080260
v -0.157060 0.065056 0.055551
v -0.120208 0.049792 0.035881
v -0.081300 0.033676 0.021585
v -0.041001 0.016983 0.012909
v -0.038433 0.022189 0.687091
v -0.076209 0.043999 0.678415
v -0.112681 0.065056 0.664119
v -0.147224 0.085000 0.644449
v -0.179249 0.103490 0.619740
v -0.208207 0.120208 0.590416
v -0.233602 0.134870 0.556979
v -0.255000 0.147225 0.520000
v -0.272035 0.157060 0.480112
v -0.284416 0.164208 0.437998
v -0.291930 0.168546 0.394379
v -0.294449 0.170000 0.350000
v -0.291930 0.168546 0.305621
v -0.284416 0.164208 0.262002
v -0.272035 0.157060 0.219888
v -0.255000 0.147225 0.180000
v -0.233602 0.134870 0.143021
v -0.208207 0.120208 0.109584
v -0.179249 0.103490 0.080260
v -0.147224 0.085000 0.055551
v -0.112681 0.065056 0.035881
v -0.076209 0.043999 0.021585
v -0.038433 0.022189 0.012909
v -0.035208 0.027016 0.687091
v -0.069814 0.053570 0.678415
v -0.103225 0.079207 0.664119
v -0.134870 0.103490 0.644449
v -0.164208 0.126001 0.619740
v -0.190735 0.146356 0.590416
v -0.213999 0.164208 0.556979
v -0.233602 0.179249 0.520000
v -0.249208 0.191224 0.480112
v -0.260549 0.199927 0.437998
v -0.267433 0.205209 0.394379
v -0.269740 0.206979 0.350000
v -0.267433 0.205209 0.305621
v -0.260549 0.199927 0.262002
v -0.249208 0.191224 0.219888
v -0.233602 0.179249 0.180000
v -0.213999 0.164208 0.143021
v -0.190735 0.146356 0.109584
v -0.164208 0.126001 0.080260
v -0.134870 0.103490 0.055551
v -0.103225 0.079207 0.035881
v -0.069814 0.053570 0.021585
v -0.035208 0.027016 0.012909
v -0.031381 0.031381 0.687091
v -0.062224 0.062224 0.678415
v -0.092003 0.092003 0.664119
v -0.120208 0.120208 0.644449
v -0.146356 0.146356 0.619740
v -0.170000 0.170000 0.590416
v -0.190735 0.190735 0.556979
v -0.208207 0.208207 0.520000
v -0.222116 0.222116 0.480112
v -0.232225 0.232225 0.437998
v -0.238360 0.238360 0.394379
v -0.240416 0.240417 0.350000
v -0.238360 0.238360 0.305621
v -0.232225 0.232225 0.262002
v -0.222116 0.222116 0.219888
v -0.208207 0.208207 0.180000
v -0.190735 0.190735 0.143021
v -0.170000 0.170000 0.109584
v -0.146356 0.146356 0.080260
v -0.120208 0.120208 0.055551
v -0.092003 0.092003 0.035881
v -0.062224 0.062224 0.021585
v -0.031381 0.031381 0.012909
v -0.027016 0.035208 0.687091
v -0.053570 0.069814 0.678415
v -0.079207 0.103225 0.664119
v -0.103490 0.134870 0.644449
v -0.126001 0.164208 0.619740
v -0.146356 0.190735 0.590416
v -0.164207 0.213999 0.556979
v -0.179249 0.233602 0.520000
v -0.191224 0.249208 0.480112
v -0.199926 0.260549 0.437998
v -0.205208 0.267433 0.394379
v -0.206979 0.269741 0.350000
v -0.205208 0.267433 0.305621
v -0.199926 0.260549 0.262002
v -0.191224 0.249208 0.219888
v -0.179249 0.233602 0.180000
v -0.164207 0.213999 0.143021
v -0.146356 0.190735 0.109584
v -0.126001 0.164208 0.080260
v -0.103490 0.134870 0.055551
v -0.079207 0.103225 0.035881
v -0.053570 0.069814 0.021585
v -0.027016 0.035208 0.012909
v -0.022189 0.038433 0.687091
v -0.043999 0.076209 0.678415
v -0.065056 0.112681 0.664119
v -0.085000 0.147225 0.644449
v -0.103490 0.179249 0.619740
v -0.120208 0.208207 0.590416
v -0.134870 0.233602 0.556979
v -0.147224 0.255000 0.520000
v -0.157060 0.272035 0.480112
v -0.164208 0.284416 0.437998
v -0.168546 0.291930 0.394379
v -0.170000 0.294449 0.350000
v -0.168546 0.291930 0.305621
v -0.164208 0.284416 0.262002
v -0.157060 0.272035 0.219888
v -0.147224 0.255000 0.180000
v -0.134870 0.233602 0.143021
v -0.120208 0.208207 0.109584
v -0.103490 0.179249 0.080260
v -0.085000 0.147225 0.055551
v -0.065056 0.112681 0.035881
v -0.043999 0.076209 0.021585
v -0.022189 0.038433 0.012909
v -0.016983 0.041001 0.687091
v -0.033676 0.081300 0.678415
v -0.049792 0.120208 0.664119
v -0.065056 0.157060 0.644449
v -0.079207 0.191224 0.619740
v -0.092003 0.222116 0.590416
v -0.103225 0.249208 0.556979
v -0.112681 0.272035 0.520000
v -0.120208 0.290209 0.480112
v -0.125679 0.303416 0.437998
v -0.128999 0.311432 0.394379
v -0.130112 0.314120 0.350000
v -0.128999 0.311432 0.305621
v -0.125679 0.303416 0.262002
v -0.120208 0.290209 0.219888
v -0.112681 0.272035 0.180000
v -0.103225 0.249208 0.143021
v -0.092003 0.222116 0.109584
v -0.079207 0.191224 0.080260
v -0.065056 0.157060 0.055551
v -0.049792 0.120208 0.035881
v -0.033676 0.081300 0.021585
v -0.016983 0.041001 0.012909
v -0.011486 0.042867 0.687091
v -0.022776 0.085000 0.678415
v -0.033676 0.125679 0.664119
v -0.043999 0.164208 0.644449
v -0.053570 0.199926 0.619740
v -0.062224 0.232224 0.590416
v -0.069814 0.260549 0.556979
v -0.076209 0.284416 0.520000
v -0.081300 0.303416 0.480112
v -0.085000 0.317225 0.437998
v -0.087246 0.325606 0.394379
v -0.087998 0.328415 0.350000
v -0.087246 0.325606 0.305621
v -0.085000 0.317225 0.262002
v -0.081300 0.303416 0.219888
v -0.076209 0.284416 0.180000
v -0.069814 0.260549 0.143021
v -0.062224 0.232224 0.109584
v -0.053570 0.199926 0.080260
v -0.043999 0.164208 0.055551
v -0.033676 0.125679 0.035881
v -0.022776 0.085000 0.021585
v -0.011486 0.042867 0.012909
v -0.005793 0.043999 0.687091
v -0.011486 0.087246 0.678415
v -0.016983 0.128999 0.664119
v -0.022189 0.168546 0.644449
v -0.027016 0.205208 0.619740
v -0.031381 0.238360 0.590416
v -0.035208 0.267433 0.556979
v -0.038433 0.291930 0.520000
v -0.041001 0.311432 0.480112
v -0.042867 0.325606 0.437998
v -0.043999 0.334208 0.394379
v -0.044379 0.337092 0.350000
v -0.043999 0.334208 0.305621
v -0.042867 0.325606 0.262002
v -0.041001 0.311432 0.219888
v -0.038433 0.291930 0.180000
v -0.035208 0.267433 0.143021
v -0.031381 0.238360 0.109584
v -0.027016 0.205208 0.080260
v -0.022189 0.168546 0.055551
v -0.016983 0.128999 0.035881
v -0.011486 0.087246 0.021585
v -0.005793 0.043999 0.012909
v -0.000000 0.044379 0.687091
v 0.000000 0.269740 0.556979
v 0.000000 0.294449 0.520000
v 0.000000 0.337092 0.394379
v 0.000000 0.340000 0.350000
v 0.000000 0.337092 0.305621
v 0.000000 0.269740 0.143021
v 0.000000 0.087998 0.021585
v -0.000000 0.044379 0.012909
f 1 2 4 3
f 3 4 6 5
f 5 6 8 7
f 7 8 10 9
f 9 10 12 11
f 11 12 14 13
f 13 14 16 15
f 15 16 18 17
f 17 18 20 19
f 19 20 22 21
f 21 22 24 23
f 23 24 26 25
f 25 26 28 27
f 27 28 30 29
f 29 30 32 31
f 31 32 34 33
f 33 34 36 35
f 35 36 38 37
f 37 38 40 39
f 39 40 42 41
f 41 42 44 43
f 43 44 46 45
f 45 46 48 47
f 47 48 50 49
f 49 50 52 51
f 51 52 54 53
f 53 54 56 55
f 55 56 58 57
f 57 58 60 59
f 59 60 62 61
f 61 62 64 63
f 63 64 66 65
f 65 66 68 67
f 67 68 70 69
f 69 70 72 71
f 71 72 74 73
f 73 74 76 75
f 75 76 78 77
f 77 78 80 79
f 79 80 82 81
f 81 82 84 83
f 83 84 86 85
f 85 86 88 87
f 87 88 90 89
f 89 90 92 91
f 91 92 94 93
f 4 2 96 94 92 90 88 86 84 82 80 78 76 74 72 70 68 66 64 62 60 58 56 54 52 50 48 46 44 42 40 38 36 34 32 30 28 26 24 22 20 18 16 14 12 10 8 6
f 93 94 96 95
f 95 96 2 1
f 1 3 5 7 9 11 13 15 17 19 21 23 25 27 29 31 33 35 37 39 41 43 45 47 49 51 53 55 57 59 61 63 65 67 69 71 73 75 77 79 81 83 85 87 89 91 93 95
f 1196 1195 117 118
f 1202 1201 132 133
f 1194 364 111
f 106 105 125 126
f 102 1196 118 119
f 825 1202 133
f 97 1194 111 112
f 1200 106 126 127
f 103 102 119 120
f 98 97 112 113
f 107 1200 127 128
f 1197 103 120 121
f 99 98 113 114
f 108 107 128 129
f 1198 1197 121 122
f 100 99 114 115
f 109 108 129 130
f 1199 1198 122 123
f 101 100 115 116
f 110 109 130 131
f 104 1199 123 124
f 1195 101 116 117
f 1201 110 131 132
f 105 104 124 125
f 131 130 153 154
f 124 123 146 147
f 117 116 139 140
f 132 131 154 155
f 125 124 147 148
f 118 117 140 141
f 133 132 155 156
f 111 364 134
f 126 125 148 149
f 119 118 141 142
f 825 133 156
f 112 111 134 135
f 127 126 149 150
f 120 119 142 143
f 113 112 135 136
f 128 127 150 151
f 121 120 143 144
f 114 113 136 137
f 129 128 151 152
f 122 121 144 145
f 115 114 137 138
f 130 129 152 153
f 123 122 145 146
f 116 115 138 139
f 142 141 164 165
f 825 156 179
f 135 134 157 158
f 150 149 172 173
f 143 142 165 166
f 136 135 158 159
f 151 150 173 174
f 144 143 166 167
f 137 136 159 160
f 152 151 174 175
f 145 144 167 168
f 138 137 160 161
f 153 152 175 176
f 146 145 168 169
f 139 138 161 162
f 154 153 176 177
f 147 146 169 170
f 140 139 162 163
f 155 154 177 178
f 148 147 170 171
f 141 140 163 164
f 156 155 178 179
f 134 364 157
f 149 148 171 172
f 168 167 190 191
f 161 160 183 184
f 176 175 198 199
f 169 168 191 192
f 162 161 184 185
f 177 176 199 200
f 170 169 192 193
f 163 162 185 186
f 178 177 200 201
f 171 170 193 194
f 164 163 186 187
f 179 178 201 202
f 157 364 180
f 172 171 194 195
f 165 164 187 188
f 825 179 202
f 158 157 180 181
f 173 172 195 196
f 166 165 188 189
f 159 158 181 182
f 174 173 196 197
f 167 166 189 190
f 160 159 182 183
f 175 174 197 198
f 201 200 223 224
f 194 193 216 217
f 187 186 209 210
f 202 201 224 225
f 180 364 203
f 195 194 217 218
f 188 187 210 211
f 825 202 225
f 181 180 203 204
f 196 195 218 219
f 189 188 211 212
f 182 181 204 205
f 197 196 219 220
f 190 189 212 213
f 183 182 205 206
f 198 197 220 221
f 191 190 213 214
f 184 183 206 207
f 199 198 221 222
f 192 191 214 215
f 185 184 207 208
f 200 199 222 223
f 193 192 215 216
f 186 185 208 209
f 212 211 234 235
f 205 204 227 228
f 220 219 242 243
f 213 212 235 236
f 206 205 228 229
f 221 220 243 244
f 214 213 236 237
f 207 206 229 230
f 222 221 244 245
f 215 214 237 238
f 208 207 230 231
f 223 222 245 246
f 216 215 238 239
f 209 208 231 232
f 224 223 246 247
f 217 216 239 240
f 210 209 232 233
f 225 224 247 248
f 203 364 226
f 218 217 240 241
f 211 210 233 234
f 825 225 248
f 204 203 226 227
f 219 218 241 242
f 238 237 260 261
f 231 230 253 254
f 246 245 268 269
f 239 238 261 262
f 232 231 254 255
f 247 246 269 270
f 240 239 262 263
f 233 232 255 256
f 248 247 270 271
f 226 364 249
f 241 240 263 264
f 234 233 256 257
f 825 248 271
f 227 226 249 250
f 242 241 264 265
f 235 234 257 258
f 228 227 250 251
f 243 242 265 266
f 236 235 258 259
f 229 228 251 252
f 244 243 266 267
f 237 236 259 260
f 230 229 252 253
f 245 244 267 268
f 271 270 293 294
f 249 364 272
f 264 263 286 287
f 257 256 279 280
f 825 271 294
f 250 249 272 273
f 265 264 287 288
f 258 257 280 281
f 251 250 273 274
f 266 265 288 289
f 259 258 281 282
f 252 251 274 275
f 267 266 289 290
f 260 259 282 283
f 253 252 275 276
f 268 267 290 291
f 261 260 283 284
f 254 253 276 277
f 269 268 291 292
f 262 261 284 285
f 255 254 277 278
f 270 269 292 293
f 263 262 285 286
f 256 255 278 279
f 282 281 304 305
f 275 274 297 298
f 290 289 312 313
f 283 282 305 306
f 276 275 298 299
f 291 290 313 314
f 284 283 306 307
f 277 276 299 300
f 292 291 314 315
f 285 284 307 308
f 278 277 300 301
f 293 292 315 316
f 286 285 308 309
f 279 278 301 302
f 294 293 316 317
f 272 364 295
f 287 286 309 310
f 280 279 302 303
f 825 294 317
f 273 272 295 296
f 288 287 310 311
f 281 280 303 304
f 274 273 296 297
f 289 288 311 312
f 308 307 330 331
f 301 300 323 324
f 316 315 338 339
f 309 308 331 332
f 302 301 324 325
f 317 316 339 340
f 295 364 318
f 310 309 332 333
f 303 302 325 326
f 825 317 340
f 296 295 318 319
f 311 310 333 334
f 304 303 326 327
f 297 296 319 320
f 312 311 334 335
f 305 304 327 328
f 298 297 320 321
f 313 312 335 336
f 306 305 328 329
f 299 298 321 322
f 314 313 336 337
f 307 306 329 330
f 300 299 322 323
f 315 314 337 338
f 825 340 363
f 319 318 341 342
f 334 333 356 357
f 327 326 349 350
f 320 319 342 343
f 335 334 357 358
f 328 327 350 351
f 321 320 343 344
f 336 335 358 359
f 329 328 351 352
f 322 321 344 345
f 337 336 359 360
f 330 329 352 353
f 323 322 345 346
f 338 337 360 361
f 331 330 353 354
f 324 323 346 347
f 339 338 361 362
f 332 331 354 355
f 325 324 347 348
f 340 339 362 363
f 318 364 341
f 333 332 355 356
f 326 325 348 349
f 352 351 375 376
f 345 344 368 369
f 360 359 383 384
f 353 352 376 377
f 346 345 369 370
f 361 360 384 385
f 354 353 377 378
f 347 346 370 371
f 362 361 385 386
f 355 354 378 379
f 348 347 371 372
f 363 362 386 387
f 341 364 365
f 356 355 379 380
f 349 348 372 373
f 825 363 387
f 342 341 365 366
f 357 356 380 381
f 350 349 373 374
f 343 342 366 367
f 358 357 381 382
f 351 350 374 375
f 344 343 367 368
f 359 358 382 383
f 379 378 401 402
f 372 371 394 395
f 387 386 409 410
f 365 364 388
f 380 379 402 403
f 373 372 395 396
f 825 387 410
f 366 365 388 389
f 381 380 403 404
f 374 373 396 397
f 367 366 389 390
f 382 381 404 405
f 375 374 397 398
f 368 367 390 391
f 383 382 405 406
f 376 375 398 399
f 369 368 391 392
f 384 383 406 407
f 377 376 399 400
f 370 369 392 393
f 385 384 407 408
f 378 377 400 401
f 371 370 393 394
f 386 385 408 409
f 390 389 412 413
f 405 404 427 428
f 398 397 420 421
f 391 390 413 414
f 406 405 428 429
f 399 398 421 422
f 392 391 414 415
f 407 406 429 430
f 400 399 422 423
f 393 392 415 416
f 408 407 430 431
f 401 400 423 424
f 394 393 416 417
f 409 408 431 432
f 402 401 424 425
f 395 394 417 418
f 410 409 432 433
f 388 364 411
f 403 402 425 426
f 396 395 418 419
f 825 410 433
f 389 388 411 412
f 404 403 426 427
f 397 396 419 420
f 423 422 445 446
f 416 415 438 439
f 431 430 453 454
f 424 423 446 447
f 417 416 439 440
f 432 431 454 455
f 425 424 447 448
f 418 417 440 441
f 433 432 455 456
f 411 364 434
f 426 425 448 449
f 419 418 441 442
f 825 433 456
f 412 411 434 435
f 427 426 449 450
f 420 419 442 443
f 413 412 435 436
f 428 427 450 451
f 421 420 443 444
f 414 413 436 437
f 429 428 451 452
f 422 421 444 445
f 415 414 437 438
f 430 429 452 453
f 434 364 457
f 449 448 471 472
f 442 441 464 465
f 825 456 479
f 435 434 457 458
f 450 449 472 473
f 443 442 465 466
f 436 435 458 459
f 451 450 473 474
f 444 443 466 467
f 437 436 459 460
f 452 451 474 475
f 445 444 467 468
f 438 437 460 461
f 453 452 475 476
f 446 445 468 469
f 439 438 461 462
f 454 453 476 477
f 447 446 469 470
f 440 439 462 463
f 455 454 477 478
f 448 447 470 471
f 441 440 463 464
f 456 455 478 479
f 460 459 482 483
f 475 474 497 498
f 468 467 490 491
f 461 460 483 484
f 476 475 498 499
f 469 468 491 492
f 462 461 484 485
f 477 476 499 500
f 470 469 492 493
f 463 462 485 486
f 478 477 500 501
f 471 470 493 494
f 464 463 486 487
f 479 478 501 502
f 457 364 480
f 472 471 494 495
f 465 464 487 488
f 825 479 502
f 458 457 480 481
f 473 472 495 496
f 466 465 488 489
f 459 458 481 482
f 474 473 496 497
f 467 466 489 490
f 493 492 515 516
f 486 485 508 509
f 501 500 523 524
f 494 493 516 517
f 487 486 509 510
f 502 501 524 525
f 480 364 503
f 495 494 517 518
f 488 487 510 511
f 825 502 525
f 481 480 503 504
f 496 495 518 519
f 489 488 511 512
f 482 481 504 505
f 497 496 519 520
f 490 489 512 513
f 483 482 505 506
f 498 497 520 521
f 491 490 513 514
f 484 483 506 507
f 499 498 521 522
f 492 491 514 515
f 485 484 507 508
f 500 499 522 523
f 504 503 526 527
f 519 518 541 542
f 512 511 534 535
f 505 504 527 528
f 520 519 542 543
f 513 512 535 536
f 506 505 528 529
f 521 520 543 544
f 514 513 536 537
f 507 506 529 530
f 522 521 544 545
f 515 514 537 538
f 508 507 530 531
f 523 522 545 546
f 516 515 538 539
f 509 508 531 532
f 524 523 546 547
f 517 516 539 540
f 510 509 532 533
f 525 524 547 548
f 503 364 526
f 518 517 540 541
f 511 510 533 534
f 825 525 548
f 530 529 552 553
f 545 544 567 568
f 538 537 560 561
f 531 530 553 554
f 546 545 568 569
f 539 538 561 562
f 532 531 554 555
f 547 546 569 570
f 540 539 562 563
f 533 532 555 556
f 548 547 570 571
f 526 364 549
f 541 540 563 564
f 534 533 556 557
f 825 548 571
f 527 526 549 550
f 542 541 564 565
f 535 534 557 558
f 528 527 550 551
f 543 542 565 566
f 536 535 558 559
f 529 528 551 552
f 544 543 566 567
f 537 536 559 560
f 563 562 585 586
f 556 555 578 579
f 571 570 593 594
f 549 364 572
f 564 563 586 587
f 557 556 579 580
f 825 571 594
f 550 549 572 573
f 565 564 587 588
f 558 557 580 581
f 551 550 573 574
f 566 565 588 589
f 559 558 581 582
f 552 551 574 575
f 567 566 589 590
f 560 559 582 583
f 553 552 575 576
f 568 567 590 591
f 561 560 583 584
f 554 553 576 577
f 569 568 591 592
f 562 561 584 585
f 555 554 577 578
f 570 569 592 593
f 574 573 596 597
f 589 588 611 612
f 582 581 604 605
f 575 574 597 598
f 590 589 612 613
f 583 582 605 606
f 576 575 598 599
f 591 590 613 614
f 584 583 606 607
f 577 576 599 600
f 592 591 614 615
f 585 584 607 608
f 578 577 600 601
f 593 592 615 616
f 586 585 608 609
f 579 578 601 602
f 594 593 616 617
f 572 364 595
f 587 586 609 610
f 580 579 602 603
f 825 594 617
f 573 572 595 596
f 588 587 610 611
f 581 580 603 604
f 600 599 622 623
f 615 614 637 638
f 608 607 630 631
f 601 600 623 624
f 616 615 638 639
f 609 608 631 632
f 602 601 624 625
f 617 616 639 640
f 595 364 618
f 610 609 632 633
f 603 602 625 626
f 825 617 640
f 596 595 618 619
f 611 610 633 634
f 604 603 626 627
f 597 596 619 620
f 612 611 634 635
f 605 604 627 628
f 598 597 620 621
f 613 612 635 636
f 606 605 628 629
f 599 598 621 622
f 614 613 636 637
f 607 606 629 630
f 633 632 655 656
f 626 625 648 649
f 825 640 663
f 619 618 641 642
f 634 633 656 657
f 627 626 649 650
f 620 619 642 643
f 635 634 657 658
f 628 627 650 651
f 621 620 643 644
f 636 635 658 659
f 629 628 651 652
f 622 621 644 645
f 637 636 659 660
f 630 629 652 653
f 623 622 645 646
f 638 637 660 661
f 631 630 653 654
f 624 623 646 647
f 639 638 661 662
f 632 631 654 655
f 625 624 647 648
f 640 639 662 663
f 618 364 641
f 644 643 666 667
f 659 658 681 682
f 652 651 674 675
f 645 644 667 668
f 660 659 682 683
f 653 652 675 676
f 646 645 668 669
f 661 660 683 684
f 654 653 676 677
f 647 646 669 670
f 662 661 684 685
f 655 654 677 678
f 648 647 670 671
f 663 662 685 686
f 641 364 664
f 656 655 678 679
f 649 648 671 672
f 825 663 686
f 642 641 664 665
f 657 656 679 680
f 650 649 672 673
f 643 642 665 666
f 658 657 680 681
f 651 650 673 674
f 670 669 692 693
f 685 684 707 708
f 678 677 700 701
f 671 670 693 694
f 686 685 708 709
f 664 364 687
f 679 678 701 702
f 672 671 694 695
f 825 686 709
f 665 664 687 688
f 680 679 702 703
f 673 672 695 696
f 666 665 688 689
f 681 680 703 704
f 674 673 696 697
f 667 666 689 690
f 682 681 704 705
f 675 674 697 698
f 668 667 690 691
f 683 682 705 706
f 676 675 698 699
f 669 668 691 692
f 684 683 706 707
f 677 676 699 700
f 703 702 725 726
f 696 695 718 719
f 689 688 711 712
f 704 703 726 727
f 697 696 719 720
f 690 689 712 713
f 705 704 727 728
f 698 697 720 721
f 691 690 713 714
f 706 705 728 729
f 699 698 721 722
f 692 691 714 715
f 707 706 729 730
f 700 699 722 723
f 693 692 715 716
f 708 707 730 731
f 701 700 723 724
f 694 693 716 717
f 709 708 731 732
f 687 364 710
f 702 701 724 725
f 695 694 717 718
f 825 709 732
f 688 687 710 711
f 714 713 736 737
f 729 728 751 752
f 722 721 744 745
f 715 714 737 738
f 730 729 752 753
f 723 722 745 746
f 716 715 738 739
f 731 730 753 754
f 724 723 746 747
f 717 716 739 740
f 732 731 754 755
f 710 364 733
f 725 724 747 748
f 718 717 740 741
f 825 732 755
f 711 710 733 734
f 726 725 748 749
f 719 718 741 742
f 712 711 734 735
f 727 726 749 750
f 720 719 742 743
f 713 712 735 736
f 728 727 750 751
f 721 720 743 744
f 740 739 762 763
f 755 754 777 778
f 733 364 756
f 748 747 770 771
f 741 740 763 764
f 825 755 778
f 734 733 756 757
f 749 748 771 772
f 742 741 764 765
f 735 734 757 758
f 750 749 772 773
f 743 742 765 766
f 736 735 758 759
f 751 750 773 774
f 744 743 766 767
f 737 736 759 760
f 752 751 774 775
f 745 744 767 768
f 738 737 760 761
f 753 752 775 776
f 746 745 768 769
f 739 738 761 762
f 754 753 776 777
f 747 746 769 770
f 773 772 795 796
f 766 765 788 789
f 759 758 781 782
f 774 773 796 797
f 767 766 789 790
f 760 759 782 783
f 775 774 797 798
f 768 767 790 791
f 761 760 783 784
f 776 775 798 799
f 769 768 791 792
f 762 761 784 785
f 777 776 799 800
f 770 769 792 793
f 763 762 785 786
f 778 777 800 801
f 756 364 779
f 771 770 793 794
f 764 763 786 787
f 825 778 801
f 757 756 779 780
f 772 771 794 795
f 765 764 787 788
f 758 757 780 781
f 784 783 806 807
f 799 798 821 822
f 792 791 814 815
f 785 784 807 808
f 800 799 822 823
f 793 792 815 816
f 786 785 808 809
f 801 800 823 824
f 779 364 802
f 794 793 816 817
f 787 786 809 810
f 825 801 824
f 780 779 802 803
f 795 794 817 818
f 788 787 810 811
f 781 780 803 804
f 796 795 818 819
f 789 788 811 812
f 782 781 804 805
f 797 796 819 820
f 790 789 812 813
f 783 782 805 806
f 798 797 820 821
f 791 790 813 814
f 810 809 833 834
f 825 824 848
f 803 802 826 827
f 818 817 841 842
f 811 810 834 835
f 804 803 827 828
f 819 818 842 843
f 812 811 835 836
f 805 804 828 829
f 820 819 843 844
f 813 812 836 837
f 806 805 829 830
f 821 820 844 845
f 814 813 837 838
f 807 806 830 831
f 822 821 845 846
f 815 814 838 839
f 808 807 831 832
f 823 822 846 847
f 816 815 839 840
f 809 808 832 833
f 824 823 847 848
f 802 364 826
f 817 816 840 841
f 844 843 866 867
f 837 836 859 860
f 830 829 852 853
f 845 844 867 868
f 838 837 860 861
f 831 830 853 854
f 846 845 868 869
f 839 838 861 862
f 832 831 854 855
f 847 846 869 870
f 840 839 862 863
f 833 832 855 856
f 848 847 870 871
f 826 364 849
f 841 840 863 864
f 834 833 856 857
f 825 848 871
f 827 826 849 850
f 842 841 864 865
f 835 834 857 858
f 828 827 850 851
f 843 842 865 866
f 836 835 858 859
f 829 828 851 852
f 855 854 877 878
f 870 869 892 893
f 863 862 885 886
f 856 855 878 879
f 871 870 893 894
f 849 364 872
f 864 863 886 887
f 857 856 879 880
f 825 871 894
f 850 849 872 873
f 865 864 887 888
f 858 857 880 881
f 851 850 873 874
f 866 865 888 889
f 859 858 881 882
f 852 851 874 875
f 867 866 889 890
f 860 859 882 883
f 853 852 875 876
f 868 867 890 891
f 861 860 883 884
f 854 853 876 877
f 869 868 891 892
f 862 861 884 885
f 882 881 904 905
f 875 874 897 898
f 890 889 912 913
f 883 882 905 906
f 876 875 898 899
f 891 890 913 914
f 884 883 906 907
f 877 876 899 900
f 892 891 914 915
f 885 884 907 908
f 878 877 900 901
f 893 892 915 916
f 886 885 908 909
f 879 878 901 902
f 894 893 916 917
f 872 364 895
f 887 886 909 910
f 880 879 902 903
f 825 894 917
f 873 872 895 896
f 888 887 910 911
f 881 880 903 904
f 874 873 896 897
f 889 888 911 912
f 908 907 930 931
f 901 900 923 924
f 916 915 938 939
f 909 908 931 932
f 902 901 924 925
f 917 916 939 940
f 895 364 918
f 910 909 932 933
f 903 902 925 926
f 825 917 940
f 896 895 918 919
f 911 910 933 934
f 904 903 926 927
f 897 896 919 920
f 912 911 934 935
f 905 904 927 928
f 898 897 920 921
f 913 912 935 936
f 906 905 928 929
f 899 898 921 922
f 914 913 936 937
f 907 906 929 930
f 900 899 922 923
f 915 914 937 938
f 825 940 963
f 919 918 941 942
f 934 933 956 957
f 927 926 949 950
f 920 919 942 943
f 935 934 957 958
f 928 927 950 951
f 921 920 943 944
f 936 935 958 959
f 929 928 951 952
f 922 921 944 945
f 937 936 959 960
f 930 929 952 953
f 923 922 945 946
f 938 937 960 961
f 931 930 953 954
f 924 923 946 947
f 939 938 961 962
f 932 931 954 955
f 925 924 947 948
f 940 939 962 963
f 918 364 941
f 933 932 955 956
f 926 925 948 949
f 952 951 974 975
f 945 944 967 968
f 960 959 982 983
f 953 952 975 976
f 946 945 968 969
f 961 960 983 984
f 954 953 976 977
f 947 946 969 970
f 962 961 984 985
f 955 954 977 978
f 948 947 970 971
f 963 962 985 986
f 941 364 964
f 956 955 978 979
f 949 948 971 972
f 825 963 986
f 942 941 964 965
f 957 956 979 980
f 950 949 972 973
f 943 942 965 966
f 958 957 980 981
f 951 950 973 974
f 944 943 966 967
f 959 958 981 982
f 978 977 1000 1001
f 971 970 993 994
f 986 985 1008 1009
f 964 364 987
f 979 978 1001 1002
f 972 971 994 995
f 825 986 1009
f 965 964 987 988
f 980 979 1002 1003
f 973 972 995 996
f 966 965 988 989
f 981 980 1003 1004
f 974 973 996 997
f 967 966 989 990
f 982 981 1004 1005
f 975 974 997 998
f 968 967 990 991
f 983 982 1005 1006
f 976 975 998 999
f 969 968 991 992
f 984 983 1006 1007
f 977 976 999 1000
f 970 969 992 993
f 985 984 1007 1008
f 989 988 1011 1012
f 1004 1003 1026 1027
f 997 996 1019 1020
f 990 989 1012 1013
f 1005 1004 1027 1028
f 998 997 1020 1021
f 991 990 1013 1014
f 1006 1005 1028 1029
f 999 998 1021 1022
f 992 991 1014 1015
f 1007 1006 1029 1030
f 1000 999 1022 1023
f 993 992 1015 1016
f 1008 1007 1030 1031
f 1001 1000 1023 1024
f 994 993 1016 1017
f 1009 1008 1031 1032
f 987 364 1010
f 1002 1001 1024 1025
f 995 994 1017 1018
f 825 1009 1032
f 988 987 1010 1011
f 1003 1002 1025 1026
f 996 995 1018 1019
f 1022 1021 1044 1045
f 1015 1014 1037 1038
f 1030 1029 1052 1053
f 1023 1022 1045 1046
f 1016 1015 1038 1039
f 1031 1030 1053 1054
f 1024 1023 1046 1047
f 1017 1016 1039 1040
f 1032 1031 1054 1055
f 1010 364 1033
f 1025 1024 1047 1048
f 1018 1017 1040 1041
f 825 1032 1055
f 1011 1010 1033 1034
f 1026 1025 1048 1049
f 1019 1018 1041 1042
f 1012 1011 1034 1035
f 1027 1026 1049 1050
f 1020 1019 1042 1043
f 1013 1012 1035 1036
f 1028 1027 1050 1051
f 1021 1020 1043 1044
f 1014 1013 1036 1037
f 1029 1028 1051 1052
f 1033 364 1056
f 1048 1047 1070 1071
f 1041 1040 1063 1064
f 825 1055 1078
f 1034 1033 1056 1057
f 1049 1048 1071 1072
f 1042 1041 1064 1065
f 1035 1034 1057 1058
f 1050 1049 1072 1073
f 1043 1042 1065 1066
f 1036 1035 1058 1059
f 1051 1050 1073 1074
f 1044 1043 1066 1067
f 1037 1036 1059 1060
f 1052 1051 1074 1075
f 1045 1044 1067 1068
f 1038 1037 1060 1061
f 1053 1052 1075 1076
f 1046 1045 1068 1069
f 1039 1038 1061 1062
f 1054 1053 1076 1077
f 1047 1046 1069 1070
f 1040 1039 1062 1063
f 1055 1054 1077 1078
f 1059 1058 1081 1082
f 1074 1073 1096 1097
f 1067 1066 1089 1090
f 1060 1059 1082 1083
f 1075 1074 1097 1098
f 1068 1067 1090 1091
f 1061 1060 1083 1084
f 1076 1075 1098 1099
f 1069 1068 1091 1092
f 1062 1061 1084 1085
f 1077 1076 1099 1100
f 1070 1069 1092 1093
f 1063 1062 1085 1086
f 1078 1077 1100 1101
f 1056 364 1079
f 1071 1070 1093 1094
f 1064 1063 1086 1087
f 825 1078 1101
f 1057 1056 1079 1080
f 1072 1071 1094 1095
f 1065 1064 1087 1088
f 1058 1057 1080 1081
f 1073 1072 1095 1096
f 1066 1065 1088 1089
f 1092 1091 1114 1115
f 1085 1084 1107 1108
f 1100 1099 1122 1123
f 1093 1092 1115 1116
f 1086 1085 1108 1109
f 1101 1100 1123 1124
f 1079 364 1102
f 1094 1093 1116 1117
f 1087 1086 1109 1110
f 825 1101 1124
f 1080 1079 1102 1103
f 1095 1094 1117 1118
f 1088 1087 1110 1111
f 1081 1080 1103 1104
f 1096 1095 1118 1119
f 1089 1088 1111 1112
f 1082 1081 1104 1105
f 1097 1096 1119 1120
f 1090 1089 1112 1113
f 1083 1082 1105 1106
f 1098 1097 1120 1121
f 1091 1090 1113 1114
f 1084 1083 1106 1107
f 1099 1098 1121 1122
f 1103 1102 1125 1126
f 1118 1117 1140 1141
f 1111 1110 1133 1134
f 1104 1103 1126 1127
f 1119 1118 1141 1142
f 1112 1111 1134 1135
f 1105 1104 1127 1128
f 1120 1119 1142 1143
f 1113 1112 1135 1136
f 1106 1105 1128 1129
f 1121 1120 1143 1144
f 1114 1113 1136 1137
f 1107 1106 1129 1130
f 1122 1121 1144 1145
f 1115 1114 1137 1138
f 1108 1107 1130 1131
f 1123 1122 1145 1146
f 1116 1115 1138 1139
f 1109 1108 1131 1132
f 1124 1123 1146 1147
f 1102 364 1125
f 1117 1116 1139 1140
f 1110 1109 1132 1133
f 825 1124 1147
f 1129 1128 1151 1152
f 1144 1143 1166 1167
f 1137 1136 1159 1160
f 1130 1129 1152 1153
f 1145 1144 1167 1168
f 1138 1137 1160 1161
f 1131 1130 1153 1154
f 1146 1145 1168 1169
f 1139 1138 1161 1162
f 1132 1131 1154 1155
f 1147 1146 1169 1170
f 1125 364 1148
f 1140 1139 1162 1163
f 1133 1132 1155 1156
f 825 1147 1170
f 1126 1125 1148 1149
f 1141 1140 1163 1164
f 1134 1133 1156 1157
f 1127 1126 1149 1150
f 1142 1141 1164 1165
f 1135 1134 1157 1158
f 1128 1127 1150 1151
f 1143 1142 1165 1166
f 1136 1135 1158 1159
f 1162 1161 1184 1185
f 1155 1154 1177 1178
f 1170 1169 1192 1193
f 1148 364 1171
f 1163 1162 1185 1186
f 1156 1155 1178 1179
f 825 1170 1193
f 1149 1148 1171 1172
f 1164 1163 1186 1187
f 1157 1156 1179 1180
f 1150 1149 1172 1173
f 1165 1164 1187 1188
f 1158 1157 1180 1181
f 1151 1150 1173 1174
f 1166 1165 1188 1189
f 1159 1158 1181 1182
f 1152 1151 1174 1175
f 1167 1166 1189 1190
f 1160 1159 1182 1183
f 1153 1152 1175 1176
f 1168 1167 1190 1191
f 1161 1160 1183 1184
f 1154 1153 1176 1177
f 1169 1168 1191 1192
f 1173 1172 97 98
f 1188 1187 1200 107
f 1181 1180 103 1197
f 1174 1173 98 99
f 1189 1188 107 108
f 1182 1181 1197 1198
f 1175 1174 99 100
f 1190 1189 108 109
f 1183 1182 1198 1199
f 1176 1175 100 101
f 1191 1190 109 110
f 1184 1183 1199 104
f 1177 1176 101 1195
f 1192 1191 110 1201
f 1185 1184 104 105
f 1178 1177 1195 1196
f 1193 1192 1201 1202
f 1171 364 1194
f 1186 1185 105 106
f 1179 1178 1196 102
f 825 1193 1202
f 1172 1171 1194 97
f 1187 1186 106 1200
f 1180 1179 102 103
