# Exported by P1-R4'C make_confirmatory_meshes.py
o conf_cone_r04_d12
v 0.000000 0.400000 -0.600000
v 0.052210 0.396578 -0.600000
v 0.103528 0.386370 -0.600000
v 0.153073 0.369552 -0.600000
v 0.200000 0.346410 -0.600000
v 0.243505 0.317341 -0.600000
v 0.282843 0.282843 -0.600000
v 0.317341 0.243505 -0.600000
v 0.346410 0.200000 -0.600000
v 0.369552 0.153073 -0.600000
v 0.386370 0.103528 -0.600000
v 0.396578 0.052210 -0.600000
v 0.400000 0.000000 -0.600000
v 0.396578 -0.052210 -0.600000
v 0.386370 -0.103528 -0.600000
v 0.369552 -0.153073 -0.600000
v 0.346410 -0.200000 -0.600000
v 0.317341 -0.243505 -0.600000
v 0.282843 -0.282843 -0.600000
v 0.243505 -0.317341 -0.600000
v 0.200000 -0.346410 -0.600000
v 0.153073 -0.369552 -0.600000
v 0.103528 -0.386370 -0.600000
v 0.052210 -0.396578 -0.600000
v 0.000000 -0.400000 -0.600000
v -0.052210 -0.396578 -0.600000
v -0.103528 -0.386370 -0.600000
v -0.153073 -0.369552 -0.600000
v -0.200000 -0.346410 -0.600000
v -0.243505 -0.317341 -0.600000
v -0.282843 -0.282843 -0.600000
v -0.317341 -0.243505 -0.600000
v -0.346410 -0.200000 -0.600000
v -0.369552 -0.153073 -0.600000
v -0.386370 -0.103528 -0.600000
v -0.396578 -0.052210 -0.600000
v -0.400000 0.000000 -0.600000
v -0.396578 0.052210 -0.600000
v -0.386370 0.103528 -0.600000
v -0.369552 0.153073 -0.600000
v -0.346410 0.200000 -0.600000
v -0.317341 0.243505 -0.600000
v -0.282843 0.282843 -0.600000
v -0.243505 0.317341 -0.600000
v -0.200000 0.346410 -0.600000
v -0.153073 0.369552 -0.600000
v -0.103528 0.386370 -0.600000
v -0.052210 0.396578 -0.600000
v 0.000000 0.000000 0.600000
f 1 49 2
f 2 49 3
f 3 49 4
f 4 49 5
f 5 49 6
f 6 49 7
f 7 49 8
f 8 49 9
f 9 49 10
f 10 49 11
f 11 49 12
f 12 49 13
f 13 49 14
f 14 49 15
f 15 49 16
f 16 49 17
f 17 49 18
f 18 49 19
f 19 49 20
f 20 49 21
f 21 49 22
f 22 49 23
f 23 49 24
f 24 49 25
f 25 49 26
f 26 49 27
f 27 49 28
f 28 49 29
f 29 49 30
f 30 49 31
f 31 49 32
f 32 49 33
f 33 49 34
f 34 49 35
f 35 49 36
f 36 49 37
f 37 49 38
f 38 49 39
f 39 49 40
f 40 49 41
f 41 49 42
f 42 49 43
f 43 49 44
f 44 49 45
f 45 49 46
f 46 49 47
f 1 2 3 4 5 6 7 8 9 10 11 12 13 14 15 16 17 18 19 20 21 22 23 24 25 26 27 28 29 30 31 32 33 34 35 36 37 38 39 40 41 42 43 44 45 46 47 48
f 47 49 48
f 48 49 1
