# Exported by R4pp make_controlled_geometry_meshes.py
o A_prism8
v 0.000000 0.550000 -0.550000
v 0.000000 0.550000 0.550000
v 0.388909 0.388909 -0.550000
v 0.388909 0.388909 0.550000
v 0.550000 0.000000 -0.550000
v 0.550000 0.000000 0.550000
v 0.388909 -0.388909 -0.550000
v 0.388909 -0.388909 0.550000
v 0.000000 -0.550000 -0.550000
v 0.000000 -0.550000 0.550000
v -0.388909 -0.388909 -0.550000
v -0.388909 -0.388909 0.550000
v -0.550000 0.000000 -0.550000
v -0.550000 0.000000 0.550000
v -0.388909 0.388909 -0.550000
v -0.388909 0.388909 0.550000
f 1 2 4 3
f 3 4 6 5
f 5 6 8 7
f 7 8 10 9
f 9 10 12 11
f 11 12 14 13
f 4 2 16 14 12 10 8 6
f 13 14 16 15
f 15 16 2 1
f 1 3 5 7 9 11 13 15
