# Exported by R4pp make_controlled_geometry_meshes.py
o B_bevel15
v 0.499950 -0.500000 -0.500000
v -0.500000 -0.500000 0.499950
v -0.500000 0.499950 -0.500000
v 0.117286 -0.500000 -0.423883
v -0.207121 -0.500000 -0.207121
v 0.117286 -0.423883 -0.500000
v -0.100674 -0.406624 -0.406624
v -0.283448 -0.415897 -0.283448
v -0.330580 -0.330580 -0.330580
v -0.500000 -0.423883 0.117286
v -0.500000 -0.207121 -0.207121
v -0.423883 -0.500000 0.117286
v -0.406624 -0.406624 -0.100674
v -0.415897 -0.283448 -0.283448
v -0.423883 0.117286 -0.500000
v -0.207121 -0.207121 -0.500000
v -0.500000 0.117286 -0.423883
v -0.406624 -0.100674 -0.406624
v -0.283448 -0.283448 -0.415897
v 0.499950 -0.500000 0.500000
v -0.500000 0.499950 0.500000
v -0.500000 -0.500000 -0.499950
v 0.117286 -0.423883 0.500000
v -0.207121 -0.207121 0.500000
v 0.117286 -0.500000 0.423883
v -0.100674 -0.406624 0.406624
v -0.283448 -0.283448 0.415897
v -0.330580 -0.330580 0.330580
v -0.500000 0.117286 0.423883
v -0.500000 -0.207121 0.207121
v -0.423883 0.117286 0.500000
v -0.406624 -0.100674 0.406624
v -0.415897 -0.283448 0.283448
v -0.423883 -0.500000 -0.117286
v -0.207121 -0.500000 0.207121
v -0.500000 -0.423883 -0.117286
v -0.406624 -0.406624 0.100674
v -0.283448 -0.415897 0.283448
v -0.500000 -0.499950 -0.500000
v -0.500000 0.500000 0.499950
v 0.499950 0.500000 -0.500000
v -0.500000 -0.117286 -0.423883
v -0.500000 0.207121 -0.207121
v -0.423883 -0.117286 -0.500000
v -0.406624 0.100674 -0.406624
v -0.415897 0.283448 -0.283448
v -0.330580 0.330580 -0.330580
v -0.423883 0.500000 0.117286
v -0.207121 0.500000 -0.207121
v -0.500000 0.423883 0.117286
v -0.406624 0.406624 -0.100674
v -0.283448 0.415897 -0.283448
v 0.117286 0.423883 -0.500000
v -0.207121 0.207121 -0.500000
v 0.117286 0.500000 -0.423883
v -0.100674 0.406624 -0.406624
v -0.283448 0.283448 -0.415897
v 0.499950 0.500000 0.500000
v -0.500000 0.500000 -0.499950
v -0.500000 -0.499950 0.500000
v 0.117286 0.500000 0.423883
v -0.207121 0.500000 0.207121
v 0.117286 0.423883 0.500000
v -0.100674 0.406624 0.406624
v -0.283448 0.415897 0.283448
v -0.330580 0.330580 0.330580
v -0.500000 0.423883 -0.117286
v -0.500000 0.207121 0.207121
v -0.423883 0.500000 -0.117286
v -0.406624 0.406624 0.100674
v -0.415897 0.283448 0.283448
v -0.423883 -0.117286 0.500000
v -0.207121 0.207121 0.500000
v -0.500000 -0.117286 0.423883
v -0.406624 0.100674 0.406624
v -0.283448 0.283448 0.415897
v 0.500000 0.499950 -0.500000
v 0.500000 -0.500000 0.499950
v -0.499950 -0.500000 -0.500000
v 0.500000 0.117286 -0.423883
v 0.500000 -0.207121 -0.207121
v 0.423883 0.117286 -0.500000
v 0.406624 -0.100674 -0.406624
v 0.415897 -0.283448 -0.283448
v 0.330580 -0.330580 -0.330580
v 0.423883 -0.500000 0.117286
v 0.207121 -0.500000 -0.207121
v 0.500000 -0.423883 0.117286
v 0.406624 -0.406624 -0.100674
v 0.283448 -0.415897 -0.283448
v -0.117286 -0.423883 -0.500000
v 0.207121 -0.207121 -0.500000
v -0.117286 -0.500000 -0.423883
v 0.100674 -0.406624 -0.406624
v 0.283448 -0.283448 -0.415897
v -0.499950 -0.500000 0.500000
v 0.500000 -0.500000 -0.499950
v 0.500000 0.499950 0.500000
v -0.117286 -0.500000 0.423883
v 0.207121 -0.500000 0.207121
v -0.117286 -0.423883 0.500000
v 0.100674 -0.406624 0.406624
v 0.283448 -0.415897 0.283448
v 0.330580 -0.330580 0.330580
v 0.500000 -0.423883 -0.117286
v 0.500000 -0.207121 0.207121
v 0.423883 -0.500000 -0.117286
v 0.406624 -0.406624 0.100674
v 0.415897 -0.283448 0.283448
v 0.423883 0.117286 0.500000
v 0.207121 -0.207121 0.500000
v 0.500000 0.117286 0.423883
v 0.406624 -0.100674 0.406624
v 0.283448 -0.283448 0.415897
v -0.499950 0.500000 -0.500000
v 0.500000 0.500000 0.499950
v 0.500000 -0.499950 -0.500000
v -0.117286 0.500000 -0.423883
v 0.207121 0.500000 -0.207121
v -0.117286 0.423883 -0.500000
v 0.100674 0.406624 -0.406624
v 0.283448 0.415897 -0.283448
v 0.330580 0.330580 -0.330580
v 0.500000 0.423883 0.117286
v 0.500000 0.207121 -0.207121
v 0.423883 0.500000 0.117286
v 0.406624 0.406624 -0.100674
v 0.415897 0.283448 -0.283448
v 0.423883 -0.117286 -0.500000
v 0.207121 0.207121 -0.500000
v 0.500000 -0.117286 -0.423883
v 0.406624 0.100674 -0.406624
v 0.283448 0.283448 -0.415897
v 0.500000 -0.499950 0.500000
v 0.500000 0.500000 -0.499950
v -0.499950 0.500000 0.500000
v 0.500000 -0.117286 0.423883
v 0.500000 0.207121 0.207121
v 0.423883 -0.117286 0.500000
v 0.406624 0.100674 0.406624
v 0.415897 0.283448 0.283448
v 0.330580 0.330580 0.330580
v 0.423883 0.500000 -0.117286
v 0.207121 0.500000 0.207121
v 0.500000 0.423883 -0.117286
v 0.406624 0.406624 0.100674
v 0.283448 0.415897 0.283448
v -0.117286 0.423883 0.500000
v 0.207121 0.207121 0.500000
v -0.117286 0.500000 0.423883
v 0.100674 0.406624 0.406624
v 0.283448 0.283448 0.415897
f 79 93 87 86 78 97 107 100 99 96 20 25 35 34 22 2 12 5 4 1
f 117 131 125 124 116 135 145 138 137 134 98 112 106 105 97 78 88 81 80 77
f 134 139 149 148 136 58 63 73 72 60 21 31 24 23 20 96 101 111 110 98
f 3 17 11 10 2 22 36 30 29 21 60 74 68 67 59 40 50 43 42 39
f 41 55 49 48 40 59 69 62 61 58 136 150 144 143 135 116 126 119 118 115
f 1 4 7 6
f 4 5 8 7
f 6 7 19 16
f 7 8 9 19
f 2 10 13 12
f 10 11 14 13
f 12 13 8 5
f 13 14 9 8
f 3 15 18 17
f 15 16 19 18
f 17 18 14 11
f 18 19 9 14
f 20 23 26 25
f 23 24 27 26
f 25 26 38 35
f 26 27 28 38
f 21 29 32 31
f 29 30 33 32
f 31 32 27 24
f 32 33 28 27
f 22 34 37 36
f 34 35 38 37
f 36 37 33 30
f 37 38 28 33
f 39 42 45 44
f 42 43 46 45
f 44 45 57 54
f 45 46 47 57
f 40 48 51 50
f 48 49 52 51
f 50 51 46 43
f 51 52 47 46
f 41 53 56 55
f 53 54 57 56
f 55 56 52 49
f 56 57 47 52
f 58 61 64 63
f 61 62 65 64
f 63 64 76 73
f 64 65 66 76
f 59 67 70 69
f 67 68 71 70
f 69 70 65 62
f 70 71 66 65
f 60 72 75 74
f 72 73 76 75
f 74 75 71 68
f 75 76 66 71
f 77 80 83 82
f 80 81 84 83
f 82 83 95 92
f 83 84 85 95
f 78 86 89 88
f 86 87 90 89
f 88 89 84 81
f 89 90 85 84
f 79 91 94 93
f 91 92 95 94
f 93 94 90 87
f 94 95 85 90
f 96 99 102 101
f 99 100 103 102
f 101 102 114 111
f 102 103 104 114
f 97 105 108 107
f 105 106 109 108
f 107 108 103 100
f 108 109 104 103
f 98 110 113 112
f 110 111 114 113
f 112 113 109 106
f 113 114 104 109
f 115 118 121 120
f 118 119 122 121
f 120 121 133 130
f 121 122 123 133
f 116 124 127 126
f 124 125 128 127
f 126 127 122 119
f 127 128 123 122
f 117 129 132 131
f 129 130 133 132
f 131 132 128 125
f 132 133 123 128
f 134 137 140 139
f 137 138 141 140
f 139 140 152 149
f 140 141 142 152
f 135 143 146 145
f 143 144 147 146
f 145 146 141 138
f 146 147 142 141
f 136 148 151 150
f 148 149 152 151
f 150 151 147 144
f 151 152 142 147
f 39 44 54 53 41 115 120 130 129 117 77 82 92 91 79 1 6 16 15 3
