# Exported by R4pp make_controlled_geometry_meshes.py
o B_bevel30
v 0.499950 -0.500000 -0.500000
v -0.500000 -0.500000 0.499950
v -0.500000 0.499950 -0.500000
v 0.304869 -0.500000 -0.480786
v 0.117286 -0.500000 -0.423883
v -0.055592 -0.500000 -0.331478
v -0.207121 -0.500000 -0.207121
v 0.304869 -0.480786 -0.500000
v 0.154618 -0.459043 -0.464904
v 0.006727 -0.457626 -0.417168
v -0.128944 -0.459172 -0.344156
v -0.246062 -0.460685 -0.246921
v 0.117286 -0.423883 -0.500000
v 0.009762 -0.408378 -0.459091
v -0.098013 -0.410141 -0.412339
v -0.196210 -0.415766 -0.353900
v -0.281970 -0.419543 -0.282184
v -0.055592 -0.331478 -0.500000
v -0.126516 -0.338296 -0.459172
v -0.195603 -0.352435 -0.415766
v -0.257606 -0.367206 -0.367206
v -0.314237 -0.374749 -0.314237
v -0.335029 -0.335029 -0.335029
v -0.500000 -0.480786 0.304869
v -0.500000 -0.423883 0.117286
v -0.500000 -0.331478 -0.055592
v -0.500000 -0.207121 -0.207121
v -0.480786 -0.500000 0.304869
v -0.459043 -0.464904 0.154618
v -0.457626 -0.417168 0.006727
v -0.459172 -0.344156 -0.128944
v -0.460685 -0.246921 -0.246062
v -0.423883 -0.500000 0.117286
v -0.408378 -0.459091 0.009762
v -0.410141 -0.412339 -0.098013
v -0.415766 -0.353900 -0.196210
v -0.419543 -0.282184 -0.281970
v -0.331478 -0.500000 -0.055592
v -0.338296 -0.459172 -0.126516
v -0.352435 -0.415766 -0.195603
v -0.367206 -0.367206 -0.257606
v -0.374749 -0.314237 -0.314237
v -0.480786 0.304869 -0.500000
v -0.423883 0.117286 -0.500000
v -0.331478 -0.055592 -0.500000
v -0.207121 -0.207121 -0.500000
v -0.500000 0.304869 -0.480786
v -0.464904 0.154618 -0.459043
v -0.417168 0.006727 -0.457626
v -0.344156 -0.128944 -0.459172
v -0.246921 -0.246062 -0.460685
v -0.500000 0.117286 -0.423883
v -0.459091 0.009762 -0.408378
v -0.412339 -0.098013 -0.410141
v -0.353900 -0.196210 -0.415766
v -0.282184 -0.281970 -0.419543
v -0.500000 -0.055592 -0.331478
v -0.459172 -0.126516 -0.338296
v -0.415766 -0.195603 -0.352435
v -0.367206 -0.257606 -0.367206
v -0.314237 -0.314237 -0.374749
v 0.499950 -0.500000 0.500000
v -0.500000 0.499950 0.500000
v -0.500000 -0.500000 -0.499950
v 0.304869 -0.480786 0.500000
v 0.117286 -0.423883 0.500000
v -0.055592 -0.331478 0.500000
v -0.207121 -0.207121 0.500000
v 0.304869 -0.500000 0.480786
v 0.154618 -0.464904 0.459043
v 0.006727 -0.417168 0.457626
v -0.128944 -0.344156 0.459172
v -0.246062 -0.246921 0.460685
v 0.117286 -0.500000 0.423883
v 0.009762 -0.459091 0.408378
v -0.098013 -0.412339 0.410141
v -0.196210 -0.353900 0.415766
v -0.281970 -0.282184 0.419543
v -0.055592 -0.500000 0.331478
v -0.126516 -0.459172 0.338296
v -0.195603 -0.415766 0.352435
v -0.257606 -0.367206 0.367206
v -0.314237 -0.314237 0.374749
v -0.335029 -0.335029 0.335029
v -0.500000 0.304869 0.480786
v -0.500000 0.117286 0.423883
v -0.500000 -0.055592 0.331478
v -0.500000 -0.207121 0.207121
v -0.480786 0.304869 0.500000
v -0.459043 0.154618 0.464904
v -0.457626 0.006727 0.417168
v -0.459172 -0.128944 0.344156
v -0.460685 -0.246062 0.246921
v -0.423883 0.117286 0.500000
v -0.408378 0.009762 0.459091
v -0.410141 -0.098013 0.412339
v -0.415766 -0.196210 0.353900
v -0.419543 -0.281970 0.282184
v -0.331478 -0.055592 0.500000
v -0.338296 -0.126516 0.459172
v -0.352435 -0.195603 0.415766
v -0.367206 -0.257606 0.367206
v -0.374749 -0.314237 0.314237
v -0.480786 -0.500000 -0.304869
v -0.423883 -0.500000 -0.117286
v -0.331478 -0.500000 0.055592
v -0.207121 -0.500000 0.207121
v -0.500000 -0.480786 -0.304869
v -0.464904 -0.459043 -0.154618
v -0.417168 -0.457626 -0.006727
v -0.344156 -0.459172 0.128944
v -0.246921 -0.460685 0.246062
v -0.500000 -0.423883 -0.117286
v -0.459091 -0.408378 -0.009762
v -0.412339 -0.410141 0.098013
v -0.353900 -0.415766 0.196210
v -0.282184 -0.419543 0.281970
v -0.500000 -0.331478 0.055592
v -0.459172 -0.338296 0.126516
v -0.415766 -0.352435 0.195603
v -0.367206 -0.367206 0.257606
v -0.314237 -0.374749 0.314237
v -0.500000 -0.499950 -0.500000
v -0.500000 0.500000 0.499950
v 0.499950 0.500000 -0.500000
v -0.500000 -0.304869 -0.480786
v -0.500000 -0.117286 -0.423883
v -0.500000 0.055592 -0.331478
v -0.500000 0.207121 -0.207121
v -0.480786 -0.304869 -0.500000
v -0.459043 -0.154618 -0.464904
v -0.457626 -0.006727 -0.417168
v -0.459172 0.128944 -0.344156
v -0.460685 0.246062 -0.246921
v -0.423883 -0.117286 -0.500000
v -0.408378 -0.009762 -0.459091
v -0.410141 0.098013 -0.412339
v -0.415766 0.196210 -0.353900
v -0.419543 0.281970 -0.282184
v -0.331478 0.055592 -0.500000
v -0.338296 0.126516 -0.459172
v -0.352435 0.195603 -0.415766
v -0.367206 0.257606 -0.367206
v -0.374749 0.314237 -0.314237
v -0.335029 0.335029 -0.335029
v -0.480786 0.500000 0.304869
v -0.423883 0.500000 0.117286
v -0.331478 0.500000 -0.055592
v -0.207121 0.500000 -0.207121
v -0.500000 0.480786 0.304869
v -0.464904 0.459043 0.154618
v -0.417168 0.457626 0.006727
v -0.344156 0.459172 -0.128944
v -0.246921 0.460685 -0.246062
v -0.500000 0.423883 0.117286
v -0.459091 0.408378 0.009762
v -0.412339 0.410141 -0.098013
v -0.353900 0.415766 -0.196210
v -0.282184 0.419543 -0.281970
v -0.500000 0.331478 -0.055592
v -0.459172 0.338296 -0.126516
v -0.415766 0.352435 -0.195603
v -0.367206 0.367206 -0.257606
v -0.314237 0.374749 -0.314237
v 0.304869 0.480786 -0.500000
v 0.117286 0.423883 -0.500000
v -0.055592 0.331478 -0.500000
v -0.207121 0.207121 -0.500000
v 0.304869 0.500000 -0.480786
v 0.154618 0.464904 -0.459043
v 0.006727 0.417168 -0.457626
v -0.128944 0.344156 -0.459172
v -0.246062 0.246921 -0.460685
v 0.117286 0.500000 -0.423883
v 0.009762 0.459091 -0.408378
v -0.098013 0.412339 -0.410141
v -0.196210 0.353900 -0.415766
v -0.281970 0.282184 -0.419543
v -0.055592 0.500000 -0.331478
v -0.126516 0.459172 -0.338296
v -0.195603 0.415766 -0.352435
v -0.257606 0.367206 -0.367206
v -0.314237 0.314237 -0.374749
v 0.499950 0.500000 0.500000
v -0.500000 0.500000 -0.499950
v -0.500000 -0.499950 0.500000
v 0.304869 0.500000 0.480786
v 0.117286 0.500000 0.423883
v -0.055592 0.500000 0.331478
v -0.207121 0.500000 0.207121
v 0.304869 0.480786 0.500000
v 0.154618 0.459043 0.464904
v 0.006727 0.457626 0.417168
v -0.128944 0.459172 0.344156
v -0.246062 0.460685 0.246921
v 0.117286 0.423883 0.500000
v 0.009762 0.408378 0.459091
v -0.098013 0.410141 0.412339
v -0.196210 0.415766 0.353900
v -0.281970 0.419543 0.282184
v -0.055592 0.331478 0.500000
v -0.126516 0.338296 0.459172
v -0.195603 0.352435 0.415766
v -0.257606 0.367206 0.367206
v -0.314237 0.374749 0.314237
v -0.335029 0.335029 0.335029
v -0.500000 0.480786 -0.304869
v -0.500000 0.423883 -0.117286
v -0.500000 0.331478 0.055592
v -0.500000 0.207121 0.207121
v -0.480786 0.500000 -0.304869
v -0.459043 0.464904 -0.154618
v -0.457626 0.417168 -0.006727
v -0.459172 0.344156 0.128944
v -0.460685 0.246921 0.246062
v -0.423883 0.500000 -0.117286
v -0.408378 0.459091 -0.009762
v -0.410141 0.412339 0.098013
v -0.415766 0.353900 0.196210
v -0.419543 0.282184 0.281970
v -0.331478 0.500000 0.055592
v -0.338296 0.459172 0.126516
v -0.352435 0.415766 0.195603
v -0.367206 0.367206 0.257606
v -0.374749 0.314237 0.314237
v -0.480786 -0.304869 0.500000
v -0.423883 -0.117286 0.500000
v -0.331478 0.055592 0.500000
v -0.207121 0.207121 0.500000
v -0.500000 -0.304869 0.480786
v -0.464904 -0.154618 0.459043
v -0.417168 -0.006727 0.457626
v -0.344156 0.128944 0.459172
v -0.246921 0.246062 0.460685
v -0.500000 -0.117286 0.423883
v -0.459091 -0.009762 0.408378
v -0.412339 0.098013 0.410141
v -0.353900 0.196210 0.415766
v -0.282184 0.281970 0.419543
v -0.500000 0.055592 0.331478
v -0.459172 0.126516 0.338296
v -0.415766 0.195603 0.352435
v -0.367206 0.257606 0.367206
v -0.314237 0.314237 0.374749
v 0.500000 0.499950 -0.500000
v 0.500000 -0.500000 0.499950
v -0.499950 -0.500000 -0.500000
v 0.500000 0.304869 -0.480786
v 0.500000 0.117286 -0.423883
v 0.500000 -0.055592 -0.331478
v 0.500000 -0.207121 -0.207121
v 0.480786 0.304869 -0.500000
v 0.459043 0.154618 -0.464904
v 0.457626 0.006727 -0.417168
v 0.459172 -0.128944 -0.344156
v 0.460685 -0.246062 -0.246921
v 0.423883 0.117286 -0.500000
v 0.408378 0.009762 -0.459091
v 0.410141 -0.098013 -0.412339
v 0.415766 -0.196210 -0.353900
v 0.419543 -0.281970 -0.282184
v 0.331478 -0.055592 -0.500000
v 0.338296 -0.126516 -0.459172
v 0.352435 -0.195603 -0.415766
v 0.367206 -0.257606 -0.367206
v 0.374749 -0.314237 -0.314237
v 0.335029 -0.335029 -0.335029
v 0.480786 -0.500000 0.304869
v 0.423883 -0.500000 0.117286
v 0.331478 -0.500000 -0.055592
v 0.207121 -0.500000 -0.207121
v 0.500000 -0.480786 0.304869
v 0.464904 -0.459043 0.154618
v 0.417168 -0.457626 0.006727
v 0.344156 -0.459172 -0.128944
v 0.246921 -0.460685 -0.246062
v 0.500000 -0.423883 0.117286
v 0.459091 -0.408378 0.009762
v 0.412339 -0.410141 -0.098013
v 0.353900 -0.415766 -0.196210
v 0.282184 -0.419543 -0.281970
v 0.500000 -0.331478 -0.055592
v 0.459172 -0.338296 -0.126516
v 0.415766 -0.352435 -0.195603
v 0.367206 -0.367206 -0.257606
v 0.314237 -0.374749 -0.314237
v -0.304869 -0.480786 -0.500000
v -0.117286 -0.423883 -0.500000
v 0.055592 -0.331478 -0.500000
v 0.207121 -0.207121 -0.500000
v -0.304869 -0.500000 -0.480786
v -0.154618 -0.464904 -0.459043
v -0.006727 -0.417168 -0.457626
v 0.128944 -0.344156 -0.459172
v 0.246062 -0.246921 -0.460685
v -0.117286 -0.500000 -0.423883
v -0.009762 -0.459091 -0.408378
v 0.098013 -0.412339 -0.410141
v 0.196210 -0.353900 -0.415766
v 0.281970 -0.282184 -0.419543
v 0.055592 -0.500000 -0.331478
v 0.126516 -0.459172 -0.338296
v 0.195603 -0.415766 -0.352435
v 0.257606 -0.367206 -0.367206
v 0.314237 -0.314237 -0.374749
v -0.499950 -0.500000 0.500000
v 0.500000 -0.500000 -0.499950
v 0.500000 0.499950 0.500000
v -0.304869 -0.500000 0.480786
v -0.117286 -0.500000 0.423883
v 0.055592 -0.500000 0.331478
v 0.207121 -0.500000 0.207121
v -0.304869 -0.480786 0.500000
v -0.154618 -0.459043 0.464904
v -0.006727 -0.457626 0.417168
v 0.128944 -0.459172 0.344156
v 0.246062 -0.460685 0.246921
v -0.117286 -0.423883 0.500000
v -0.009762 -0.408378 0.459091
v 0.098013 -0.410141 0.412339
v 0.196210 -0.415766 0.353900
v 0.281970 -0.419543 0.282184
v 0.055592 -0.331478 0.500000
v 0.126516 -0.338296 0.459172
v 0.195603 -0.352435 0.415766
v 0.257606 -0.367206 0.367206
v 0.314237 -0.374749 0.314237
v 0.335029 -0.335029 0.335029
v 0.500000 -0.480786 -0.304869
v 0.500000 -0.423883 -0.117286
v 0.500000 -0.331478 0.055592
v 0.500000 -0.207121 0.207121
v 0.480786 -0.500000 -0.304869
v 0.459043 -0.464904 -0.154618
v 0.457626 -0.417168 -0.006727
v 0.459172 -0.344156 0.128944
v 0.460685 -0.246921 0.246062
v 0.423883 -0.500000 -0.117286
v 0.408378 -0.459091 -0.009762
v 0.410141 -0.412339 0.098013
v 0.415766 -0.353900 0.196210
v 0.419543 -0.282184 0.281970
v 0.331478 -0.500000 0.055592
v 0.338296 -0.459172 0.126516
v 0.352435 -0.415766 0.195603
v 0.367206 -0.367206 0.257606
v 0.374749 -0.314237 0.314237
v 0.480786 0.304869 0.500000
v 0.423883 0.117286 0.500000
v 0.331478 -0.055592 0.500000
v 0.207121 -0.207121 0.500000
v 0.500000 0.304869 0.480786
v 0.464904 0.154618 0.459043
v 0.417168 0.006727 0.457626
v 0.344156 -0.128944 0.459172
v 0.246921 -0.246062 0.460685
v 0.500000 0.117286 0.423883
v 0.459091 0.009762 0.408378
v 0.412339 -0.098013 0.410141
v 0.353900 -0.196210 0.415766
v 0.282184 -0.281970 0.419543
v 0.500000 -0.055592 0.331478
v 0.459172 -0.126516 0.338296
v 0.415766 -0.195603 0.352435
v 0.367206 -0.257606 0.367206
v 0.314237 -0.314237 0.374749
v -0.499950 0.500000 -0.500000
v 0.500000 0.500000 0.499950
v 0.500000 -0.499950 -0.500000
v -0.304869 0.500000 -0.480786
v -0.117286 0.500000 -0.423883
v 0.055592 0.500000 -0.331478
v 0.207121 0.500000 -0.207121
v -0.304869 0.480786 -0.500000
v -0.154618 0.459043 -0.464904
v -0.006727 0.457626 -0.417168
v 0.128944 0.459172 -0.344156
v 0.246062 0.460685 -0.246921
v -0.117286 0.423883 -0.500000
v -0.009762 0.408378 -0.459091
v 0.098013 0.410141 -0.412339
v 0.196210 0.415766 -0.353900
v 0.281970 0.419543 -0.282184
v 0.055592 0.331478 -0.500000
v 0.126516 0.338296 -0.459172
v 0.195603 0.352435 -0.415766
v 0.257606 0.367206 -0.367206
v 0.314237 0.374749 -0.314237
v 0.335029 0.335029 -0.335029
v 0.500000 0.480786 0.304869
v 0.500000 0.423883 0.117286
v 0.500000 0.331478 -0.055592
v 0.500000 0.207121 -0.207121
v 0.480786 0.500000 0.304869
v 0.459043 0.464904 0.154618
v 0.457626 0.417168 0.006727
v 0.459172 0.344156 -0.128944
v 0.460685 0.246921 -0.246062
v 0.423883 0.500000 0.117286
v 0.408378 0.459091 0.009762
v 0.410141 0.412339 -0.098013
v 0.415766 0.353900 -0.196210
v 0.419543 0.282184 -0.281970
v 0.331478 0.500000 -0.055592
v 0.338296 0.459172 -0.126516
v 0.352435 0.415766 -0.195603
v 0.367206 0.367206 -0.257606
v 0.374749 0.314237 -0.314237
v 0.480786 -0.304869 -0.500000
v 0.423883 -0.117286 -0.500000
v 0.331478 0.055592 -0.500000
v 0.207121 0.207121 -0.500000
v 0.500000 -0.304869 -0.480786
v 0.464904 -0.154618 -0.459043
v 0.417168 -0.006727 -0.457626
v 0.344156 0.128944 -0.459172
v 0.246921 0.246062 -0.460685
v 0.500000 -0.117286 -0.423883
v 0.459091 -0.009762 -0.408378
v 0.412339 0.098013 -0.410141
v 0.353900 0.196210 -0.415766
v 0.282184 0.281970 -0.419543
v 0.500000 0.055592 -0.331478
v 0.459172 0.126516 -0.338296
v 0.415766 0.195603 -0.352435
v 0.367206 0.257606 -0.367206
v 0.314237 0.314237 -0.374749
v 0.500000 -0.499950 0.500000
v 0.500000 0.500000 -0.499950
v -0.499950 0.500000 0.500000
v 0.500000 -0.304869 0.480786
v 0.500000 -0.117286 0.423883
v 0.500000 0.055592 0.331478
v 0.500000 0.207121 0.207121
v 0.480786 -0.304869 0.500000
v 0.459043 -0.154618 0.464904
v 0.457626 -0.006727 0.417168
v 0.459172 0.128944 0.344156
v 0.460685 0.246062 0.246921
v 0.423883 -0.117286 0.500000
v 0.408378 -0.009762 0.459091
v 0.410141 0.098013 0.412339
v 0.415766 0.196210 0.353900
v 0.419543 0.281970 0.282184
v 0.331478 0.055592 0.500000
v 0.338296 0.126516 0.459172
v 0.352435 0.195603 0.415766
v 0.367206 0.257606 0.367206
v 0.374749 0.314237 0.314237
v 0.335029 0.335029 0.335029
v 0.480786 0.500000 -0.304869
v 0.423883 0.500000 -0.117286
v 0.331478 0.500000 0.055592
v 0.207121 0.500000 0.207121
v 0.500000 0.480786 -0.304869
v 0.464904 0.459043 -0.154618
v 0.417168 0.457626 -0.006727
v 0.344156 0.459172 0.128944
v 0.246921 0.460685 0.246062
v 0.500000 0.423883 -0.117286
v 0.459091 0.408378 -0.009762
v 0.412339 0.410141 0.098013
v 0.353900 0.415766 0.196210
v 0.282184 0.419543 0.281970
v 0.500000 0.331478 0.055592
v 0.459172 0.338296 0.126516
v 0.415766 0.352435 0.195603
v 0.367206 0.367206 0.257606
v 0.314237 0.374749 0.314237
v -0.304869 0.480786 0.500000
v -0.117286 0.423883 0.500000
v 0.055592 0.331478 0.500000
v 0.207121 0.207121 0.500000
v -0.304869 0.500000 0.480786
v -0.154618 0.464904 0.459043
v -0.006727 0.417168 0.457626
v 0.128944 0.344156 0.459172
v 0.246062 0.246921 0.460685
v -0.117286 0.500000 0.423883
v -0.009762 0.459091 0.408378
v 0.098013 0.412339 0.410141
v 0.196210 0.353900 0.415766
v 0.281970 0.282184 0.419543
v 0.055592 0.500000 0.331478
v 0.126516 0.459172 0.338296
v 0.195603 0.415766 0.352435
v 0.257606 0.367206 0.367206
v 0.314237 0.314237 0.374749
f 247 291 296 301 271 270 269 268 246 307 333 338 343 312 311 310 309 306 62 69 74 79 107 106 105 104 64 2 28 33 38 7 6 5 4 1
f 369 413 418 423 393 392 391 390 368 429 455 460 465 434 433 432 431 428 308 352 357 362 332 331 330 329 307 246 272 277 282 251 250 249 248 245
f 428 435 440 445 473 472 471 470 430 184 191 196 201 229 228 227 226 186 63 89 94 99 68 67 66 65 62 306 313 318 323 351 350 349 348 308
f 3 47 52 57 27 26 25 24 2 64 108 113 118 88 87 86 85 63 186 230 235 240 210 209 208 207 185 124 150 155 160 129 128 127 126 123
f 125 169 174 179 149 148 147 146 124 185 211 216 221 190 189 188 187 184 430 474 479 484 454 453 452 451 429 368 394 399 404 373 372 371 370 367
f 1 4 9 8
f 4 5 10 9
f 5 6 11 10
f 6 7 12 11
f 8 9 14 13
f 9 10 15 14
f 10 11 16 15
f 11 12 17 16
f 13 14 19 18
f 14 15 20 19
f 15 16 21 20
f 16 17 22 21
f 18 19 51 46
f 19 20 56 51
f 20 21 61 56
f 21 22 23 61
f 2 24 29 28
f 24 25 30 29
f 25 26 31 30
f 26 27 32 31
f 28 29 34 33
f 29 30 35 34
f 30 31 36 35
f 31 32 37 36
f 33 34 39 38
f 34 35 40 39
f 35 36 41 40
f 36 37 42 41
f 38 39 12 7
f 39 40 17 12
f 40 41 22 17
f 41 42 23 22
f 3 43 48 47
f 43 44 49 48
f 44 45 50 49
f 45 46 51 50
f 47 48 53 52
f 48 49 54 53
f 49 50 55 54
f 50 51 56 55
f 52 53 58 57
f 53 54 59 58
f 54 55 60 59
f 55 56 61 60
f 57 58 32 27
f 58 59 37 32
f 59 60 42 37
f 60 61 23 42
f 62 65 70 69
f 65 66 71 70
f 66 67 72 71
f 67 68 73 72
f 69 70 75 74
f 70 71 76 75
f 71 72 77 76
f 72 73 78 77
f 74 75 80 79
f 75 76 81 80
f 76 77 82 81
f 77 78 83 82
f 79 80 112 107
f 80 81 117 112
f 81 82 122 117
f 82 83 84 122
f 63 85 90 89
f 85 86 91 90
f 86 87 92 91
f 87 88 93 92
f 89 90 95 94
f 90 91 96 95
f 91 92 97 96
f 92 93 98 97
f 94 95 100 99
f 95 96 101 100
f 96 97 102 101
f 97 98 103 102
f 99 100 73 68
f 100 101 78 73
f 101 102 83 78
f 102 103 84 83
f 64 104 109 108
f 104 105 110 109
f 105 106 111 110
f 106 107 112 111
f 108 109 114 113
f 109 110 115 114
f 110 111 116 115
f 111 112 117 116
f 113 114 119 118
f 114 115 120 119
f 115 116 121 120
f 116 117 122 121
f 118 119 93 88
f 119 120 98 93
f 120 121 103 98
f 121 122 84 103
f 123 126 131 130
f 126 127 132 131
f 127 128 133 132
f 128 129 134 133
f 130 131 136 135
f 131 132 137 136
f 132 133 138 137
f 133 134 139 138
f 135 136 141 140
f 136 137 142 141
f 137 138 143 142
f 138 139 144 143
f 140 141 173 168
f 141 142 178 173
f 142 143 183 178
f 143 144 145 183
f 124 146 151 150
f 146 147 152 151
f 147 148 153 152
f 148 149 154 153
f 150 151 156 155
f 151 152 157 156
f 152 153 158 157
f 153 154 159 158
f 155 156 161 160
f 156 157 162 161
f 157 158 163 162
f 158 159 164 163
f 160 161 134 129
f 161 162 139 134
f 162 163 144 139
f 163 164 145 144
f 125 165 170 169
f 165 166 171 170
f 166 167 172 171
f 167 168 173 172
f 169 170 175 174
f 170 171 176 175
f 171 172 177 176
f 172 173 178 177
f 174 175 180 179
f 175 176 181 180
f 176 177 182 181
f 177 178 183 182
f 179 180 154 149
f 180 181 159 154
f 181 182 164 159
f 182 183 145 164
f 184 187 192 191
f 187 188 193 192
f 188 189 194 193
f 189 190 195 194
f 191 192 197 196
f 192 193 198 197
f 193 194 199 198
f 194 195 200 199
f 196 197 202 201
f 197 198 203 202
f 198 199 204 203
f 199 200 205 204
f 201 202 234 229
f 202 203 239 234
f 203 204 244 239
f 204 205 206 244
f 185 207 212 211
f 207 208 213 212
f 208 209 214 213
f 209 210 215 214
f 211 212 217 216
f 212 213 218 217
f 213 214 219 218
f 214 215 220 219
f 216 217 222 221
f 217 218 223 222
f 218 219 224 223
f 219 220 225 224
f 221 222 195 190
f 222 223 200 195
f 223 224 205 200
f 224 225 206 205
f 186 226 231 230
f 226 227 232 231
f 227 228 233 232
f 228 229 234 233
f 230 231 236 235
f 231 232 237 236
f 232 233 238 237
f 233 234 239 238
f 235 236 241 240
f 236 237 242 241
f 237 238 243 242
f 238 239 244 243
f 240 241 215 210
f 241 242 220 215
f 242 243 225 220
f 243 244 206 225
f 245 248 253 252
f 248 249 254 253
f 249 250 255 254
f 250 251 256 255
f 252 253 258 257
f 253 254 259 258
f 254 255 260 259
f 255 256 261 260
f 257 258 263 262
f 258 259 264 263
f 259 260 265 264
f 260 261 266 265
f 262 263 295 290
f 263 264 300 295
f 264 265 305 300
f 265 266 267 305
f 246 268 273 272
f 268 269 274 273
f 269 270 275 274
f 270 271 276 275
f 272 273 278 277
f 273 274 279 278
f 274 275 280 279
f 275 276 281 280
f 277 278 283 282
f 278 279 284 283
f 279 280 285 284
f 280 281 286 285
f 282 283 256 251
f 283 284 261 256
f 284 285 266 261
f 285 286 267 266
f 247 287 292 291
f 287 288 293 292
f 288 289 294 293
f 289 290 295 294
f 291 292 297 296
f 292 293 298 297
f 293 294 299 298
f 294 295 300 299
f 296 297 302 301
f 297 298 303 302
f 298 299 304 303
f 299 300 305 304
f 301 302 276 271
f 302 303 281 276
f 303 304 286 281
f 304 305 267 286
f 306 309 314 313
f 309 310 315 314
f 310 311 316 315
f 311 312 317 316
f 313 314 319 318
f 314 315 320 319
f 315 316 321 320
f 316 317 322 321
f 318 319 324 323
f 319 320 325 324
f 320 321 326 325
f 321 322 327 326
f 323 324 356 351
f 324 325 361 356
f 325 326 366 361
f 326 327 328 366
f 307 329 334 333
f 329 330 335 334
f 330 331 336 335
f 331 332 337 336
f 333 334 339 338
f 334 335 340 339
f 335 336 341 340
f 336 337 342 341
f 338 339 344 343
f 339 340 345 344
f 340 341 346 345
f 341 342 347 346
f 343 344 317 312
f 344 345 322 317
f 345 346 327 322
f 346 347 328 327
f 308 348 353 352
f 348 349 354 353
f 349 350 355 354
f 350 351 356 355
f 352 353 358 357
f 353 354 359 358
f 354 355 360 359
f 355 356 361 360
f 357 358 363 362
f 358 359 364 363
f 359 360 365 364
f 360 361 366 365
f 362 363 337 332
f 363 364 342 337
f 364 365 347 342
f 365 366 328 347
f 367 370 375 374
f 370 371 376 375
f 371 372 377 376
f 372 373 378 377
f 374 375 380 379
f 375 376 381 380
f 376 377 382 381
f 377 378 383 382
f 379 380 385 384
f 380 381 386 385
f 381 382 387 386
f 382 383 388 387
f 384 385 417 412
f 385 386 422 417
f 386 387 427 422
f 387 388 389 427
f 368 390 395 394
f 390 391 396 395
f 391 392 397 396
f 392 393 398 397
f 394 395 400 399
f 395 396 401 400
f 396 397 402 401
f 397 398 403 402
f 399 400 405 404
f 400 401 406 405
f 401 402 407 406
f 402 403 408 407
f 404 405 378 373
f 405 406 383 378
f 406 407 388 383
f 407 408 389 388
f 369 409 414 413
f 409 410 415 414
f 410 411 416 415
f 411 412 417 416
f 413 414 419 418
f 414 415 420 419
f 415 416 421 420
f 416 417 422 421
f 418 419 424 423
f 419 420 425 424
f 420 421 426 425
f 421 422 427 426
f 423 424 398 393
f 424 425 403 398
f 425 426 408 403
f 426 427 389 408
f 428 431 436 435
f 431 432 437 436
f 432 433 438 437
f 433 434 439 438
f 435 436 441 440
f 436 437 442 441
f 437 438 443 442
f 438 439 444 443
f 440 441 446 445
f 441 442 447 446
f 442 443 448 447
f 443 444 449 448
f 445 446 478 473
f 446 447 483 478
f 447 448 488 483
f 448 449 450 488
f 429 451 456 455
f 451 452 457 456
f 452 453 458 457
f 453 454 459 458
f 455 456 461 460
f 456 457 462 461
f 457 458 463 462
f 458 459 464 463
f 460 461 466 465
f 461 462 467 466
f 462 463 468 467
f 463 464 469 468
f 465 466 439 434
f 466 467 444 439
f 467 468 449 444
f 468 469 450 449
f 430 470 475 474
f 470 471 476 475
f 471 472 477 476
f 472 473 478 477
f 474 475 480 479
f 475 476 481 480
f 476 477 482 481
f 477 478 483 482
f 479 480 485 484
f 480 481 486 485
f 481 482 487 486
f 482 483 488 487
f 484 485 459 454
f 485 486 464 459
f 486 487 469 464
f 487 488 450 469
f 123 130 135 140 168 167 166 165 125 367 374 379 384 412 411 410 409 369 245 252 257 262 290 289 288 287 247 1 8 13 18 46 45 44 43 3
