# Exported by R4pp make_controlled_geometry_meshes.py
o B_bevel05
v 0.499950 -0.500000 -0.500000
v -0.500000 -0.500000 0.499950
v -0.500000 0.499950 -0.500000
v -0.207121 -0.500000 -0.207121
v -0.331710 -0.331710 -0.331710
v -0.500000 -0.207121 -0.207121
v -0.207121 -0.207121 -0.500000
v 0.499950 -0.500000 0.500000
v -0.500000 0.499950 0.500000
v -0.500000 -0.500000 -0.499950
v -0.207121 -0.207121 0.500000
v -0.331710 -0.331710 0.331710
v -0.500000 -0.207121 0.207121
v -0.207121 -0.500000 0.207121
v -0.500000 -0.499950 -0.500000
v -0.500000 0.500000 0.499950
v 0.499950 0.500000 -0.500000
v -0.500000 0.207121 -0.207121
v -0.331710 0.331710 -0.331710
v -0.207121 0.500000 -0.207121
v -0.207121 0.207121 -0.500000
v 0.499950 0.500000 0.500000
v -0.500000 0.500000 -0.499950
v -0.500000 -0.499950 0.500000
v -0.207121 0.500000 0.207121
v -0.331710 0.331710 0.331710
v -0.500000 0.207121 0.207121
v -0.207121 0.207121 0.500000
v 0.500000 0.499950 -0.500000
v 0.500000 -0.500000 0.499950
v -0.499950 -0.500000 -0.500000
v 0.500000 -0.207121 -0.207121
v 0.331710 -0.331710 -0.331710
v 0.207121 -0.500000 -0.207121
v 0.207121 -0.207121 -0.500000
v -0.499950 -0.500000 0.500000
v 0.500000 -0.500000 -0.499950
v 0.500000 0.499950 0.500000
v 0.207121 -0.500000 0.207121
v 0.331710 -0.331710 0.331710
v 0.500000 -0.207121 0.207121
v 0.207121 -0.207121 0.500000
v -0.499950 0.500000 -0.500000
v 0.500000 0.500000 0.499950
v 0.500000 -0.499950 -0.500000
v 0.207121 0.500000 -0.207121
v 0.331710 0.331710 -0.331710
v 0.500000 0.207121 -0.207121
v 0.207121 0.207121 -0.500000
v 0.500000 -0.499950 0.500000
v 0.500000 0.500000 -0.499950
v -0.499950 0.500000 0.500000
v 0.500000 0.207121 0.207121
v 0.331710 0.331710 0.331710
v 0.207121 0.500000 0.207121
v 0.207121 0.207121 0.500000
f 31 34 30 37 39 36 8 14 10 2 4 1
f 45 48 44 51 53 50 38 41 37 30 32 29
f 50 56 52 22 28 24 9 11 8 36 42 38
f 3 6 2 10 13 9 24 27 23 16 18 15
f 17 20 16 23 25 22 52 55 51 44 46 43
f 1 4 5 7
f 2 6 5 4
f 3 7 5 6
f 8 11 12 14
f 9 13 12 11
f 10 14 12 13
f 15 18 19 21
f 16 20 19 18
f 17 21 19 20
f 22 25 26 28
f 23 27 26 25
f 24 28 26 27
f 29 32 33 35
f 30 34 33 32
f 31 35 33 34
f 36 39 40 42
f 37 41 40 39
f 38 42 40 41
f 43 46 47 49
f 44 48 47 46
f 45 49 47 48
f 50 53 54 56
f 51 55 54 53
f 52 56 54 55
f 15 21 17 43 49 45 29 35 31 1 7 3
