# Exported by R4pp make_controlled_geometry_meshes.py
o B_rounded
v 0.050000 -0.500000 -0.500000
v -0.500000 -0.500000 0.050000
v -0.500000 0.050000 -0.500000
v -0.021706 -0.500000 -0.494712
v -0.092204 -0.500000 -0.480689
v -0.160476 -0.500000 -0.458134
v -0.224700 -0.500000 -0.425807
v -0.284465 -0.500000 -0.385873
v -0.338909 -0.500000 -0.338909
v -0.021706 -0.494712 -0.500000
v -0.081942 -0.487389 -0.489432
v -0.141854 -0.484711 -0.474981
v -0.200205 -0.484191 -0.454683
v -0.255038 -0.484409 -0.426675
v -0.305882 -0.484764 -0.392429
v -0.351756 -0.484986 -0.352152
v -0.092204 -0.480689 -0.500000
v -0.141209 -0.471574 -0.486210
v -0.190653 -0.467966 -0.470602
v -0.239084 -0.467540 -0.451767
v -0.284544 -0.468284 -0.427518
v -0.326640 -0.469176 -0.398612
v -0.364670 -0.469686 -0.365075
v -0.160476 -0.458134 -0.500000
v -0.198882 -0.450837 -0.484842
v -0.238263 -0.448632 -0.468694
v -0.276965 -0.449323 -0.450708
v -0.313240 -0.451167 -0.429449
v -0.346939 -0.452933 -0.405215
v -0.377694 -0.453851 -0.377878
v -0.224700 -0.425807 -0.500000
v -0.253605 -0.423371 -0.484605
v -0.283597 -0.424882 -0.468631
v -0.312940 -0.428289 -0.451582
v -0.340358 -0.432289 -0.432637
v -0.365983 -0.435613 -0.412070
v -0.389867 -0.437226 -0.389922
v -0.284465 -0.385873 -0.500000
v -0.305035 -0.390397 -0.484786
v -0.326142 -0.397006 -0.469214
v -0.346744 -0.404510 -0.452979
v -0.365934 -0.411858 -0.435651
v -0.383554 -0.417858 -0.417882
v -0.400282 -0.420854 -0.400288
v -0.407435 -0.407435 -0.407435
v -0.500000 -0.494712 -0.021706
v -0.500000 -0.480689 -0.092204
v -0.500000 -0.458134 -0.160476
v -0.500000 -0.425807 -0.224700
v -0.500000 -0.385873 -0.284465
v -0.500000 -0.338909 -0.338909
v -0.494712 -0.500000 -0.021706
v -0.487389 -0.489432 -0.081942
v -0.484711 -0.474981 -0.141854
v -0.484191 -0.454683 -0.200205
v -0.484409 -0.426675 -0.255038
v -0.484764 -0.392429 -0.305882
v -0.484986 -0.352152 -0.351756
v -0.480689 -0.500000 -0.092204
v -0.471574 -0.486210 -0.141209
v -0.467966 -0.470602 -0.190653
v -0.467540 -0.451767 -0.239084
v -0.468284 -0.427518 -0.284544
v -0.469176 -0.398612 -0.326640
v -0.469686 -0.365075 -0.364670
v -0.458134 -0.500000 -0.160476
v -0.450837 -0.484842 -0.198882
v -0.448632 -0.468694 -0.238263
v -0.449323 -0.450708 -0.276965
v -0.451167 -0.429449 -0.313240
v -0.452933 -0.405215 -0.346939
v -0.453851 -0.377878 -0.377694
v -0.425807 -0.500000 -0.224700
v -0.423371 -0.484605 -0.253605
v -0.424882 -0.468631 -0.283597
v -0.428289 -0.451582 -0.312940
v -0.432289 -0.432637 -0.340358
v -0.435613 -0.412070 -0.365983
v -0.437226 -0.389922 -0.389867
v -0.385873 -0.500000 -0.284465
v -0.390397 -0.484786 -0.305035
v -0.397006 -0.469214 -0.326142
v -0.404510 -0.452979 -0.346744
v -0.411858 -0.435651 -0.365934
v -0.417858 -0.417882 -0.383554
v -0.420854 -0.400288 -0.400282
v -0.494712 -0.021706 -0.500000
v -0.480689 -0.092204 -0.500000
v -0.458134 -0.160476 -0.500000
v -0.425807 -0.224700 -0.500000
v -0.385873 -0.284465 -0.500000
v -0.338909 -0.338909 -0.500000
v -0.500000 -0.021706 -0.494712
v -0.489432 -0.081942 -0.487389
v -0.474981 -0.141854 -0.484711
v -0.454683 -0.200205 -0.484191
v -0.426675 -0.255038 -0.484409
v -0.392429 -0.305882 -0.484764
v -0.352152 -0.351756 -0.484986
v -0.500000 -0.092204 -0.480689
v -0.486210 -0.141209 -0.471574
v -0.470602 -0.190653 -0.467966
v -0.451767 -0.239084 -0.467540
v -0.427518 -0.284544 -0.468284
v -0.398612 -0.326640 -0.469176
v -0.365075 -0.364670 -0.469686
v -0.500000 -0.160476 -0.458134
v -0.484842 -0.198882 -0.450837
v -0.468694 -0.238263 -0.448632
v -0.450708 -0.276965 -0.449323
v -0.429449 -0.313240 -0.451167
v -0.405215 -0.346939 -0.452933
v -0.377878 -0.377694 -0.453851
v -0.500000 -0.224700 -0.425807
v -0.484605 -0.253605 -0.423371
v -0.468631 -0.283597 -0.424882
v -0.451582 -0.312940 -0.428289
v -0.432637 -0.340358 -0.432289
v -0.412070 -0.365983 -0.435613
v -0.389922 -0.389867 -0.437226
v -0.500000 -0.284465 -0.385873
v -0.484786 -0.305035 -0.390397
v -0.469214 -0.326142 -0.397006
v -0.452979 -0.346744 -0.404510
v -0.435651 -0.365934 -0.411858
v -0.417882 -0.383554 -0.417858
v -0.400288 -0.400282 -0.420854
v 0.050000 -0.500000 0.500000
v -0.500000 0.050000 0.500000
v -0.500000 -0.500000 -0.050000
v -0.021706 -0.494712 0.500000
v -0.092204 -0.480689 0.500000
v -0.160476 -0.458134 0.500000
v -0.224700 -0.425807 0.500000
v -0.284465 -0.385873 0.500000
v -0.338909 -0.338909 0.500000
v -0.021706 -0.500000 0.494712
v -0.081942 -0.489432 0.487389
v -0.141854 -0.474981 0.484711
v -0.200205 -0.454683 0.484191
v -0.255038 -0.426675 0.484409
v -0.305882 -0.392429 0.484764
v -0.351756 -0.352152 0.484986
v -0.092204 -0.500000 0.480689
v -0.141209 -0.486210 0.471574
v -0.190653 -0.470602 0.467966
v -0.239084 -0.451767 0.467540
v -0.284544 -0.427518 0.468284
v -0.326640 -0.398612 0.469176
v -0.364670 -0.365075 0.469686
v -0.160476 -0.500000 0.458134
v -0.198882 -0.484842 0.450837
v -0.238263 -0.468694 0.448632
v -0.276965 -0.450708 0.449323
v -0.313240 -0.429449 0.451167
v -0.346939 -0.405215 0.452933
v -0.377694 -0.377878 0.453851
v -0.224700 -0.500000 0.425807
v -0.253605 -0.484605 0.423371
v -0.283597 -0.468631 0.424882
v -0.312940 -0.451582 0.428289
v -0.340358 -0.432637 0.432289
v -0.365983 -0.412070 0.435613
v -0.389867 -0.389922 0.437226
v -0.284465 -0.500000 0.385873
v -0.305035 -0.484786 0.390397
v -0.326142 -0.469214 0.397006
v -0.346744 -0.452979 0.404510
v -0.365934 -0.435651 0.411858
v -0.383554 -0.417882 0.417858
v -0.400282 -0.400288 0.420854
v -0.407435 -0.407435 0.407435
v -0.500000 -0.021706 0.494712
v -0.500000 -0.092204 0.480689
v -0.500000 -0.160476 0.458134
v -0.500000 -0.224700 0.425807
v -0.500000 -0.284465 0.385873
v -0.500000 -0.338909 0.338909
v -0.494712 -0.021706 0.500000
v -0.487389 -0.081942 0.489432
v -0.484711 -0.141854 0.474981
v -0.484191 -0.200205 0.454683
v -0.484409 -0.255038 0.426675
v -0.484764 -0.305882 0.392429
v -0.484986 -0.351756 0.352152
v -0.480689 -0.092204 0.500000
v -0.471574 -0.141209 0.486210
v -0.467966 -0.190653 0.470602
v -0.467540 -0.239084 0.451767
v -0.468284 -0.284544 0.427518
v -0.469176 -0.326640 0.398612
v -0.469686 -0.364670 0.365075
v -0.458134 -0.160476 0.500000
v -0.450837 -0.198882 0.484842
v -0.448632 -0.238263 0.468694
v -0.449323 -0.276965 0.450708
v -0.451167 -0.313240 0.429449
v -0.452933 -0.346939 0.405215
v -0.453851 -0.377694 0.377878
v -0.425807 -0.224700 0.500000
v -0.423371 -0.253605 0.484605
v -0.424882 -0.283597 0.468631
v -0.428289 -0.312940 0.451582
v -0.432289 -0.340358 0.432637
v -0.435613 -0.365983 0.412070
v -0.437226 -0.389867 0.389922
v -0.385873 -0.284465 0.500000
v -0.390397 -0.305035 0.484786
v -0.397006 -0.326142 0.469214
v -0.404510 -0.346744 0.452979
v -0.411858 -0.365934 0.435651
v -0.417858 -0.383554 0.417882
v -0.420854 -0.400282 0.400288
v -0.494712 -0.500000 0.021706
v -0.480689 -0.500000 0.092204
v -0.458134 -0.500000 0.160476
v -0.425807 -0.500000 0.224700
v -0.385873 -0.500000 0.284465
v -0.338909 -0.500000 0.338909
v -0.500000 -0.494712 0.021706
v -0.489432 -0.487389 0.081942
v -0.474981 -0.484711 0.141854
v -0.454683 -0.484191 0.200205
v -0.426675 -0.484409 0.255038
v -0.392429 -0.484764 0.305882
v -0.352152 -0.484986 0.351756
v -0.500000 -0.480689 0.092204
v -0.486210 -0.471574 0.141209
v -0.470602 -0.467966 0.190653
v -0.451767 -0.467540 0.239084
v -0.427518 -0.468284 0.284544
v -0.398612 -0.469176 0.326640
v -0.365075 -0.469686 0.364670
v -0.500000 -0.458134 0.160476
v -0.484842 -0.450837 0.198882
v -0.468694 -0.448632 0.238263
v -0.450708 -0.449323 0.276965
v -0.429449 -0.451167 0.313240
v -0.405215 -0.452933 0.346939
v -0.377878 -0.453851 0.377694
v -0.500000 -0.425807 0.224700
v -0.484605 -0.423371 0.253605
v -0.468631 -0.424882 0.283597
v -0.451582 -0.428289 0.312940
v -0.432637 -0.432289 0.340358
v -0.412070 -0.435613 0.365983
v -0.389922 -0.437226 0.389867
v -0.500000 -0.385873 0.284465
v -0.484786 -0.390397 0.305035
v -0.469214 -0.397006 0.326142
v -0.452979 -0.404510 0.346744
v -0.435651 -0.411858 0.365934
v -0.417882 -0.417858 0.383554
v -0.400288 -0.420854 0.400282
v -0.500000 -0.050000 -0.500000
v -0.500000 0.500000 0.050000
v 0.050000 0.500000 -0.500000
v -0.500000 0.021706 -0.494712
v -0.500000 0.092204 -0.480689
v -0.500000 0.160476 -0.458134
v -0.500000 0.224700 -0.425807
v -0.500000 0.284465 -0.385873
v -0.500000 0.338909 -0.338909
v -0.494712 0.021706 -0.500000
v -0.487389 0.081942 -0.489432
v -0.484711 0.141854 -0.474981
v -0.484191 0.200205 -0.454683
v -0.484409 0.255038 -0.426675
v -0.484764 0.305882 -0.392429
v -0.484986 0.351756 -0.352152
v -0.480689 0.092204 -0.500000
v -0.471574 0.141209 -0.486210
v -0.467966 0.190653 -0.470602
v -0.467540 0.239084 -0.451767
v -0.468284 0.284544 -0.427518
v -0.469176 0.326640 -0.398612
v -0.469686 0.364670 -0.365075
v -0.458134 0.160476 -0.500000
v -0.450837 0.198882 -0.484842
v -0.448632 0.238263 -0.468694
v -0.449323 0.276965 -0.450708
v -0.451167 0.313240 -0.429449
v -0.452933 0.346939 -0.405215
v -0.453851 0.377694 -0.377878
v -0.425807 0.224700 -0.500000
v -0.423371 0.253605 -0.484605
v -0.424882 0.283597 -0.468631
v -0.428289 0.312940 -0.451582
v -0.432289 0.340358 -0.432637
v -0.435613 0.365983 -0.412070
v -0.437226 0.389867 -0.389922
v -0.385873 0.284465 -0.500000
v -0.390397 0.305035 -0.484786
v -0.397006 0.326142 -0.469214
v -0.404510 0.346744 -0.452979
v -0.411858 0.365934 -0.435651
v -0.417858 0.383554 -0.417882
v -0.420854 0.400282 -0.400288
v -0.407435 0.407435 -0.407435
v -0.494712 0.500000 -0.021706
v -0.480689 0.500000 -0.092204
v -0.458134 0.500000 -0.160476
v -0.425807 0.500000 -0.224700
v -0.385873 0.500000 -0.284465
v -0.338909 0.500000 -0.338909
v -0.500000 0.494712 -0.021706
v -0.489432 0.487389 -0.081942
v -0.474981 0.484711 -0.141854
v -0.454683 0.484191 -0.200205
v -0.426675 0.484409 -0.255038
v -0.392429 0.484764 -0.305882
v -0.352152 0.484986 -0.351756
v -0.500000 0.480689 -0.092204
v -0.486210 0.471574 -0.141209
v -0.470602 0.467966 -0.190653
v -0.451767 0.467540 -0.239084
v -0.427518 0.468284 -0.284544
v -0.398612 0.469176 -0.326640
v -0.365075 0.469686 -0.364670
v -0.500000 0.458134 -0.160476
v -0.484842 0.450837 -0.198882
v -0.468694 0.448632 -0.238263
v -0.450708 0.449323 -0.276965
v -0.429449 0.451167 -0.313240
v -0.405215 0.452933 -0.346939
v -0.377878 0.453851 -0.377694
v -0.500000 0.425807 -0.224700
v -0.484605 0.423371 -0.253605
v -0.468631 0.424882 -0.283597
v -0.451582 0.428289 -0.312940
v -0.432637 0.432289 -0.340358
v -0.412070 0.435613 -0.365983
v -0.389922 0.437226 -0.389867
v -0.500000 0.385873 -0.284465
v -0.484786 0.390397 -0.305035
v -0.469214 0.397006 -0.326142
v -0.452979 0.404510 -0.346744
v -0.435651 0.411858 -0.365934
v -0.417882 0.417858 -0.383554
v -0.400288 0.420854 -0.400282
v -0.021706 0.494712 -0.500000
v -0.092204 0.480689 -0.500000
v -0.160476 0.458134 -0.500000
v -0.224700 0.425807 -0.500000
v -0.284465 0.385873 -0.500000
v -0.338909 0.338909 -0.500000
v -0.021706 0.500000 -0.494712
v -0.081942 0.489432 -0.487389
v -0.141854 0.474981 -0.484711
v -0.200205 0.454683 -0.484191
v -0.255038 0.426675 -0.484409
v -0.305882 0.392429 -0.484764
v -0.351756 0.352152 -0.484986
v -0.092204 0.500000 -0.480689
v -0.141209 0.486210 -0.471574
v -0.190653 0.470602 -0.467966
v -0.239084 0.451767 -0.467540
v -0.284544 0.427518 -0.468284
v -0.326640 0.398612 -0.469176
v -0.364670 0.365075 -0.469686
v -0.160476 0.500000 -0.458134
v -0.198882 0.484842 -0.450837
v -0.238263 0.468694 -0.448632
v -0.276965 0.450708 -0.449323
v -0.313240 0.429449 -0.451167
v -0.346939 0.405215 -0.452933
v -0.377694 0.377878 -0.453851
v -0.224700 0.500000 -0.425807
v -0.253605 0.484605 -0.423371
v -0.283597 0.468631 -0.424882
v -0.312940 0.451582 -0.428289
v -0.340358 0.432637 -0.432289
v -0.365983 0.412070 -0.435613
v -0.389867 0.389922 -0.437226
v -0.284465 0.500000 -0.385873
v -0.305035 0.484786 -0.390397
v -0.326142 0.469214 -0.397006
v -0.346744 0.452979 -0.404510
v -0.365934 0.435651 -0.411858
v -0.383554 0.417882 -0.417858
v -0.400282 0.400288 -0.420854
v 0.050000 0.500000 0.500000
v -0.500000 0.500000 -0.050000
v -0.500000 -0.050000 0.500000
v -0.021706 0.500000 0.494712
v -0.092204 0.500000 0.480689
v -0.160476 0.500000 0.458134
v -0.224700 0.500000 0.425807
v -0.284465 0.500000 0.385873
v -0.338909 0.500000 0.338909
v -0.021706 0.494712 0.500000
v -0.081942 0.487389 0.489432
v -0.141854 0.484711 0.474981
v -0.200205 0.484191 0.454683
v -0.255038 0.484409 0.426675
v -0.305882 0.484764 0.392429
v -0.351756 0.484986 0.352152
v -0.092204 0.480689 0.500000
v -0.141209 0.471574 0.486210
v -0.190653 0.467966 0.470602
v -0.239084 0.467540 0.451767
v -0.284544 0.468284 0.427518
v -0.326640 0.469176 0.398612
v -0.364670 0.469686 0.365075
v -0.160476 0.458134 0.500000
v -0.198882 0.450837 0.484842
v -0.238263 0.448632 0.468694
v -0.276965 0.449323 0.450708
v -0.313240 0.451167 0.429449
v -0.346939 0.452933 0.405215
v -0.377694 0.453851 0.377878
v -0.224700 0.425807 0.500000
v -0.253605 0.423371 0.484605
v -0.283597 0.424882 0.468631
v -0.312940 0.428289 0.451582
v -0.340358 0.432289 0.432637
v -0.365983 0.435613 0.412070
v -0.389867 0.437226 0.389922
v -0.284465 0.385873 0.500000
v -0.305035 0.390397 0.484786
v -0.326142 0.397006 0.469214
v -0.346744 0.404510 0.452979
v -0.365934 0.411858 0.435651
v -0.383554 0.417858 0.417882
v -0.400282 0.420854 0.400288
v -0.407435 0.407435 0.407435
v -0.500000 0.494712 0.021706
v -0.500000 0.480689 0.092204
v -0.500000 0.458134 0.160476
v -0.500000 0.425807 0.224700
v -0.500000 0.385873 0.284465
v -0.500000 0.338909 0.338909
v -0.494712 0.500000 0.021706
v -0.487389 0.489432 0.081942
v -0.484711 0.474981 0.141854
v -0.484191 0.454683 0.200205
v -0.484409 0.426675 0.255038
v -0.484764 0.392429 0.305882
v -0.484986 0.352152 0.351756
v -0.480689 0.500000 0.092204
v -0.471574 0.486210 0.141209
v -0.467966 0.470602 0.190653
v -0.467540 0.451767 0.239084
v -0.468284 0.427518 0.284544
v -0.469176 0.398612 0.326640
v -0.469686 0.365075 0.364670
v -0.458134 0.500000 0.160476
v -0.450837 0.484842 0.198882
v -0.448632 0.468694 0.238263
v -0.449323 0.450708 0.276965
v -0.451167 0.429449 0.313240
v -0.452933 0.405215 0.346939
v -0.453851 0.377878 0.377694
v -0.425807 0.500000 0.224700
v -0.423371 0.484605 0.253605
v -0.424882 0.468631 0.283597
v -0.428289 0.451582 0.312940
v -0.432289 0.432637 0.340358
v -0.435613 0.412070 0.365983
v -0.437226 0.389922 0.389867
v -0.385873 0.500000 0.284465
v -0.390397 0.484786 0.305035
v -0.397006 0.469214 0.326142
v -0.404510 0.452979 0.346744
v -0.411858 0.435651 0.365934
v -0.417858 0.417882 0.383554
v -0.420854 0.400288 0.400282
v -0.494712 0.021706 0.500000
v -0.480689 0.092204 0.500000
v -0.458134 0.160476 0.500000
v -0.425807 0.224700 0.500000
v -0.385873 0.284465 0.500000
v -0.338909 0.338909 0.500000
v -0.500000 0.021706 0.494712
v -0.489432 0.081942 0.487389
v -0.474981 0.141854 0.484711
v -0.454683 0.200205 0.484191
v -0.426675 0.255038 0.484409
v -0.392429 0.305882 0.484764
v -0.352152 0.351756 0.484986
v -0.500000 0.092204 0.480689
v -0.486210 0.141209 0.471574
v -0.470602 0.190653 0.467966
v -0.451767 0.239084 0.467540
v -0.427518 0.284544 0.468284
v -0.398612 0.326640 0.469176
v -0.365075 0.364670 0.469686
v -0.500000 0.160476 0.458134
v -0.484842 0.198882 0.450837
v -0.468694 0.238263 0.448632
v -0.450708 0.276965 0.449323
v -0.429449 0.313240 0.451167
v -0.405215 0.346939 0.452933
v -0.377878 0.377694 0.453851
v -0.500000 0.224700 0.425807
v -0.484605 0.253605 0.423371
v -0.468631 0.283597 0.424882
v -0.451582 0.312940 0.428289
v -0.432637 0.340358 0.432289
v -0.412070 0.365983 0.435613
v -0.389922 0.389867 0.437226
v -0.500000 0.284465 0.385873
v -0.484786 0.305035 0.390397
v -0.469214 0.326142 0.397006
v -0.452979 0.346744 0.404510
v -0.435651 0.365934 0.411858
v -0.417882 0.383554 0.417858
v -0.400288 0.400282 0.420854
v 0.500000 0.050000 -0.500000
v 0.500000 -0.500000 0.050000
v -0.050000 -0.500000 -0.500000
v 0.500000 -0.021706 -0.494712
v 0.500000 -0.092204 -0.480689
v 0.500000 -0.160476 -0.458134
v 0.500000 -0.224700 -0.425807
v 0.500000 -0.284465 -0.385873
v 0.500000 -0.338909 -0.338909
v 0.494712 -0.021706 -0.500000
v 0.487389 -0.081942 -0.489432
v 0.484711 -0.141854 -0.474981
v 0.484191 -0.200205 -0.454683
v 0.484409 -0.255038 -0.426675
v 0.484764 -0.305882 -0.392429
v 0.484986 -0.351756 -0.352152
v 0.480689 -0.092204 -0.500000
v 0.471574 -0.141209 -0.486210
v 0.467966 -0.190653 -0.470602
v 0.467540 -0.239084 -0.451767
v 0.468284 -0.284544 -0.427518
v 0.469176 -0.326640 -0.398612
v 0.469686 -0.364670 -0.365075
v 0.458134 -0.160476 -0.500000
v 0.450837 -0.198882 -0.484842
v 0.448632 -0.238263 -0.468694
v 0.449323 -0.276965 -0.450708
v 0.451167 -0.313240 -0.429449
v 0.452933 -0.346939 -0.405215
v 0.453851 -0.377694 -0.377878
v 0.425807 -0.224700 -0.500000
v 0.423371 -0.253605 -0.484605
v 0.424882 -0.283597 -0.468631
v 0.428289 -0.312940 -0.451582
v 0.432289 -0.340358 -0.432637
v 0.435613 -0.365983 -0.412070
v 0.437226 -0.389867 -0.389922
v 0.385873 -0.284465 -0.500000
v 0.390397 -0.305035 -0.484786
v 0.397006 -0.326142 -0.469214
v 0.404510 -0.346744 -0.452979
v 0.411858 -0.365934 -0.435651
v 0.417858 -0.383554 -0.417882
v 0.420854 -0.400282 -0.400288
v 0.407435 -0.407435 -0.407435
v 0.494712 -0.500000 -0.021706
v 0.480689 -0.500000 -0.092204
v 0.458134 -0.500000 -0.160476
v 0.425807 -0.500000 -0.224700
v 0.385873 -0.500000 -0.284465
v 0.338909 -0.500000 -0.338909
v 0.500000 -0.494712 -0.021706
v 0.489432 -0.487389 -0.081942
v 0.474981 -0.484711 -0.141854
v 0.454683 -0.484191 -0.200205
v 0.426675 -0.484409 -0.255038
v 0.392429 -0.484764 -0.305882
v 0.352152 -0.484986 -0.351756
v 0.500000 -0.480689 -0.092204
v 0.486210 -0.471574 -0.141209
v 0.470602 -0.467966 -0.190653
v 0.451767 -0.467540 -0.239084
v 0.427518 -0.468284 -0.284544
v 0.398612 -0.469176 -0.326640
v 0.365075 -0.469686 -0.364670
v 0.500000 -0.458134 -0.160476
v 0.484842 -0.450837 -0.198882
v 0.468694 -0.448632 -0.238263
v 0.450708 -0.449323 -0.276965
v 0.429449 -0.451167 -0.313240
v 0.405215 -0.452933 -0.346939
v 0.377878 -0.453851 -0.377694
v 0.500000 -0.425807 -0.224700
v 0.484605 -0.423371 -0.253605
v 0.468631 -0.424882 -0.283597
v 0.451582 -0.428289 -0.312940
v 0.432637 -0.432289 -0.340358
v 0.412070 -0.435613 -0.365983
v 0.389922 -0.437226 -0.389867
v 0.500000 -0.385873 -0.284465
v 0.484786 -0.390397 -0.305035
v 0.469214 -0.397006 -0.326142
v 0.452979 -0.404510 -0.346744
v 0.435651 -0.411858 -0.365934
v 0.417882 -0.417858 -0.383554
v 0.400288 -0.420854 -0.400282
v 0.021706 -0.494712 -0.500000
v 0.092204 -0.480689 -0.500000
v 0.160476 -0.458134 -0.500000
v 0.224700 -0.425807 -0.500000
v 0.284465 -0.385873 -0.500000
v 0.338909 -0.338909 -0.500000
v 0.021706 -0.500000 -0.494712
v 0.081942 -0.489432 -0.487389
v 0.141854 -0.474981 -0.484711
v 0.200205 -0.454683 -0.484191
v 0.255038 -0.426675 -0.484409
v 0.305882 -0.392429 -0.484764
v 0.351756 -0.352152 -0.484986
v 0.092204 -0.500000 -0.480689
v 0.141209 -0.486210 -0.471574
v 0.190653 -0.470602 -0.467966
v 0.239084 -0.451767 -0.467540
v 0.284544 -0.427518 -0.468284
v 0.326640 -0.398612 -0.469176
v 0.364670 -0.365075 -0.469686
v 0.160476 -0.500000 -0.458134
v 0.198882 -0.484842 -0.450837
v 0.238263 -0.468694 -0.448632
v 0.276965 -0.450708 -0.449323
v 0.313240 -0.429449 -0.451167
v 0.346939 -0.405215 -0.452933
v 0.377694 -0.377878 -0.453851
v 0.224700 -0.500000 -0.425807
v 0.253605 -0.484605 -0.423371
v 0.283597 -0.468631 -0.424882
v 0.312940 -0.451582 -0.428289
v 0.340358 -0.432637 -0.432289
v 0.365983 -0.412070 -0.435613
v 0.389867 -0.389922 -0.437226
v 0.284465 -0.500000 -0.385873
v 0.305035 -0.484786 -0.390397
v 0.326142 -0.469214 -0.397006
v 0.346744 -0.452979 -0.404510
v 0.365934 -0.435651 -0.411858
v 0.383554 -0.417882 -0.417858
v 0.400282 -0.400288 -0.420854
v -0.050000 -0.500000 0.500000
v 0.500000 -0.500000 -0.050000
v 0.500000 0.050000 0.500000
v 0.021706 -0.500000 0.494712
v 0.092204 -0.500000 0.480689
v 0.160476 -0.500000 0.458134
v 0.224700 -0.500000 0.425807
v 0.284465 -0.500000 0.385873
v 0.338909 -0.500000 0.338909
v 0.021706 -0.494712 0.500000
v 0.081942 -0.487389 0.489432
v 0.141854 -0.484711 0.474981
v 0.200205 -0.484191 0.454683
v 0.255038 -0.484409 0.426675
v 0.305882 -0.484764 0.392429
v 0.351756 -0.484986 0.352152
v 0.092204 -0.480689 0.500000
v 0.141209 -0.471574 0.486210
v 0.190653 -0.467966 0.470602
v 0.239084 -0.467540 0.451767
v 0.284544 -0.468284 0.427518
v 0.326640 -0.469176 0.398612
v 0.364670 -0.469686 0.365075
v 0.160476 -0.458134 0.500000
v 0.198882 -0.450837 0.484842
v 0.238263 -0.448632 0.468694
v 0.276965 -0.449323 0.450708
v 0.313240 -0.451167 0.429449
v 0.346939 -0.452933 0.405215
v 0.377694 -0.453851 0.377878
v 0.224700 -0.425807 0.500000
v 0.253605 -0.423371 0.484605
v 0.283597 -0.424882 0.468631
v 0.312940 -0.428289 0.451582
v 0.340358 -0.432289 0.432637
v 0.365983 -0.435613 0.412070
v 0.389867 -0.437226 0.389922
v 0.284465 -0.385873 0.500000
v 0.305035 -0.390397 0.484786
v 0.326142 -0.397006 0.469214
v 0.346744 -0.404510 0.452979
v 0.365934 -0.411858 0.435651
v 0.383554 -0.417858 0.417882
v 0.400282 -0.420854 0.400288
v 0.407435 -0.407435 0.407435
v 0.500000 -0.494712 0.021706
v 0.500000 -0.480689 0.092204
v 0.500000 -0.458134 0.160476
v 0.500000 -0.425807 0.224700
v 0.500000 -0.385873 0.284465
v 0.500000 -0.338909 0.338909
v 0.494712 -0.500000 0.021706
v 0.487389 -0.489432 0.081942
v 0.484711 -0.474981 0.141854
v 0.484191 -0.454683 0.200205
v 0.484409 -0.426675 0.255038
v 0.484764 -0.392429 0.305882
v 0.484986 -0.352152 0.351756
v 0.480689 -0.500000 0.092204
v 0.471574 -0.486210 0.141209
v 0.467966 -0.470602 0.190653
v 0.467540 -0.451767 0.239084
v 0.468284 -0.427518 0.284544
v 0.469176 -0.398612 0.326640
v 0.469686 -0.365075 0.364670
v 0.458134 -0.500000 0.160476
v 0.450837 -0.484842 0.198882
v 0.448632 -0.468694 0.238263
v 0.449323 -0.450708 0.276965
v 0.451167 -0.429449 0.313240
v 0.452933 -0.405215 0.346939
v 0.453851 -0.377878 0.377694
v 0.425807 -0.500000 0.224700
v 0.423371 -0.484605 0.253605
v 0.424882 -0.468631 0.283597
v 0.428289 -0.451582 0.312940
v 0.432289 -0.432637 0.340358
v 0.435613 -0.412070 0.365983
v 0.437226 -0.389922 0.389867
v 0.385873 -0.500000 0.284465
v 0.390397 -0.484786 0.305035
v 0.397006 -0.469214 0.326142
v 0.404510 -0.452979 0.346744
v 0.411858 -0.435651 0.365934
v 0.417858 -0.417882 0.383554
v 0.420854 -0.400288 0.400282
v 0.494712 -0.021706 0.500000
v 0.480689 -0.092204 0.500000
v 0.458134 -0.160476 0.500000
v 0.425807 -0.224700 0.500000
v 0.385873 -0.284465 0.500000
v 0.338909 -0.338909 0.500000
v 0.500000 -0.021706 0.494712
v 0.489432 -0.081942 0.487389
v 0.474981 -0.141854 0.484711
v 0.454683 -0.200205 0.484191
v 0.426675 -0.255038 0.484409
v 0.392429 -0.305882 0.484764
v 0.352152 -0.351756 0.484986
v 0.500000 -0.092204 0.480689
v 0.486210 -0.141209 0.471574
v 0.470602 -0.190653 0.467966
v 0.451767 -0.239084 0.467540
v 0.427518 -0.284544 0.468284
v 0.398612 -0.326640 0.469176
v 0.365075 -0.364670 0.469686
v 0.500000 -0.160476 0.458134
v 0.484842 -0.198882 0.450837
v 0.468694 -0.238263 0.448632
v 0.450708 -0.276965 0.449323
v 0.429449 -0.313240 0.451167
v 0.405215 -0.346939 0.452933
v 0.377878 -0.377694 0.453851
v 0.500000 -0.224700 0.425807
v 0.484605 -0.253605 0.423371
v 0.468631 -0.283597 0.424882
v 0.451582 -0.312940 0.428289
v 0.432637 -0.340358 0.432289
v 0.412070 -0.365983 0.435613
v 0.389922 -0.389867 0.437226
v 0.500000 -0.284465 0.385873
v 0.484786 -0.305035 0.390397
v 0.469214 -0.326142 0.397006
v 0.452979 -0.346744 0.404510
v 0.435651 -0.365934 0.411858
v 0.417882 -0.383554 0.417858
v 0.400288 -0.400282 0.420854
v -0.050000 0.500000 -0.500000
v 0.500000 0.500000 0.050000
v 0.500000 -0.050000 -0.500000
v 0.021706 0.500000 -0.494712
v 0.092204 0.500000 -0.480689
v 0.160476 0.500000 -0.458134
v 0.224700 0.500000 -0.425807
v 0.284465 0.500000 -0.385873
v 0.338909 0.500000 -0.338909
v 0.021706 0.494712 -0.500000
v 0.081942 0.487389 -0.489432
v 0.141854 0.484711 -0.474981
v 0.200205 0.484191 -0.454683
v 0.255038 0.484409 -0.426675
v 0.305882 0.484764 -0.392429
v 0.351756 0.484986 -0.352152
v 0.092204 0.480689 -0.500000
v 0.141209 0.471574 -0.486210
v 0.190653 0.467966 -0.470602
v 0.239084 0.467540 -0.451767
v 0.284544 0.468284 -0.427518
v 0.326640 0.469176 -0.398612
v 0.364670 0.469686 -0.365075
v 0.160476 0.458134 -0.500000
v 0.198882 0.450837 -0.484842
v 0.238263 0.448632 -0.468694
v 0.276965 0.449323 -0.450708
v 0.313240 0.451167 -0.429449
v 0.346939 0.452933 -0.405215
v 0.377694 0.453851 -0.377878
v 0.224700 0.425807 -0.500000
v 0.253605 0.423371 -0.484605
v 0.283597 0.424882 -0.468631
v 0.312940 0.428289 -0.451582
v 0.340358 0.432289 -0.432637
v 0.365983 0.435613 -0.412070
v 0.389867 0.437226 -0.389922
v 0.284465 0.385873 -0.500000
v 0.305035 0.390397 -0.484786
v 0.326142 0.397006 -0.469214
v 0.346744 0.404510 -0.452979
v 0.365934 0.411858 -0.435651
v 0.383554 0.417858 -0.417882
v 0.400282 0.420854 -0.400288
v 0.407435 0.407435 -0.407435
v 0.500000 0.494712 -0.021706
v 0.500000 0.480689 -0.092204
v 0.500000 0.458134 -0.160476
v 0.500000 0.425807 -0.224700
v 0.500000 0.385873 -0.284465
v 0.500000 0.338909 -0.338909
v 0.494712 0.500000 -0.021706
v 0.487389 0.489432 -0.081942
v 0.484711 0.474981 -0.141854
v 0.484191 0.454683 -0.200205
v 0.484409 0.426675 -0.255038
v 0.484764 0.392429 -0.305882
v 0.484986 0.352152 -0.351756
v 0.480689 0.500000 -0.092204
v 0.471574 0.486210 -0.141209
v 0.467966 0.470602 -0.190653
v 0.467540 0.451767 -0.239084
v 0.468284 0.427518 -0.284544
v 0.469176 0.398612 -0.326640
v 0.469686 0.365075 -0.364670
v 0.458134 0.500000 -0.160476
v 0.450837 0.484842 -0.198882
v 0.448632 0.468694 -0.238263
v 0.449323 0.450708 -0.276965
v 0.451167 0.429449 -0.313240
v 0.452933 0.405215 -0.346939
v 0.453851 0.377878 -0.377694
v 0.425807 0.500000 -0.224700
v 0.423371 0.484605 -0.253605
v 0.424882 0.468631 -0.283597
v 0.428289 0.451582 -0.312940
v 0.432289 0.432637 -0.340358
v 0.435613 0.412070 -0.365983
v 0.437226 0.389922 -0.389867
v 0.385873 0.500000 -0.284465
v 0.390397 0.484786 -0.305035
v 0.397006 0.469214 -0.326142
v 0.404510 0.452979 -0.346744
v 0.411858 0.435651 -0.365934
v 0.417858 0.417882 -0.383554
v 0.420854 0.400288 -0.400282
v 0.494712 0.021706 -0.500000
v 0.480689 0.092204 -0.500000
v 0.458134 0.160476 -0.500000
v 0.425807 0.224700 -0.500000
v 0.385873 0.284465 -0.500000
v 0.338909 0.338909 -0.500000
v 0.500000 0.021706 -0.494712
v 0.489432 0.081942 -0.487389
v 0.474981 0.141854 -0.484711
v 0.454683 0.200205 -0.484191
v 0.426675 0.255038 -0.484409
v 0.392429 0.305882 -0.484764
v 0.352152 0.351756 -0.484986
v 0.500000 0.092204 -0.480689
v 0.486210 0.141209 -0.471574
v 0.470602 0.190653 -0.467966
v 0.451767 0.239084 -0.467540
v 0.427518 0.284544 -0.468284
v 0.398612 0.326640 -0.469176
v 0.365075 0.364670 -0.469686
v 0.500000 0.160476 -0.458134
v 0.484842 0.198882 -0.450837
v 0.468694 0.238263 -0.448632
v 0.450708 0.276965 -0.449323
v 0.429449 0.313240 -0.451167
v 0.405215 0.346939 -0.452933
v 0.377878 0.377694 -0.453851
v 0.500000 0.224700 -0.425807
v 0.484605 0.253605 -0.423371
v 0.468631 0.283597 -0.424882
v 0.451582 0.312940 -0.428289
v 0.432637 0.340358 -0.432289
v 0.412070 0.365983 -0.435613
v 0.389922 0.389867 -0.437226
v 0.500000 0.284465 -0.385873
v 0.484786 0.305035 -0.390397
v 0.469214 0.326142 -0.397006
v 0.452979 0.346744 -0.404510
v 0.435651 0.365934 -0.411858
v 0.417882 0.383554 -0.417858
v 0.400288 0.400282 -0.420854
v 0.500000 -0.050000 0.500000
v 0.500000 0.500000 -0.050000
v -0.050000 0.500000 0.500000
v 0.500000 0.021706 0.494712
v 0.500000 0.092204 0.480689
v 0.500000 0.160476 0.458134
v 0.500000 0.224700 0.425807
v 0.500000 0.284465 0.385873
v 0.500000 0.338909 0.338909
v 0.494712 0.021706 0.500000
v 0.487389 0.081942 0.489432
v 0.484711 0.141854 0.474981
v 0.484191 0.200205 0.454683
v 0.484409 0.255038 0.426675
v 0.484764 0.305882 0.392429
v 0.484986 0.351756 0.352152
v 0.480689 0.092204 0.500000
v 0.471574 0.141209 0.486210
v 0.467966 0.190653 0.470602
v 0.467540 0.239084 0.451767
v 0.468284 0.284544 0.427518
v 0.469176 0.326640 0.398612
v 0.469686 0.364670 0.365075
v 0.458134 0.160476 0.500000
v 0.450837 0.198882 0.484842
v 0.448632 0.238263 0.468694
v 0.449323 0.276965 0.450708
v 0.451167 0.313240 0.429449
v 0.452933 0.346939 0.405215
v 0.453851 0.377694 0.377878
v 0.425807 0.224700 0.500000
v 0.423371 0.253605 0.484605
v 0.424882 0.283597 0.468631
v 0.428289 0.312940 0.451582
v 0.432289 0.340358 0.432637
v 0.435613 0.365983 0.412070
v 0.437226 0.389867 0.389922
v 0.385873 0.284465 0.500000
v 0.390397 0.305035 0.484786
v 0.397006 0.326142 0.469214
v 0.404510 0.346744 0.452979
v 0.411858 0.365934 0.435651
v 0.417858 0.383554 0.417882
v 0.420854 0.400282 0.400288
v 0.407435 0.407435 0.407435
v 0.494712 0.500000 0.021706
v 0.480689 0.500000 0.092204
v 0.458134 0.500000 0.160476
v 0.425807 0.500000 0.224700
v 0.385873 0.500000 0.284465
v 0.338909 0.500000 0.338909
v 0.500000 0.494712 0.021706
v 0.489432 0.487389 0.081942
v 0.474981 0.484711 0.141854
v 0.454683 0.484191 0.200205
v 0.426675 0.484409 0.255038
v 0.392429 0.484764 0.305882
v 0.352152 0.484986 0.351756
v 0.500000 0.480689 0.092204
v 0.486210 0.471574 0.141209
v 0.470602 0.467966 0.190653
v 0.451767 0.467540 0.239084
v 0.427518 0.468284 0.284544
v 0.398612 0.469176 0.326640
v 0.365075 0.469686 0.364670
v 0.500000 0.458134 0.160476
v 0.484842 0.450837 0.198882
v 0.468694 0.448632 0.238263
v 0.450708 0.449323 0.276965
v 0.429449 0.451167 0.313240
v 0.405215 0.452933 0.346939
v 0.377878 0.453851 0.377694
v 0.500000 0.425807 0.224700
v 0.484605 0.423371 0.253605
v 0.468631 0.424882 0.283597
v 0.451582 0.428289 0.312940
v 0.432637 0.432289 0.340358
v 0.412070 0.435613 0.365983
v 0.389922 0.437226 0.389867
v 0.500000 0.385873 0.284465
v 0.484786 0.390397 0.305035
v 0.469214 0.397006 0.326142
v 0.452979 0.404510 0.346744
v 0.435651 0.411858 0.365934
v 0.417882 0.417858 0.383554
v 0.400288 0.420854 0.400282
v 0.021706 0.494712 0.500000
v 0.092204 0.480689 0.500000
v 0.160476 0.458134 0.500000
v 0.224700 0.425807 0.500000
v 0.284465 0.385873 0.500000
v 0.338909 0.338909 0.500000
v 0.021706 0.500000 0.494712
v 0.081942 0.489432 0.487389
v 0.141854 0.474981 0.484711
v 0.200205 0.454683 0.484191
v 0.255038 0.426675 0.484409
v 0.305882 0.392429 0.484764
v 0.351756 0.352152 0.484986
v 0.092204 0.500000 0.480689
v 0.141209 0.486210 0.471574
v 0.190653 0.470602 0.467966
v 0.239084 0.451767 0.467540
v 0.284544 0.427518 0.468284
v 0.326640 0.398612 0.469176
v 0.364670 0.365075 0.469686
v 0.160476 0.500000 0.458134
v 0.198882 0.484842 0.450837
v 0.238263 0.468694 0.448632
v 0.276965 0.450708 0.449323
v 0.313240 0.429449 0.451167
v 0.346939 0.405215 0.452933
v 0.377694 0.377878 0.453851
v 0.224700 0.500000 0.425807
v 0.253605 0.484605 0.423371
v 0.283597 0.468631 0.424882
v 0.312940 0.451582 0.428289
v 0.340358 0.432637 0.432289
v 0.365983 0.412070 0.435613
v 0.389867 0.389922 0.437226
v 0.284465 0.500000 0.385873
v 0.305035 0.484786 0.390397
v 0.326142 0.469214 0.397006
v 0.346744 0.452979 0.404510
v 0.365934 0.435651 0.411858
v 0.383554 0.417882 0.417858
v 0.400282 0.400288 0.420854
f 511 601 608 615 622 629 559 558 557 556 555 554 510 637 687 694 701 708 715 644 643 642 641 640 639 636 128 137 144 151 158 165 219 218 217 216 215 214 130 2 52 59 66 73 80 9 8 7 6 5 4 1
f 765 855 862 869 876 883 813 812 811 810 809 808 764 891 941 948 955 962 969 898 897 896 895 894 893 890 638 728 735 742 749 756 686 685 684 683 682 681 637 510 560 567 574 581 588 517 516 515 514 513 512 509
f 890 899 906 913 920 927 981 980 979 978 977 976 892 382 391 398 405 412 419 473 472 471 470 469 468 384 129 179 186 193 200 207 136 135 134 133 132 131 128 636 645 652 659 666 673 727 726 725 724 723 722 638
f 3 93 100 107 114 121 51 50 49 48 47 46 2 130 220 227 234 241 248 178 177 176 175 174 173 129 384 474 481 488 495 502 432 431 430 429 428 427 383 256 306 313 320 327 334 263 262 261 260 259 258 255
f 257 347 354 361 368 375 305 304 303 302 301 300 256 383 433 440 447 454 461 390 389 388 387 386 385 382 892 982 989 996 1003 1010 940 939 938 937 936 935 891 764 814 821 828 835 842 771 770 769 768 767 766 763
f 1 4 11 10
f 4 5 12 11
f 5 6 13 12
f 6 7 14 13
f 7 8 15 14
f 8 9 16 15
f 10 11 18 17
f 11 12 19 18
f 12 13 20 19
f 13 14 21 20
f 14 15 22 21
f 15 16 23 22
f 17 18 25 24
f 18 19 26 25
f 19 20 27 26
f 20 21 28 27
f 21 22 29 28
f 22 23 30 29
f 24 25 32 31
f 25 26 33 32
f 26 27 34 33
f 27 28 35 34
f 28 29 36 35
f 29 30 37 36
f 31 32 39 38
f 32 33 40 39
f 33 34 41 40
f 34 35 42 41
f 35 36 43 42
f 36 37 44 43
f 38 39 99 92
f 39 40 106 99
f 40 41 113 106
f 41 42 120 113
f 42 43 127 120
f 43 44 45 127
f 2 46 53 52
f 46 47 54 53
f 47 48 55 54
f 48 49 56 55
f 49 50 57 56
f 50 51 58 57
f 52 53 60 59
f 53 54 61 60
f 54 55 62 61
f 55 56 63 62
f 56 57 64 63
f 57 58 65 64
f 59 60 67 66
f 60 61 68 67
f 61 62 69 68
f 62 63 70 69
f 63 64 71 70
f 64 65 72 71
f 66 67 74 73
f 67 68 75 74
f 68 69 76 75
f 69 70 77 76
f 70 71 78 77
f 71 72 79 78
f 73 74 81 80
f 74 75 82 81
f 75 76 83 82
f 76 77 84 83
f 77 78 85 84
f 78 79 86 85
f 80 81 16 9
f 81 82 23 16
f 82 83 30 23
f 83 84 37 30
f 84 85 44 37
f 85 86 45 44
f 3 87 94 93
f 87 88 95 94
f 88 89 96 95
f 89 90 97 96
f 90 91 98 97
f 91 92 99 98
f 93 94 101 100
f 94 95 102 101
f 95 96 103 102
f 96 97 104 103
f 97 98 105 104
f 98 99 106 105
f 100 101 108 107
f 101 102 109 108
f 102 103 110 109
f 103 104 111 110
f 104 105 112 111
f 105 106 113 112
f 107 108 115 114
f 108 109 116 115
f 109 110 117 116
f 110 111 118 117
f 111 112 119 118
f 112 113 120 119
f 114 115 122 121
f 115 116 123 122
f 116 117 124 123
f 117 118 125 124
f 118 119 126 125
f 119 120 127 126
f 121 122 58 51
f 122 123 65 58
f 123 124 72 65
f 124 125 79 72
f 125 126 86 79
f 126 127 45 86
f 128 131 138 137
f 131 132 139 138
f 132 133 140 139
f 133 134 141 140
f 134 135 142 141
f 135 136 143 142
f 137 138 145 144
f 138 139 146 145
f 139 140 147 146
f 140 141 148 147
f 141 142 149 148
f 142 143 150 149
f 144 145 152 151
f 145 146 153 152
f 146 147 154 153
f 147 148 155 154
f 148 149 156 155
f 149 150 157 156
f 151 152 159 158
f 152 153 160 159
f 153 154 161 160
f 154 155 162 161
f 155 156 163 162
f 156 157 164 163
f 158 159 166 165
f 159 160 167 166
f 160 161 168 167
f 161 162 169 168
f 162 163 170 169
f 163 164 171 170
f 165 166 226 219
f 166 167 233 226
f 167 168 240 233
f 168 169 247 240
f 169 170 254 247
f 170 171 172 254
f 129 173 180 179
f 173 174 181 180
f 174 175 182 181
f 175 176 183 182
f 176 177 184 183
f 177 178 185 184
f 179 180 187 186
f 180 181 188 187
f 181 182 189 188
f 182 183 190 189
f 183 184 191 190
f 184 185 192 191
f 186 187 194 193
f 187 188 195 194
f 188 189 196 195
f 189 190 197 196
f 190 191 198 197
f 191 192 199 198
f 193 194 201 200
f 194 195 202 201
f 195 196 203 202
f 196 197 204 203
f 197 198 205 204
f 198 199 206 205
f 200 201 208 207
f 201 202 209 208
f 202 203 210 209
f 203 204 211 210
f 204 205 212 211
f 205 206 213 212
f 207 208 143 136
f 208 209 150 143
f 209 210 157 150
f 210 211 164 157
f 211 212 171 164
f 212 213 172 171
f 130 214 221 220
f 214 215 222 221
f 215 216 223 222
f 216 217 224 223
f 217 218 225 224
f 218 219 226 225
f 220 221 228 227
f 221 222 229 228
f 222 223 230 229
f 223 224 231 230
f 224 225 232 231
f 225 226 233 232
f 227 228 235 234
f 228 229 236 235
f 229 230 237 236
f 230 231 238 237
f 231 232 239 238
f 232 233 240 239
f 234 235 242 241
f 235 236 243 242
f 236 237 244 243
f 237 238 245 244
f 238 239 246 245
f 239 240 247 246
f 241 242 249 248
f 242 243 250 249
f 243 244 251 250
f 244 245 252 251
f 245 246 253 252
f 246 247 254 253
f 248 249 185 178
f 249 250 192 185
f 250 251 199 192
f 251 252 206 199
f 252 253 213 206
f 253 254 172 213
f 255 258 265 264
f 258 259 266 265
f 259 260 267 266
f 260 261 268 267
f 261 262 269 268
f 262 263 270 269
f 264 265 272 271
f 265 266 273 272
f 266 267 274 273
f 267 268 275 274
f 268 269 276 275
f 269 270 277 276
f 271 272 279 278
f 272 273 280 279
f 273 274 281 280
f 274 275 282 281
f 275 276 283 282
f 276 277 284 283
f 278 279 286 285
f 279 280 287 286
f 280 281 288 287
f 281 282 289 288
f 282 283 290 289
f 283 284 291 290
f 285 286 293 292
f 286 287 294 293
f 287 288 295 294
f 288 289 296 295
f 289 290 297 296
f 290 291 298 297
f 292 293 353 346
f 293 294 360 353
f 294 295 367 360
f 295 296 374 367
f 296 297 381 374
f 297 298 299 381
f 256 300 307 306
f 300 301 308 307
f 301 302 309 308
f 302 303 310 309
f 303 304 311 310
f 304 305 312 311
f 306 307 314 313
f 307 308 315 314
f 308 309 316 315
f 309 310 317 316
f 310 311 318 317
f 311 312 319 318
f 313 314 321 320
f 314 315 322 321
f 315 316 323 322
f 316 317 324 323
f 317 318 325 324
f 318 319 326 325
f 320 321 328 327
f 321 322 329 328
f 322 323 330 329
f 323 324 331 330
f 324 325 332 331
f 325 326 333 332
f 327 328 335 334
f 328 329 336 335
f 329 330 337 336
f 330 331 338 337
f 331 332 339 338
f 332 333 340 339
f 334 335 270 263
f 335 336 277 270
f 336 337 284 277
f 337 338 291 284
f 338 339 298 291
f 339 340 299 298
f 257 341 348 347
f 341 342 349 348
f 342 343 350 349
f 343 344 351 350
f 344 345 352 351
f 345 346 353 352
f 347 348 355 354
f 348 349 356 355
f 349 350 357 356
f 350 351 358 357
f 351 352 359 358
f 352 353 360 359
f 354 355 362 361
f 355 356 363 362
f 356 357 364 363
f 357 358 365 364
f 358 359 366 365
f 359 360 367 366
f 361 362 369 368
f 362 363 370 369
f 363 364 371 370
f 364 365 372 371
f 365 366 373 372
f 366 367 374 373
f 368 369 376 375
f 369 370 377 376
f 370 371 378 377
f 371 372 379 378
f 372 373 380 379
f 373 374 381 380
f 375 376 312 305
f 376 377 319 312
f 377 378 326 319
f 378 379 333 326
f 379 380 340 333
f 380 381 299 340
f 382 385 392 391
f 385 386 393 392
f 386 387 394 393
f 387 388 395 394
f 388 389 396 395
f 389 390 397 396
f 391 392 399 398
f 392 393 400 399
f 393 394 401 400
f 394 395 402 401
f 395 396 403 402
f 396 397 404 403
f 398 399 406 405
f 399 400 407 406
f 400 401 408 407
f 401 402 409 408
f 402 403 410 409
f 403 404 411 410
f 405 406 413 412
f 406 407 414 413
f 407 408 415 414
f 408 409 416 415
f 409 410 417 416
f 410 411 418 417
f 412 413 420 419
f 413 414 421 420
f 414 415 422 421
f 415 416 423 422
f 416 417 424 423
f 417 418 425 424
f 419 420 480 473
f 420 421 487 480
f 421 422 494 487
f 422 423 501 494
f 423 424 508 501
f 424 425 426 508
f 383 427 434 433
f 427 428 435 434
f 428 429 436 435
f 429 430 437 436
f 430 431 438 437
f 431 432 439 438
f 433 434 441 440
f 434 435 442 441
f 435 436 443 442
f 436 437 444 443
f 437 438 445 444
f 438 439 446 445
f 440 441 448 447
f 441 442 449 448
f 442 443 450 449
f 443 444 451 450
f 444 445 452 451
f 445 446 453 452
f 447 448 455 454
f 448 449 456 455
f 449 450 457 456
f 450 451 458 457
f 451 452 459 458
f 452 453 460 459
f 454 455 462 461
f 455 456 463 462
f 456 457 464 463
f 457 458 465 464
f 458 459 466 465
f 459 460 467 466
f 461 462 397 390
f 462 463 404 397
f 463 464 411 404
f 464 465 418 411
f 465 466 425 418
f 466 467 426 425
f 384 468 475 474
f 468 469 476 475
f 469 470 477 476
f 470 471 478 477
f 471 472 479 478
f 472 473 480 479
f 474 475 482 481
f 475 476 483 482
f 476 477 484 483
f 477 478 485 484
f 478 479 486 485
f 479 480 487 486
f 481 482 489 488
f 482 483 490 489
f 483 484 491 490
f 484 485 492 491
f 485 486 493 492
f 486 487 494 493
f 488 489 496 495
f 489 490 497 496
f 490 491 498 497
f 491 492 499 498
f 492 493 500 499
f 493 494 501 500
f 495 496 503 502
f 496 497 504 503
f 497 498 505 504
f 498 499 506 505
f 499 500 507 506
f 500 501 508 507
f 502 503 439 432
f 503 504 446 439
f 504 505 453 446
f 505 506 460 453
f 506 507 467 460
f 507 508 426 467
f 509 512 519 518
f 512 513 520 519
f 513 514 521 520
f 514 515 522 521
f 515 516 523 522
f 516 517 524 523
f 518 519 526 525
f 519 520 527 526
f 520 521 528 527
f 521 522 529 528
f 522 523 530 529
f 523 524 531 530
f 525 526 533 532
f 526 527 534 533
f 527 528 535 534
f 528 529 536 535
f 529 530 537 536
f 530 531 538 537
f 532 533 540 539
f 533 534 541 540
f 534 535 542 541
f 535 536 543 542
f 536 537 544 543
f 537 538 545 544
f 539 540 547 546
f 540 541 548 547
f 541 542 549 548
f 542 543 550 549
f 543 544 551 550
f 544 545 552 551
f 546 547 607 600
f 547 548 614 607
f 548 549 621 614
f 549 550 628 621
f 550 551 635 628
f 551 552 553 635
f 510 554 561 560
f 554 555 562 561
f 555 556 563 562
f 556 557 564 563
f 557 558 565 564
f 558 559 566 565
f 560 561 568 567
f 561 562 569 568
f 562 563 570 569
f 563 564 571 570
f 564 565 572 571
f 565 566 573 572
f 567 568 575 574
f 568 569 576 575
f 569 570 577 576
f 570 571 578 577
f 571 572 579 578
f 572 573 580 579
f 574 575 582 581
f 575 576 583 582
f 576 577 584 583
f 577 578 585 584
f 578 579 586 585
f 579 580 587 586
f 581 582 589 588
f 582 583 590 589
f 583 584 591 590
f 584 585 592 591
f 585 586 593 592
f 586 587 594 593
f 588 589 524 517
f 589 590 531 524
f 590 591 538 531
f 591 592 545 538
f 592 593 552 545
f 593 594 553 552
f 511 595 602 601
f 595 596 603 602
f 596 597 604 603
f 597 598 605 604
f 598 599 606 605
f 599 600 607 606
f 601 602 609 608
f 602 603 610 609
f 603 604 611 610
f 604 605 612 611
f 605 606 613 612
f 606 607 614 613
f 608 609 616 615
f 609 610 617 616
f 610 611 618 617
f 611 612 619 618
f 612 613 620 619
f 613 614 621 620
f 615 616 623 622
f 616 617 624 623
f 617 618 625 624
f 618 619 626 625
f 619 620 627 626
f 620 621 628 627
f 622 623 630 629
f 623 624 631 630
f 624 625 632 631
f 625 626 633 632
f 626 627 634 633
f 627 628 635 634
f 629 630 566 559
f 630 631 573 566
f 631 632 580 573
f 632 633 587 580
f 633 634 594 587
f 634 635 553 594
f 636 639 646 645
f 639 640 647 646
f 640 641 648 647
f 641 642 649 648
f 642 643 650 649
f 643 644 651 650
f 645 646 653 652
f 646 647 654 653
f 647 648 655 654
f 648 649 656 655
f 649 650 657 656
f 650 651 658 657
f 652 653 660 659
f 653 654 661 660
f 654 655 662 661
f 655 656 663 662
f 656 657 664 663
f 657 658 665 664
f 659 660 667 666
f 660 661 668 667
f 661 662 669 668
f 662 663 670 669
f 663 664 671 670
f 664 665 672 671
f 666 667 674 673
f 667 668 675 674
f 668 669 676 675
f 669 670 677 676
f 670 671 678 677
f 671 672 679 678
f 673 674 734 727
f 674 675 741 734
f 675 676 748 741
f 676 677 755 748
f 677 678 762 755
f 678 679 680 762
f 637 681 688 687
f 681 682 689 688
f 682 683 690 689
f 683 684 691 690
f 684 685 692 691
f 685 686 693 692
f 687 688 695 694
f 688 689 696 695
f 689 690 697 696
f 690 691 698 697
f 691 692 699 698
f 692 693 700 699
f 694 695 702 701
f 695 696 703 702
f 696 697 704 703
f 697 698 705 704
f 698 699 706 705
f 699 700 707 706
f 701 702 709 708
f 702 703 710 709
f 703 704 711 710
f 704 705 712 711
f 705 706 713 712
f 706 707 714 713
f 708 709 716 715
f 709 710 717 716
f 710 711 718 717
f 711 712 719 718
f 712 713 720 719
f 713 714 721 720
f 715 716 651 644
f 716 717 658 651
f 717 718 665 658
f 718 719 672 665
f 719 720 679 672
f 720 721 680 679
f 638 722 729 728
f 722 723 730 729
f 723 724 731 730
f 724 725 732 731
f 725 726 733 732
f 726 727 734 733
f 728 729 736 735
f 729 730 737 736
f 730 731 738 737
f 731 732 739 738
f 732 733 740 739
f 733 734 741 740
f 735 736 743 742
f 736 737 744 743
f 737 738 745 744
f 738 739 746 745
f 739 740 747 746
f 740 741 748 747
f 742 743 750 749
f 743 744 751 750
f 744 745 752 751
f 745 746 753 752
f 746 747 754 753
f 747 748 755 754
f 749 750 757 756
f 750 751 758 757
f 751 752 759 758
f 752 753 760 759
f 753 754 761 760
f 754 755 762 761
f 756 757 693 686
f 757 758 700 693
f 758 759 707 700
f 759 760 714 707
f 760 761 721 714
f 761 762 680 721
f 763 766 773 772
f 766 767 774 773
f 767 768 775 774
f 768 769 776 775
f 769 770 777 776
f 770 771 778 777
f 772 773 780 779
f 773 774 781 780
f 774 775 782 781
f 775 776 783 782
f 776 777 784 783
f 777 778 785 784
f 779 780 787 786
f 780 781 788 787
f 781 782 789 788
f 782 783 790 789
f 783 784 791 790
f 784 785 792 791
f 786 787 794 793
f 787 788 795 794
f 788 789 796 795
f 789 790 797 796
f 790 791 798 797
f 791 792 799 798
f 793 794 801 800
f 794 795 802 801
f 795 796 803 802
f 796 797 804 803
f 797 798 805 804
f 798 799 806 805
f 800 801 861 854
f 801 802 868 861
f 802 803 875 868
f 803 804 882 875
f 804 805 889 882
f 805 806 807 889
f 764 808 815 814
f 808 809 816 815
f 809 810 817 816
f 810 811 818 817
f 811 812 819 818
f 812 813 820 819
f 814 815 822 821
f 815 816 823 822
f 816 817 824 823
f 817 818 825 824
f 818 819 826 825
f 819 820 827 826
f 821 822 829 828
f 822 823 830 829
f 823 824 831 830
f 824 825 832 831
f 825 826 833 832
f 826 827 834 833
f 828 829 836 835
f 829 830 837 836
f 830 831 838 837
f 831 832 839 838
f 832 833 840 839
f 833 834 841 840
f 835 836 843 842
f 836 837 844 843
f 837 838 845 844
f 838 839 846 845
f 839 840 847 846
f 840 841 848 847
f 842 843 778 771
f 843 844 785 778
f 844 845 792 785
f 845 846 799 792
f 846 847 806 799
f 847 848 807 806
f 765 849 856 855
f 849 850 857 856
f 850 851 858 857
f 851 852 859 858
f 852 853 860 859
f 853 854 861 860
f 855 856 863 862
f 856 857 864 863
f 857 858 865 864
f 858 859 866 865
f 859 860 867 866
f 860 861 868 867
f 862 863 870 869
f 863 864 871 870
f 864 865 872 871
f 865 866 873 872
f 866 867 874 873
f 867 868 875 874
f 869 870 877 876
f 870 871 878 877
f 871 872 879 878
f 872 873 880 879
f 873 874 881 880
f 874 875 882 881
f 876 877 884 883
f 877 878 885 884
f 878 879 886 885
f 879 880 887 886
f 880 881 888 887
f 881 882 889 888
f 883 884 820 813
f 884 885 827 820
f 885 886 834 827
f 886 887 841 834
f 887 888 848 841
f 888 889 807 848
f 890 893 900 899
f 893 894 901 900
f 894 895 902 901
f 895 896 903 902
f 896 897 904 903
f 897 898 905 904
f 899 900 907 906
f 900 901 908 907
f 901 902 909 908
f 902 903 910 909
f 903 904 911 910
f 904 905 912 911
f 906 907 914 913
f 907 908 915 914
f 908 909 916 915
f 909 910 917 916
f 910 911 918 917
f 911 912 919 918
f 913 914 921 920
f 914 915 922 921
f 915 916 923 922
f 916 917 924 923
f 917 918 925 924
f 918 919 926 925
f 920 921 928 927
f 921 922 929 928
f 922 923 930 929
f 923 924 931 930
f 924 925 932 931
f 925 926 933 932
f 927 928 988 981
f 928 929 995 988
f 929 930 1002 995
f 930 931 1009 1002
f 931 932 1016 1009
f 932 933 934 1016
f 891 935 942 941
f 935 936 943 942
f 936 937 944 943
f 937 938 945 944
f 938 939 946 945
f 939 940 947 946
f 941 942 949 948
f 942 943 950 949
f 943 944 951 950
f 944 945 952 951
f 945 946 953 952
f 946 947 954 953
f 948 949 956 955
f 949 950 957 956
f 950 951 958 957
f 951 952 959 958
f 952 953 960 959
f 953 954 961 960
f 955 956 963 962
f 956 957 964 963
f 957 958 965 964
f 958 959 966 965
f 959 960 967 966
f 960 961 968 967
f 962 963 970 969
f 963 964 971 970
f 964 965 972 971
f 965 966 973 972
f 966 967 974 973
f 967 968 975 974
f 969 970 905 898
f 970 971 912 905
f 971 972 919 912
f 972 973 926 919
f 973 974 933 926
f 974 975 934 933
f 892 976 983 982
f 976 977 984 983
f 977 978 985 984
f 978 979 986 985
f 979 980 987 986
f 980 981 988 987
f 982 983 990 989
f 983 984 991 990
f 984 985 992 991
f 985 986 993 992
f 986 987 994 993
f 987 988 995 994
f 989 990 997 996
f 990 991 998 997
f 991 992 999 998
f 992 993 1000 999
f 993 994 1001 1000
f 994 995 1002 1001
f 996 997 1004 1003
f 997 998 1005 1004
f 998 999 1006 1005
f 999 1000 1007 1006
f 1000 1001 1008 1007
f 1001 1002 1009 1008
f 1003 1004 1011 1010
f 1004 1005 1012 1011
f 1005 1006 1013 1012
f 1006 1007 1014 1013
f 1007 1008 1015 1014
f 1008 1009 1016 1015
f 1010 1011 947 940
f 1011 1012 954 947
f 1012 1013 961 954
f 1013 1014 968 961
f 1014 1015 975 968
f 1015 1016 934 975
f 255 264 271 278 285 292 346 345 344 343 342 341 257 763 772 779 786 793 800 854 853 852 851 850 849 765 509 518 525 532 539 546 600 599 598 597 596 595 511 1 10 17 24 31 38 92 91 90 89 88 87 3
